<mxfile host="app.diagrams.net" modified="2023-11-08T07:27:37.113Z" agent="Mozilla/5.0 (Windows NT 10.0; Win64; x64) AppleWebKit/537.36 (KHTML, like Gecko) Chrome/118.0.0.0 Safari/537.36" etag="A88QyOlUp1Jl1WnXJXu4" version="22.0.8" type="github">
  <diagram name="Page-1" id="HApkWI6-aUnR0YJSj3VK">
    <mxGraphModel dx="3600" dy="2540" grid="1" gridSize="10" guides="1" tooltips="1" connect="1" arrows="1" fold="1" page="1" pageScale="1" pageWidth="300" pageHeight="300" math="0" shadow="0">
      <root>
        <mxCell id="0" />
        <mxCell id="1" parent="0" />
        <mxCell id="aZVy_YJEkJ1AmMruKeH3-1" value="Panel" style="rounded=0;whiteSpace=wrap;html=1;" parent="1" vertex="1">
          <mxGeometry x="-199.95" y="-638.8199999999999" width="319.99" height="120" as="geometry" />
        </mxCell>
        <mxCell id="aZVy_YJEkJ1AmMruKeH3-24" value="DHT" style="shape=image;imageAspect=0;aspect=fixed;verticalLabelPosition=top;verticalAlign=bottom;image=https://camo.githubusercontent.com/01ce2857061c57a836b5667aa17e05192bc49446cea99410f2551072131420a5/68747470733a2f2f71656e67696e656572696e672e65752f696d616765732f53656e736f722e77656270;imageBorder=default;horizontal=1;fontFamily=Times New Roman;labelPosition=center;align=center;" parent="1" vertex="1">
          <mxGeometry x="-199.95999999999998" y="-788.45" width="82.89" height="59.63" as="geometry" />
        </mxCell>
        <mxCell id="aZVy_YJEkJ1AmMruKeH3-25" value="MQ2" style="shape=image;imageAspect=0;aspect=fixed;verticalLabelPosition=top;verticalAlign=bottom;image=data:image/jpeg,/9j/4AAQSkZJRgABAQEAYABgAAD/4QAiRXhpZgAATU0AKgAAAAgAAQESAAMAAAABAAEAAAAAAAD/2wBDAAIBAQIBAQICAgICAgICAwUDAwMDAwYEBAMFBwYHBwcGBwcICQsJCAgKCAcHCg0KCgsMDAwMBwkODw0MDgsMDAz/2wBDAQICAgMDAwYDAwYMCAcIDAwMDAwMDAwMDAwMDAwMDAwMDAwMDAwMDAwMDAwMDAwMDAwMDAwMDAwMDAwMDAwMDAz/wAARCAEeAiYDASIAAhEBAxEB/8QAHwAAAQUBAQEBAQEAAAAAAAAAAAECAwQFBgcICQoL/8QAtRAAAgEDAwIEAwUFBAQAAAF9AQIDAAQRBRIhMUEGE1FhByJxFDKBkaEII0KxwRVS0fAkM2JyggkKFhcYGRolJicoKSo0NTY3ODk6Q0RFRkdISUpTVFVWV1hZWmNkZWZnaGlqc3R1dnd4eXqDhIWGh4iJipKTlJWWl5iZmqKjpKWmp6ipqrKztLW2t7i5usLDxMXGx8jJytLT1NXW19jZ2uHi4+Tl5ufo6erx8vP09fb3+Pn6/8QAHwEAAwEBAQEBAQEBAQAAAAAAAAECAwQFBgcICQoL/8QAtREAAgECBAQDBAcFBAQAAQJ3AAECAxEEBSExBhJBUQdhcRMiMoEIFEKRobHBCSMzUvAVYnLRChYkNOEl8RcYGRomJygpKjU2Nzg5OkNERUZHSElKU1RVVldYWVpjZGVmZ2hpanN0dXZ3eHl6goOEhYaHiImKkpOUlZaXmJmaoqOkpaanqKmqsrO0tba3uLm6wsPExcbHyMnK0tPU1dbX2Nna4uPk5ebn6Onq8vP09fb3+Pn6/9oADAMBAAIRAxEAPwD9/KKKKACiiigAooooAKKKKACiignAoAKiPymqGu64vh3Rbq+m3GO1iaV8d8Ak18h+KP8Agsx4K8MeMbzQZdH1SbU7GRopY4iMKy9eTjitqOFq15ctJNvyOPGZhQwqUq8lFeZ9mZpK+DL/AP4LzeB7JpAfDOtHywcfMvNZ5/4L++CQ2F8J622ACcyIK7/7Fxz/AOXTPNlxNli3rI/QT8f1oKGvz7uP+C/XgyJiq+EdaYjkDzU5/WoZv+C/nhKKNZP+ES1bbjcczoMfrU/2Ljf5GaR4iy57VUz9CsFe+2nbtv8AFur855f+DhrwWERm8LaoqsM581CD+tLc/wDBwt4FtJWU6BfydCHV128/jVrIce9qTE+JMt61kfoqYvf9KcE2nrX5vyf8HEng5gPL8L6k5z/z1QA/rUM3/BxL4TU5XwrfNt6/vk4/Wq/1fzD/AJ9Mz/1pyvZ1kfpRupGcKK/ND/iIk8PuMr4RulBB+9cJ/jVFf+DjXR2Zl/4QyT5Wx/x9L0/Oj/V7MP8An2xf605V/wA/l95+nXme360M+R6V+YNx/wAHGWnRyFV8EyYx1N0vP61Xvf8Ag4whWHzIfBMe0nAZrkdfpR/q7mH/AD7Yf61ZT/z+R+owVjR2r8s9P/4OK/7U1CG3/wCEPtITMdgd7n5VPqecgDvjNR3P/BxfJptzcRTeDbJ/JkMayRXe5JAD94Z5waI8P5ht7Nh/rTlVr+2R+qGSO9Gc/wD6q/KG6/4OPLp5sReC7MR+puM5/Wqdx/wcd6xndD4N0tlzj5pGz/OtI8M5k/8Al0zN8XZR/wA/kfrUzZFNzkV+Tcf/AAcgal9mZm8F6e0mONsx4P0zTbX/AIORdUY7W8E6fIx6bZiP5mr/ANV8y/59Mn/XHKNvbo/WgD5aCMe1fk1a/wDBxzrFzkf8ITp7bTztnPH4ZpZP+Di3Xwyj/hCdNUHqTNx7fxVH+rWY/wDPpjXF2UPX2yP1kD0E/wC0fzr8j9Q/4OOvEFvCzJ4N0VdnBLTsf5Go7H/g5M1cxf6R4N0ndg58uZuv50f6uZj/AM+2H+uGUf8AP5H66Dmjfj+vNfkIP+DkzxAksg/4Q3Q5Bxs2zOMfWmD/AIOTfETy7f8AhD9EXaNxPnMaP9W8x/59sX+uGU/8/Ufr/vyv8qQNmvyAi/4OTvECuxk8I6P5eMgea3Faekf8HFuueI75bLT/AAWt/qGAxt7WTe4HuACccis58O4+HxwaNqPFGW1XanUT9D9bGfBzSB+f/rV8F/Cn/goT8bPihF9ok+Hum6HZzossD3t1hnU+ijLA9+RXosX7XHiw3It/t2ky3h+VoYYC5Vup7+leTWp+xdp7nu0aiqq8T6xjcbBSmUCvj3xN+3Hr3g+cLqdzZ6fFs3tcToiRIPQndnP4V434v/4LmeCvBs8kMnxE8P3VxC+1o7a1a4K5JA5UBeOO/euf6xA29mz9JvM9qPN5r8u9Q/4LjlrtI7G51S+SQlPMt9GypPUbSW9Pb0q1rH/BYDxZp9xawx6X4rZrxFaF20qFVbd03fNxU/WIj9nI/TrC/wCTQFX2/OvzH0n/AIK7eMrmFTdWOuW0yKHkA0+Bk2nvkPW14c/4Kvaxr1x5I1prad182NLrR/K3Lznnd2x360fWoB7OR+jzOFpouFxXwHo3/BUa/wBQtvObXtJeFpfILNCYNr85BJyB09a6rwz+37qHim6SO01ZZ5GyWWARTBfwXmhYmHUXs2faQkDGkkdQy18aa/8AtdeLEv7e10/xZpMF5cyeVBbX9kytO56KCo4P1FeT/G/9ur9p34VILq18I6LremqC0k+nTiYhR/sFQQfzrqw8VWdos569VUo8zR+kQkXP96gyKD0Ffi0//Bwj8T7DWW0+60fS7S/wcw3Csjj3IKg/lVa5/wCDhP4lW0iR3NnpCSsu8bQVBH0xyK9unw7jqq9yP4nh1uJ8BRdqk7fI/a5bhM04y7q/D25/4OB/ik00vzaM208BVIA/So7j/g4N+KEgXy5NKhXv8hbP6V0rg/NH9g43xtlH/P0/cUspFAnDd8fhX4dXf/Bfn4tXVv5kUmj7uo+Q9PpVa1/4L4fFS8O03lhub/ZK4qv9Ts1/59kPjvJ1p7U/c8uf7woD+rfpX4bJ/wAF5/ixEVWWexZGJIba3b3xTrv/AIL0/FFJd3maeVXg7C+P5Uf6m5r/AM+xf6+ZP/z8P3H3Z9KVee1fiJbf8HAXxEh2qYtNdl6kySc1taf/AMF+/iDqY2Q6LpskncrLLg1MuEM0X/Lsf+veT/8APz8D9oZWCkZpBL6Cvxrvv+C7HxFW33toemxbh1N5IuD9DzWTf/8ABeT4jac/7zTLNlXhsTycfrWVPhfMZaKH4mn+uuVJXdT8GftSXUkUDbj7tfiUn/BwL46mkH/Ev05mHXM8uP51saF/wXo8fakW26Tpreh+0y8frW0uD80tpTJXHWT3s6h+zfG7680oHPSvzZ/ZJ/4KteJ/jt8b/DnhfULC1tV1iUjzYpnbAVC2MMcdq/SS33NEMk9M5rxsdltfBTUK6sz2MqzrCZjCU8JK6TsyxRQOKK4T1gooooAKKKKACiiigAooooAKKKKADNMZ/mP0p5GRUb8NS6gcH+0jq0ujfBPxLcQMqyRWTkE9O3Wvwh+OuueX+0x4zkRmWRbu6GRwehr91P2q2ji/Z/8AFRb/AFYsmLY5NfgX8abp1/aV8YcMyvd3RKk4wcGvv+A6alXlfsfkvijNqjTS8zxPXvF19c3LxxSzHzDhcMSRVGDxDcW9yts8l5eX8gASCIksef4iPbsKNYjDt5cW5Li4JWMouWQccj37V9w/8ElP+CbFx8d/iBb6lqkQj0TTHW51SaZT5kkZHECnsz9Tg8Ae9fecSZ9Ty6nyRS5j8z4T4drZvVSk3yngPwa/Zc+MXxyvIrXwz4dlbevBCmVkz3YnO38cYr2mb/gjx+0rYabHI/hy11BnUkwi4gBAHY/MMZr9xPh38L9A+Fnh6HS/DulWelWNuNqRQxhPz9fxreFv8uNvtX5TU4qx0pc116H7pheB8uox5ZRb8z+Y74wfATxd8JtZbTfGGgap4auyzJDJLAyQyEHBIyMEA8ZUnpXj3iaz1Lw/c+XLIsit910bdG/0Nf1G/tOfsz+G/wBqD4Val4Y8RafZ3SXkLLbTyRBpLOUj5ZFPUEHB4PNfgN+3H+w3rf7GXxduvB2vNFdWOpRCfS7xP9XPnIUjPT5htI+nrX3HDHF3tqiw+Jtc+N4o4KjQpPE4ZM+XrTWrhWBZm25x171dj1mZo25+ZhyD3qlJF/Y2o7J49zRsUeM8c8iiyk28Z3Ljgelfp1NRkro/Ja1NbmquoTeUqnbzz1pouZFZm+XnrUcCZi+bg9Rn0pyYWM9+a09ml0PPbHtqEhP3iy+9MOpSZ27m6/dzxSqfMjfcR7cUkcaQx75F+nHWjlj2KT6D31NlA6Ky9Dnmok1Jmz834dRTZNrsWxhcd+1Nh+/wOmeacacb7FR2JhesJR+dKdTkUY/vZPWoApyvPemPy2PfFEqafQLErX8kS9drZoTVJQu7PsSKhmJKdenrUR+SP73GelTKKLUUy9ZeJpIX2KQD/EwHLUt94rnnb5mPCgYHQ8Vkhv35w23dxnNMl+Q7f73fNZyirG6plqbWGCfePzHnNMk1Roomb+LNQF/MVfl+6e9PaJfLwxCbjn1rKSit9F3No01ezHJqM1w3TAz2rU8FeDtf+JXieHSfDuk32s6jO4jSG0iaQkk45IGAPc4Fe8fsg/8ABNrxV+05aLrOrXD+DfBiKznUrqL95dhc5ESHG4dBuJA96/R7wF8PvCH7J3wXjh8I6XY6XpkNuI7rxBdskC3Um35pHkYktzzsBKj1r4biDjLCYFOnT96R97w7wLiMfarW92H5nxj8Gv8AgjZ4iupbe9+JWv2Gg6eyrK9hp0gnvQf+eUjfcRsccFuexr6s+H3w1+EP7LGkLeaPo+g6W1tF5b6vrM6LPcoDkkmTk4x0VR04ryn47/8ABRiS80KXw38N9Iutc1y2wLjxPc4hso/Xyy2Q2T0I9K+TZdDuvEHi271zxhqF94/1y7lLvC+/7FATg+Wh/wDsQOa/Jsy4mzDHO83yrsj9hynhXLsAr0o3l3Z9c/F7/gqxoLs2m+BdK8ReObxCYhcWEX2LTQAB92ZwCwz3GOleUXX7YvxX+IFxb241Pwv4C03Y32k6d/p2psTnGXIwrdOc+1c54E+HPjL4g+K4Yf8AhH2sbO35W0WPEKI2cKvGO46c8V67oH7Gk1pNJJq1vp+lnYUCvJlmz6rXz80n70ndn0XKkrI8N8Z2Fr4huJl1TxN428QLdALcfadTZUkI+8mwH5c4PI9etU9D+DHhmeVf7B8FWCwdnlieWVmA5ByTuPHWvsj4dfsdaNdlbhbW2uUUj5nAih/NiP5V6XpXwt03wnbLDG+h2UcbEF4G81l+hx/WsuaKNI3Pifw3oPiOW1ma1sRbx4CJEtmMxY/unGMjv3rpb3w74sS3hkurrXp2hAZXVRhQOg/CvsrR18D+HpGW6u575pF+ZIrc7S3fp/OnXHxM+HdirQyaDetjBHBAP51Htkacp8z6J4B1TX9Pja3vLpJGjSFzNAY2Jx8wI9ASee9Q6p8AfEVx9oZZYZpY1AikwSrdzj25xivqSx8ZfD/xI7xx6XfW8gjIO2MsFAz75qne+CrW5upm0PxCtmWw6w3KMoVce9JVExanyHc/BLxYNJmjm0eG4jds+SMrv98Dv3z1rBh8G+JPhbewXmn2uvaZJGjr50Dv5bk9TznOPrX29D4P16ysxIrWHiFc5ZY5F3Ad8VX1PTrDUk+z3VrJpco+95q7lz6YPFXGSbsRzWPkyx/bA8TeG7+GXVNNt9cWzH2uC5mj2XcTjGQpUH5umN1es6F/wVJ8Mz/Y7qaz1vR4r+PdqFrdWwmhsWbo25Scq2Gz3XHSuk8Ufsy2PieFriFbNpGfdE0QDMH7E14x8TP2OdXtLue702W3LSAgiaLHln1HXnk/nWyjbWLJlZqzPVfFHgH4F/to6dJdSafp0t59z+1NHdY57X037QDjP95Tmvlv9oP/AII2+L9Iin1bwLrtp4qt4V/dWU8nk3wj/ugH5WP4gmsbWPhx4u+EesyPp6ajZz3ChDJagrvbna2B97BOce1etfs/ft5XWkrb6T4qju2vrVcS6nDJuCoDgEpwdx4zxXtZfxFj8E17OV12Z4OZcO4HHLlqQ1fVH56eMPDus/DvxFcaVrmn3mk6lbtiW3uYijofof8APNU0vsfeb5dw4r9kviB4F+GH7XHgtk8SQafd3DLtg1SOMNNAx5HzDBPGOCa/OX9q7/gnP40/ZpuJtUtov+Em8JySGWHUbJd3krycSKOVwMeor9c4f43w+MapVLRmfj3EXANbAp1qPvw8lqjxOLXjbRMqhd2OD3psWpkFmK4b3rKhmVofvbj9efyp8cjTSbj8zL1r9ApzTR+eTwsY6M15fEckmASfLUYUDoKgGuSMPLVvlJ5GazZ7lo3JbI3H5farvhmwk1rVFiQbmc9/br+Q5rbmSiSsNHdHQ+HNDk1eSSR/3cMeNzMOpPQAdya+uv2Ov+CY/wAVP2r9Jj1Hw7pMOg+HsgHU9SdoUm7HZwWf/gIx71zf/BMX9l+8/bC/ak0jQldToOiut9dL5eVWFGBfd/vH5R/vV/Q94Z8O2XhjRLXT9PtYbSxs4hDDDEoVEUDAAAr8l4r4uqwqeww5+rcIcD0qsPrGKWnY/OHwJ/wbo+G1sY28U+OdWvrofOVtIwqI3sWySK8z/ae/4N+dQ8Nabdan4N1y71COP5/LOWlGB1KfxfQc+1fr2IsA+npTJYM442/SvgI59joS51UZ+jT4Xyx0+R0kfy3/ABq/Zl8XfBTUriHWNLuEt7dtrXsSkwsemDx8p9jyK43wz4guNMlXazeX3HpX9DX/AAUV/ZH0n4j/AAs1bXrWxi+1Qx51GFY9wuYiMMwUcblzuz1+WvwL+Nvw0n+FHxN1TRZwzfZpMxyMMeYh5Uj6jmv1Xg7iqeOm8LibX6M/H+N+FYZbFYjDfCfUn/BLvV3vf2zPhqWLMJJ5gQPaJ6/fm35jHXhR1r+fv/glC7T/ALaXwv27R+8uGI/7YvX9Adv8kYz6Cvl/EbTGwt2PpvCW/wBTq3/m/QsUUUV+en60FFFFABRRRQAUUUUAFFFFABRRRQAE4FRucFakPSo5Oq0B1PNf2u4/N/Zu8ZKrbWGmyYP4V+BXxoRB+074oHC5ubliCcAfKa/fH9sN/I/Zo8aEHJGmSE/lX4J/G+FZv2ofFkaru/0qbnHP3ea/QvD+3tpt9j8n8UI3pU/RnmnwZ0ZdZ+OGJ41kGlwGZVblDtXdj8z0r+hP/gnt8JLP4Vfst+GY7dV8/WoRql1IBje8vzAfRVwAPavwE+AeorpvxovPOjIF9byokhGAzmIYUe/Ff0S/skarBq/7NXgqS3kSVV0e3iYqc4dUCsv1BBFebxpUm8e1LY7/AA1w9Onli5d2ekRLtO0enWngcUyNsnjnjmpB1r48/SSGaMEA/jj1r8+/+Dg74T2PiL9ljRfFzwqNQ8MaoirLt+YRS8MM+mQD9RX6C3LYA4r4S/4OBPiJY+Fv2Fp9KuJE+2a9qcEFumOW2He2Pyx+NdmW8yxMOXujjzCMHh5Ke1mfhf8AG6OOPxfDdxtu+2W8c7A9EyOgrl7KP5ce+K6T4oal515aWqxqTHbpvYjLE7en4Vy8LiGAzSMqRZwXdwq5+pr+lsDU9nh1KrpZdT+X8wp+0ryjR6s1kUlPXbxmnIBlvl3cZwasXWhX2l+DrfWri1uIdFuCFiv2QrbyE9MP05ql5EyrGzKfLkGVfP3vx6VvTxuHqPlhNN+R5VTLsRBc04NLu1oOVtu7ikkl3k56enpTZJdpwu7njFOO0n7v41ukcVuoiSBY9vv6U6IZDHsf0oEQKZ/GkBKD+laB6A+MfzqGT5G/2aJZOf4vlHNNmbzMY3fNjHHU1Mpcqu9janTbskIzKSuf4jUBZZFC+hqlqvijT9KkEdxcx+d/zyi/eP8AkKSy1y11ZlS3uI/M7KwKsfpnr9K815phebkVRX7HsRyXGKHtPZvl72LSgA8jPOcVCfkmx/eOOakt2Yy7erV0nww+F2qfF/x1Y+HdDtp73WNSfZawxx7t7Z/iP8KgZJY8ACrq4iFOm6k9vwMaNCdSoqMVeT2MW10K+1SeO3tLO6vZppPKgSCMsZm9Fx1NfpV+yR/wS58M/Czwvpfij4iWP/CS+LJglzDob8w2hYDZG0XWRweWBwB6GvV/+Cf3/BNmz/Z0RbyW6tfEviw/vJtRkh8ux0RQPnWMtwzjn5zj2qT9ov8Abyh8AQ6x4d+EcNjdXlvIYb/xlqWZLexkJw/lkDtyAM8n1r8a4q42lUbw+EenVo/aeFOBoUYrE46N5dEX/wBsD9oq1/ZY8NQommReKvHRtvtFr4bUhbeyQYAZ0AJ4yAFIxwelfFP7QH7Qvif4/anprePp4dVvp7VZrLw3FmPS9JDdN8YPzuM9CAB79KzfteveLvF+rQ6Lc6ldahrO19S8SXg8y41XBO4Rn/llGDjaoz/Svo39lD9gOXWJ7fUtYkaYyZIkZCZOxLEk9MfQDOfavzWMZTfPO782fqVowXLFW8jyD4bfs86h8WLuxh1maYQxsoGnxD/R4vRSABj8O4r7F+Df7FXh3wjp8bSWccskoHE53E4GOc9x0B9K6rVr7wP+zzYFY5rM32NoihXzJGIH8I6k/p715146+OOsPpkmtapfaZ4F0FY96XmqTIkkwA6ru9ucLmpqVorRAoSe53HiCGz8P6PuGdFs45CqWyH/AEicD0HZT681ztn4ss3lj/sfR/OvJMjzpyZ5FzwSWP3B74rwnSP2mtR+O3ieSz+D/gzVPiFcYCy+INUZtO0OFjxuEjgvKoweFHavQof2PPHXxL09f+FkfERbPTj8zaP4OszYQZGSd9ySZG24zwB6d6x9nObv0N9ErGx4w8U6FoFrNeeJPGGg6O0YBkha8Hm4zjABI59sdK8ttP2zdK1bU10/wj4X8aeKkff5NxbWg+xttJUguMnOQePcV1Hgn/gkd8F/BvxetfG39j61rGoWUyyxR6tqsl3Cbk4IYxvkM3OeSRntX1BDNEljItvtigVGeJI4/LVMORwF465qvqv8xn7SzPl/4d+I/ih47to7uP4f2Oi7n3rHq99PFJsO7nYBwQV2kZ4LCti0+EXxOkkuLq6n8A27SyF4o5IpLjzI2DFPmZhtO5QCMH7wr6EuDC2DIRJtVGYn5giP3/BsdKzrgx2Yk+0W0tq0bbvLceYHX/nqo/un0HTrWiw1MPaM+NvHWu/tCeBfi54T0TRfC/g/WbDxE0gub+1SWGDTFHIa5YZ2jB49cV3HizXvjd4KhjkHg/wzrigRiRLC+nDYZSW6huhB/Svc9R1YR7kXyWkZT8udzlAMkjB+ZSO6g47iorTRrq61FXWP7LCsSlpml+6rHG49gp6Bjwx9KPq9PoP2jPkzRP8AgoPa6B4oj0rxb4O8beArxpCz3M0RaxRA5TzfMOMpuHXA7V9M+FvjRZ+ItKtrzTPE2heKILhcpEZVklmA64XnOOnWt668JXWq6RKsqw6jazO0MtvdQBt6BvlUcEMCcNxx05PWuG+IX7D/AIY8W2Sw3fhFdNkkmkmi1LTh9lb7Q4YHY8ZGeWJA5GQKzlQtsLnO7tfHukyjdLBJo85Yb44jgZ7fKa6Yz289iWkaPUrUoCJSvzL9V6A18w67+zd8ZvhLItv4O8baT4qsoplL6d4rsgzWtuqj5ftKDcZCcjLKMYrP8K/tkzeBNSjsfHug6t8LdUdInN1cH7VosjSltircLwpbacBuetCk46BofTWr+BNN8R6c3kxr+8BCoy/MhxjI9P8A69fO/wAVv2FtD1WOW4063eyuo/3sRjXad31HNezeFfjLDq9r9qmks76xb5hqGnyrJET/ALW3I/ka7iyv7PW9KhuG8mZZPlEquCwPuOo/EVpGsnoyUmj83Tq3iT9n/wARsub5bezf541laNLpugY8YPXmvoD9mL9qeb4iXF54fvrW3W8a2aWW2k5s72LcFZdp6H5gMV7j8VP2etI+Jdj5WpWkdxjlZVHzqOuDXyF8e/2U9V+FV/Lq2my3FxZ5CosYIaNOoXjnqBzVctnzQ08y42kuVoj/AGq/+Cb3hL4n+BdY8UfDWwbQPEmlh7i60LzGkjuwOW8odQRzgDivzz+e1laGaKSC4jOJElXayN6Y9RX6R/Ar9pn+x7z7F4tuWtZoXX7DeA4nhJ+UAkDDKO5brSftW/sU+GP2ipW1W3aLwz42urffb3MMf+ga8TyrueBG56fWv0PhXjOWHksNjG7dGfmfFfBcMTF4nBq0ux+aV1ct5mex6e1dH4Gt2WxvLxZhG1rCQOOpY7R/Os/4mfD7Vvhd42vtB16zksNU0yTypoGHU44I9QeoPpTvBepL5tzaMPluISFXPVxyK/XqmJVTDOpTd9ND8khg508RGnVVmnqftd/wbf8AwYj8N/CjxN40ktGSbxA8dvBLIv8ADGzhgh9yASPav1AiXC9K/Iv/AINu/wBppby58S/DrUr4KzQpe6REz9QpJlUf7XzZwOwNfrlDJ8v3cc9BX89Zo5vEycz+jsq5VhYKO1h+yhuRSeZx/jTWl4rzz0CvqtnHqNhNbzIrxXCGN1IyCDxj9a/n6/4Ky+B7XwV8dI44Y1QK09q7DqVjldV/IACv6A9Y1eHSNKubyZhHBaxNI7noABk1/O3/AMFR/jDb/E79pPUWt5FeOzeTJHPzO7Ofy3Yr6bg+MnmcOXpufE8fOKyqUZbt6G9/wSc1Bn/bc+GKqvzB7gO2PvfunxX9BkB3Qr9BX8+f/BJKGa5/bc+Gcka7lU3DSHqAvlOM/niv6DIFzCvIPAr2/EL/AHyH+E8Hwpi1gar/ALxYByKKBxRX58fqgUUUUAFFFFABRRRQAUUUUAFFFFAAeRUbj5l9qkpjfepdUB5d+2QQv7L/AI63Dj+yZzkf7tfgn8Xbv/jJnxHN5bIzTz7SO/yV+9n7Z5KfsueOtufMGjz4/wC+TX4IfE9VP7TOt7txZbq4499tfoPAto1Js/KfErVU15M8d8PeN7jwb45t9cWFbn7FnfG33R1w39K/ZX/giT+2/wCHfiN4DufBM1/FBrDTNeWUUso/e7gPMjQeqkFseh9q/F/VGjS/unV1Bj4Kt0kGehHcVH4L8Ya18MvF1p4g8K301hc2585RBIVkgkB4Kgf5xX1XGPDEsSniaO58lwDxOsI1Qq7H9Vgl2v8AN9TTvtIHQNX41/so/wDBxnq3giGHT/ippdx4gtYYQiXenwql2zDr5m5lU/gM17N4z/4OW/hXZaLcf2R4U8XTajsIi85IRGHxxu+fOPpX5FLLcTGXK4s/dqWZYapHmjNfefox418aab4E8NXmsaxe22naZp8bS3NxcSBI4kAySSelfhj/AMFjP2/9M/bj+MWl6D4XkWXwV4RVnF6Bj7VK333HtgBR75NeX/ti/wDBTX4sft2XcllqmpPofhCOUYsLbMNqBxgyd5G4PBJGTXzr4s1Wxsg1lo7SfY2IaSR/vyv6n2r7nhXhOpVqqtW0s7nwHFnGFCjRlh6DvJqxjeKdQGs61cTr8qyNhSe3YfpXb/slfsa6x+3L41vLOSaXT/CHhkFWumiIEkzfwrx87E9uw5rz24T958vJwAN3c1+gP/BGn9qrS7fwh4n8KSQwxano0xuVtQP310CMb05ycY/I19lxtiKmHwV4d0j4vw/w9PEY5uqr6XOj+J37LU/g39lPRfhj4m02xfQLGdha7bnZdxz5Z0JOCCQMjbXwv8b/AIMap8BtQ0+bUJLm803xA7W8avbMhtyvKMSOO/NfqJrHiLWPj3omm/Y9MaQ22o/bJmvWWNEhDkDPO7cefrXhf/BYv40+B/B/h/w38PdJ8MrL4o122L3EwfzP7OAZCJFw3ys+1hyOgNfjmU5riIY+HspPV6o/as4yrC1cvqe0Ssl6H57xai0wJ+VWXg/WrSH93z+dZdraeSduScMec+/WthEV029OMiv6VwfM4XnufyjjIxhNqO1xpf5Pf0qPzN7bR+dSSFY7crj589faoGOx1PrXUc8YojMzMdvb2qp4gbULg6fpmj27XWseILldMs40XdJmQhSVXucHH41aL5P+8OtT+HPGUnw6+Lnw88TfL5Og67HLIxxhASuCT0xxXg8RVqlPAVJ097H03DGHpVsyowrfDc+4f2eP+COej/AO3+3eJtBvPGF+Ilkm+1Tm2hSYjdsiI5YhcZPQZFeU/ttfs1fC6z0F9Q8J2GveGvFMP7yXS7oHyVxkko5GPcHJ+lfoVqv7ffwz+LKeHbG6121sNW0+1kW4RzthkL4KsjfdLcY65r5f/wCCg/7SvgG8/Z31Dw3JqEd1qkxaaG4WPPl/MdoDYz7cetfzt9Zr+29pKT5j+nfq9D2bpRScT89Ph/FqfjuSFdNsbjUNSeUw+VbxF2d88YAyeRjp71+vP/BLj/gnNN8GoZvEniRdvi3XLTy7+QkCLw/aNh2jPpKcDPPHI614f/wQa/Yz1yTw/N49uLFvt2vyH+xlkXc8EAysk2CPlLMMKe4z619df8FPvj5a/DTwDpnwV8D6w1t4s8RKJPENxayfvLG1x87SOPu5Jx+Ne/nHFmKqYRYVfPufLZTwXhcPjJYzfW6XYxf2y/26ND0jwpefCr4S6nDNbrZtL4k8SqyzQaZEMqQGBwZjg4X1r4BjjvfG1vZeEvDa3Fr4Zs5xmG4YLNfMSD5znGSWPJHAFdp8QPA4srLT9H8O2Mdr4ZngEoisp0mn1KU4UyThSSScjhunPFfZ/wCw/wDsb/Z/D1vrWu6dbQyRsJJLlwAtnGB3zxux6Z5r4uMY25mfdX6oxP2Of2IJNL8M2txrUkOnW9nmTzJ22JCCcnex9T0Fd58Wv2gLXR5z4N+GUK67qEaGO9vEXfaQsOCxZTwo+oqD4++Pv+F965deHPDupDRfh/4aBbU9SmkFrbqAOXMvGc/418oa58TJP21vjbb/AAZ+CE0mn/DzQxGPH/i7Tn8hruJD80UM33mMjDaSo5zyetYzqup7qH7Pqzen+Jegnxmul+BLC4+MHxWQulwmmS7dJtZOpa4uG/dqqYIwrZPI610p/wCCarftI+LI/Fn7RHiCTxhrNugFhoejbrHStHHBVR1aUjGCScHFfT/w3+E3hn4J+DLfw74O0O30bTbdPLKWipG0xH8TleWY8kk9STWtdImm+Uw3qWURmOQElz2AI4/P8aIU0tROTasYfhrwdY+FfDtnouiWtjp+m2Ee2G2jTYsY+ueSffpzRqc0lkkkknmNCMyOR1ZTtB+Xr8xAUAd6n1DxHBZ4a48tTlnRQyoxjQZkwc/Nn5PX7prjrj4nwavd6YsbTyQ6leyfuIIi17ZqiDDyRgYKKTuJAI2k9605rEo0pfE81o1w0jQi30lXmYg7f9JbICkn03AfWjTPEn9oSahbW3m+dZ6TC43Rkvg/MxCfeYZPUDiuYa8PiT9nDXNRuNN1q51WfUSun6ha4ktL9y4KB4M7o4w3JcopKrwTkZl8KeLIfB3xo0/V74+H9MjvtAgtdSu7y7T+y9Wu/JAaDT5Wb5RkZxlckt1xU8zYWRpW/je3e38MXU00dvp2vQNphuZGxCs+RtVm7NyPl68+1VdF8WahdJrmm3VqsnibwXC0z6W0yJJdWKkK4yWwqgchmIJGeOK89tdA8T6v8NLnTbeG303xHpOspqC+HJp4RfeFNO3shu7TnkvGDkkthsHirEP7Q+g+NfifD4us/E2lw/D3RdPks/EGu6fbeVcX9991YNQVlBliO4htqnJbI6EirhZHc3fiDQdL1jw7eXF/a2/h/VlMug+IxMgW2lJObRlJJkHmfISqH5WBz3rrdP8AEsPh2G4t54WtdS0WXbqmmIgmuLKKR1T7VsB+e0fDMeQVHINeE2XxAXwr8JJNB17UtDm+KGrz3MvhfQrkJJp8cQP7qXTZMfuhtA4LDLL0NTnxxp9/48jOoeONWsdB0HRja+N9dzEdSju1AKWmortIkgCuybkUk5AzxwBynvYvNH1FmaDUobq3mgkWGa2lDWs9kX/exxycKAHwWQnzVxxnpVm7+I9vaxaXNbSQrpttIJLaVUd7M8HBhPLXDYyflwR1x6fLV18VtL0rwxeXVrq0LaPBqCy/DvR7do/7N1y5CbvtELHnfvL743YA8ALkir1r4on0u/086N408K6t8QvE88MPiCC4kkS38O/KT5rQ4DWkuAcMFVQetGrKSPpjTtX0m61hrNrW8mVj9qMEaFppmJOJZT0RG7YOMVjfEv4S+GfifpN7a60dP1nS5XS91OFuYmZFYQwxkYORvP51554M8UT61a3bLJcNpvh/dZ6/qOnanDv1dtqkTxBn3uCN2QBhicgGksPG1xamO+g8zy7xA+k2ssLRmOMMMySBgBwpXOOQxx04qSZXPnXTv2HfiN+xxLfa/wDB29XUbLUre41LV/B/iAN+/iUhUitpOMO3ON3U4rX+EX7XOi6r8QovC2orffD3x5Co+0eGdcPl+Y+AcRTfccHtzX0VqHj6XW728WbUpby4kiCzzSZ2gkcLk8HAHQdK5n4o/B3wr8a9Ij0PWNLt7yxuYSty0cYW8tioJDxyj5124BGDnIqZQTHzNHbeAvj1p2r3z2N9J/Zt8vEkFz8jD6Z657etdB408JQ69pcwVPMimTDDrx618Qp4huPgB4muPCvxSvPL8M3jKngrxdLmaSWPAPkXUi5YOOQC4HC8GvpD4FfGC40O6h8O+ILr52AktbxmBgnhI+Xa/Ri3BA9M1nGbi+V7FvXY8C/aX/ZOuNKM+raHDNN5jtLLB15BySP8Ki+DH7REcHhltC8VQ3cmnNISk6j95ZcAKnTqCBx719uaxo1tqulM0flzJICGPXA718mftI/AptLlkvNPtm8v5mkKj5evVT1Bx/KtJ2auwjNI4P8AbX/ZDm/ak0OPWNFaG48baXaLHayKRs8QWoxhV7eco7dTjpX54ahot/8ADzxbPp2p2Vxp+p6XKUlguIyro6nkEV+l/wCy74/tZ5p/BuragbEswfTrqZtv2Wc/wo33uTnIPFec/wDBTT9l288Z+DD4ysbOGTxJ4X/d648I+a8ts4juMD73HBI7YzX6BwdxTOlUjgcV8L0TPz3jDheFak8Zh9JLWx8+fsl/tI6p+yJ8d/Dvj/w/5Vx/Zs+545PuyRtw8bf3dykgHtX9Ff7H37bngf8AbP8Ahha+IvCOq200zIovtPeQC606UjmOROoIOcHoe1fy0aNqn2YNu+ZZiPNQ4w4/xruvA/xP8RfDjVUuvCOv6lphjlWTdaXjW9wpXoMgjIFe3xJwvOpL2+HPD4X4qhCP1bE7o/q8E5wc8VHcXoiiLMwVV5LdhX89Pg7/AILkftF+CNJhtF8TTagsCbS19YxyyMPXdtye3Wue+Mn/AAVy/aA+OXhy40/UfF2oWNrMhWWO3RbNWU8YJQAkEdq+KWRYxy5OVn3FTiDBxhzOX4n6i/8ABUP/AIKr+Cfg98O9c8G+HdUh1XxJdJ9luHt3Dx22R8y7geW7EDpmvws8ZeMrvxh4wv8AU7r/AI/L+UyyY5UE9sVQ1TxNNLeNdPM15fn70rksMnvzx+NUbCZrqTazbsc7sdcnJ/Wv1bg/hdYOX1itq2rH47xlxP8A2jH2dP4Ufa3/AAR/8TT+Hf2zvh+scfmf2is9kwI+4pVj/Sv6DbNfLgXnHAr+ej/gldOtv+2b8K5BtUJcyqzL3yjV/QzaANAnX7ozXx/iF/vsH5fqfWeFj/2Gqv7xPRRRXwJ+pBRRRQAUUUUAFFFFABRRRQAUUUUAFNP3qcelRj72KTA8x/bMX/jF7x0f+oRPyOv3TX4N+PUx+1J4gjkb5vPuCvH3sJmv3k/bHby/2YPHh7Lo9wcf8BNfgp8V1YftS603mfN583brlK+/4Gs6k7n5P4lq8IejPA/Ftru1CRlXG5iVxWF9qe0kVl3ZzwwbkVueMHYai0YBU5IAxWDEY7m98prq3V14KGTBr9yqVKVKneq0l5n4Xl+HrVVaCu/I0B4lkki2yxQTqB0mQN+PSnQ6sscI8mzsoW6llhGW/Oq+paOdIby53SFuCFZtpIPI/OmrZvaBGbK+Z90dQR6g1y044CtL93yyPQqRx+GheXNFfMm1K+ur2JhNK0kfXHQD8KzXhBVcZI9+auMBJPt+YDGSPWnMirtYrgdgK7FCMbJKx5rrybvJ3ZTnsxGy7gPxFNs9NuNM1+PWtJ1S80HW4Y9i31q21pF6YbGM/WrV0mGI4b3pIYnuGUKDJ/CqAdTXHmGCw+IpOFdaHpZTmmJwlZVcK2pHv/7P3xz+M/xQ0tfAPgvW1vPGHiCJbcagYVLiNCGJG4YVgoPOP1r1Jf8AghH8djeTalefY9a16+Uma/v9QMkmD12nGeeeSa9J/wCCCnw/j8JfH/Xm1rTJotW1DRA+l3L2zr5K+YN6liMK5UA47ivff2q/+Ck3xi+B3xgm0jS/hBd3Gh2sjRJdypLN/aagnBUoMAcA85PNfj+Kp0sNmLpZdCN49Wft2FxFfFZWp5rUl776LZeZ8D/HP/gj18Xv2fPhXq/jPxBa6Ouj6IgkuRBdFpNpPYYAr5dIXI29DX6Ffthf8FXvih8cP2dvEHhPUvhhJ4e0jWIhbXeoSRz4hTd23Lgfj61+ezbnB+XCrjpzjmv0rhzFYyrSk8Za/Sx+T8TYXB0q8Y4G/LbW66kU6fJ8ufpVc/InzfxGrEkMhGduxsnhjjP0qrdRSCDcx+nHWve+sRb5E7s8OOFqJXknYjuXYEsvK5pJ7eHUbOS3uEWS3lXDof4//r+9RSSfKPl3A+/eiUgv+HbtU1IxmnFrfobU+am1KDtJbMq2XhLVNI3ro/iCS1hmIbyrvMm0jptbqK+hP+CfH7B837V/x8tb7xjqNxrHhvQR9p1ONQdt4oxtg3H++xUHHIBNeP8AgfwpfeN/FGn6Lp1u9zqGqXEdpaxLy0kjsFUAfU1+9n7BX7K+m/sz/A7TxqAt7Xw/4Zha+1S4423l4ozJISSSQDlfTC1+U8Z4XA4GK5EueR+wcDZlmePk1Ul7kOvcu/tBfG/R/wDgnH+zlbT2Gl2sevapEIrO1gULHbR8BUUDkKMqOK/MjxJrN5428balb6okLeNPGDreavdhmLRhiGWANnO1dwz6kDiu2/aW/auu/wBpX43638SZLdrjQ7WVrDwzZz7ihij+R5/L6YDdDgZJ9q3/ANgD4Aaj8dviGupXGl+bcT3guHu5Tnzk5zgg9MkMcdMYr8h1nLnkfscVZeZ7X+xd+x1pepa7uS3tUtrP99JdPbqp2qMs2fw/WvafidrN98UG/sPRr640Pwbp0Dy3Riwu+FMsZHJ7kKcAV6LfadpnhDQZfDnh9iY5mCaheKceYw6xAngIMEsewr5p8V+CvGP7d0U2ieEPEFn4d+BMN0+m61ewyNBq3iuaJsSLavjCW+4bA2TkbsD1mbb91Dj3Z8k6xpfiL/gsp4l1Lwn4L1K8+H/7NXgbUP7N1I2reVqXiO86mTphlzgckgY6Gvtb9n/9mDwh+yV8KbHwn4F0yHTdG03AuWUf6ReTY5llbJLM2MnHHoBXongH4HeHvhH4Hs/DvhTQbKz0nSIhFFZwOsb4HGcFF3sTyWzkk5px8Ow3iXEkkdxD9nR2dEIWe22jJJTPzcDqBz60JKK0JdRt2MS5eLS9IudTuMx2tupkmmjJyijknA5zgdhXIeNvjRH4SfT9y31wuuHyNKniVfImZsEtIxBKbMqOcYBrYa51NovDcOpLpVnqGtSSXem3lpM88UscYJC3KDI28ruOAF5615p4humvfh7o9u0HiHUl16/nkm8OWS+TDrk5K/vYJQcw2IJKM7Bdxwcmpk2OKN7x/od9quv+KtHkt/D9jqkekRTC0vJDdRx28ZH2i9tpP4FHmZ2nlw3PSuO0b4raLqvw88E+NtL8Q+KNe8L+H9SfTEnht1t9ZvbwMGEZbC+ZbJy208MNwORXS3nw+t213WoZNM0u10lLRD4jvpbl5LjT0TmHSrUADzFVRscDg7l7kmpdH17Wtc8JxeKVk8N6BHak2XhHSLa33LaSyERmS5XgDnDM237hxkkmjzLMOTwXPpvxJ1DwBY2msXfjLxZB5uq+M7edbeO2t5MSG1aLBQAJgDABUY9Kit/heV8G/wDCVReBdNurPws7aN4e8OXlws1lrHJb7WkRX927Y35U8D6kV1Nx4Y1yyvrPwvpvjCys/EeuFdS8UX9zEE069t2OJo4WJw0h6E5yFBAJxinaneWWn213r9x4i1jUPB3g/Fl4f0rSbQLrVrcROYpJcceXE24HI4EYUdTimKxymg/CbxdcW2liLTbWHWviU7XHiB31GRrzwzb4MX7ifaHVHbauw8BVJ6nNdH4P+GPiX4weN4rVdJ8J6f4N8It52latA5gGtXcWY/8ASEGEkB3qBuBBLk4yBRqGmax5Edxd/Ei3t/G3i5yz6pDbbtMawidZfsM8mABK0MhVdw4CueCc1q6f4Y8LaxqknhWy1bVrPwDocLi80S8tGWXVJSN0TaeAeVDR5XvnB5xQScfrnhjx18P9D0yy/wCEd8J3HxI8XSFBoTO0ltpUML7S8MhBaLYoYoFx8y55qv4g+EWpaHPf/a9c02HwH8M7VrrWfE0dy0mqQ6mh8xrK4+XF1CEkTAk3fMx64xXofg7QtNi8E614v1Xxf4mvPEniRGtdP1S0sQ9z4XtphthWcH5m8vec+4NeRz+A/B3jfU9N8Nf8J7/Zfh6xntpfFeqtaRjSPiHfSN5LJwdqTJsGScEu4PaiLTGRQfDz4heKNL/4So6R4DbUvFSrH4N0OWXbpPiaFkaYXBj2YtblY1aQtHty4UVjXXwZ1vTNG1Lwv4dh0fxH4qSKJvHFzcLEmveGEuV81VW48sC9jIz5iuW+VSOtelS/CHwrbfFK5mnvvFa6bpFlLpug+BLoQG4hlTH+n2dwXwyGFi7KjZ2jbgniuf0X4L6Hf/DDWtPs/idrmveKNPuTDd+MLGxhhvvDSuWOb1ch5tyjyzlTtBbpTDQ5Z/DS6vomi61deD/h/B8P4CLXw+nkt9m12dTgSRLEUNlcOQeTlANvvWvd+GPE+j6JeyXHgrW9B8QXhEstrpOu+b/YsBBWNxGW8l426bkQnPLAmrHjv4T+C9L0bwO1r4uvPCPgG9aOK7sbi0hm0zxurhd80SKT5Mr4Kr6DniqGreDk0S71rUNL1rxxpuqWNpL/AGHosYjk1Hw/aBlh325EgW6tgBkRMTlgSM0Bocjq/wASF0rxkPBd1azaTqljMiTxfZI5LUb0Miy/aIlQFMK2/cCc4FegeHfE95BcX9vJCZoWYQC9SVflbIBXI7nkk4A5rltV8MXHhKyksV8bX2pxagz6dqly+mtFpduHh3lJ7YFjayFWLGTDRnYMkEmqWiSW+o3l3oVj9ik/4RVmTWZR/oc17aCLcZNirsaY5B6ldncUluJq57ro2j2HxWhhsbjTNPvbPV3VDb3sCTxmJYyM7WBXPcEYIr53+IfwWk/ZYlvLG/nvNU+DtzfLHZXtzctJfeFL2aRlTbxlrViMYzlcjtXuXw4vLrSrN9YhhLRiWO30m08tA05PSRdrEFWUMVx0VcV9PeE/gXo/xZ8KahZ+LNKs9Ys7mzlsbyybEsVw0rhxvX+Fl6j04IxVuCkhXsz41+EPxZ8QfCLxZY+GvFFxFeWGpfNaXSHgq2ADz2r3nxR4Kt9Z02aNlV0f5cN059PavGv2gf2FPEXwFsF03VtauPEHgdp9nh/Vp3JuvD8mRstrh8f6p/lAfsR71ufs8fHb7eP+EW8SO0OsadmA7jkHAyOejHHWueEnGXLLY0dO+qPmn9oz4Rr8KviDb3lpAXe8mxEgJ2gk5yPQ+9eofBL4nJ8QPDv9m6sq3GqW8MwjEqKV1CzUbZrdwOuAW6ivYvjp8KLfxvpqllbzIuYZFGT1BwPf0r4/iupvgZ8S2kO4atDOz2LSfIApPzB8ckMueB/F1rSpFxfNEz+z72p80f8ABQf9kAfs3+K7DV9JjjHhfxQ8kunsn3oc4Plt9M4/CvnCOZ4Fyzc9q/Yr4wfDHRf2wv2cbnTbeWOSx1iM3OmlvmbSr0AsB6gM24Ee9fkX4s8OXfgzxJqGj6hC0V9ps728yOPmVlODX7XwXnzxmGdKb9+J+G8cZH9SrqvSj7ku3QrprV1G2FuJlGMcHjFLcapPcDLTO27jJJqCNMJ/Fx71PBGrL1r72nGD1sfn9So9x8MUkvzM30rSsLPyG9OKr7flX+lWLR97gZz2z612R8jzq0nLY+uP+Cbt95X7WfwpVtqqLt1Gwdyrda/on03/AI84j1+Qfyr+cj/gmwN37YHwxXcy7rzqfu/dav6NtPXdZxdhtHFfi3iBH/a4Py/U/Z/CmV8HVv8AzfoWqKKK+AP1YKKKKACiiigAo3YNBrN1NWk1K3Xd8mGYr6kdKANB5lUfeUfjUInXLfvK+Nf22vF+oeGfilcR2utapp8IiQiKCVgmSOeBXiN38V/EAVXj8T6oTJ1Vrl8fzqHOzsVGNz9PI51J++D+NO89P7y/nX5Yy/FjxISqnxNrEfPQXj8/rULfFPxAbh2bxRrnTgC9k5/WjmYnoz9VDcRj+Nfzponjz99fzr8povih4guy2fEmudc4N5Jz+tWpPit4iWNHj8RawvlfcP2tzvPvzScmOMbn6Aftjn7T+y748QfebR7gAKck/Ia/B34wwxn9p3WAG5W4kA/74FfaPiP4ka74n0m8s7jXNYvvtcTwtbtPJ5b8dMZxivjD45N5P7VWtKiBh57nPb7ma/QOBZfvmu5+V+JStSg/Jnz/AOKdF1jxV4nt9L0WzuNQ1i8cx20US73Y5xhQOSeRxX3T+yn/AMElrf4GfCyHxJ8V9NuP7f8AEgDR2EUfmS2cLc7n4OJCcDHYHFeK/sJ6aL39t/4YyKzRzR6wwDIMrg4Izjv04Pav2P8A2nIbqLxRby3AEkjoyIQcbAGB6etdvHma11ivq0XZWRl4ZZPhv7OjjJK8m2fnr8ZP2W/h/rvhjUNDj0/VtFe6xNZXtxECRKgwobgEJk4wK+DfGPw31z4d6vfeHfEENvC2l3WILofM0qPkoQO6HGQ36V+n/wC0d4Qm8ZxGGJUiubueCBHaby1b51OzJOMnGK+Kf+CvkOofD79oXwVo8m6zE2mxI1vnaXYMc5745wK+Y4dzOvhcaoKW59jxPlVDF5fJzjr0PmdJvOmkG1Qynb9RSz5jH3ar2uZbuQsoUBz36VcuuZxyxUDvX9JUZ89NSfY/lfEQ9nVcH0K8hJJ3DGRXf/sp/FXSPgn8ddA8Ta7pp1bSdNmLXFsEDl8ggHB4OOtcHcrvNNVejdCBWWMoqtTdLurGuExLo1I1Y9Hc/bCy/wCC3vwGaJWtYNajlbA2RaeEZc49+2K6fR/+CxfwR1udIV1LVpLljn7OdKkkdT/ugZr4N/4IXfs56L8aP2kdU1jxBZ2+oWXhbT/tMdtNGJI2mdgEYg9cdfrX6R/BrwN4H8d/tP8AjLx9oWh6fG+k20ehfa0thGn2lGdpWUYxkgqCfQ1+FZ7hMDgsTOhBScl1v17H9DcM5hmWPwka03FKWyt0R87/APBQX/gpr8I/iR+yb438I6XNqX/CQaxZeVawXOlPDuLdD8wGB7+1fjts1rWtd0/w34Z0+TUvE2tLstoI8nagYZY+5I4r93v+CoHwc8G/H79h3xZ4th0vS9X1bRLCSbStRiADwgMd21x94cHjNflh/wAEodOj0v8A4KR+HbzWLGOG31LQJYdHuLpwsc9wobO0ngkdPrXrZbmiw2T1Z4VNSvZ9eh5mLyWWK4hpUcU042b0VjG0f/gjb4q1zwtbanrmo6wdWYiS8tYIPNa2Lds7hkr1I7YFeaftAfsq+JP2R7ODUry6h8ReErxzbGeFWjltWJ43owyrZyO/ev2C+PH7Ungv4KT3n9pX0NvqljOol08t/rWbPKAfeJPJxnrXzv8AtQeHtU/aL/YK+KPjzxvpdxoOl6XpYHhq0cYa6MjD53yM7sqMEgda+Lo8QYyGIjUhLW+p+gYjIcHVounKCtY/L6O+8y62rhlwGVh0YHkGrVurSliPasTQdPaLQdNZt3mNapuX064/TFdToumNqEkdvGjvPcSLHGoGSzEgYFfvmCxk5UFVn2P5rzLCxo4uVCn3sj7G/wCCNf7O918Sfju/jBYY2h8MKLWyQj/W304KR/TYNz57ba/QT/grD+09Y/Cv4QWfwK8Os03izxRbR2n7k7VtVbJaSQj+Hg8dea3f+CX37N8f7K3wEh/taGG1k8P2Eur30kiBcXMoON5/2Y1GM9Nxr87Pi18YG+M3jT4g/E+7mRtf1bVpdE0vLYNraAgNIuf4ioYA+9fgvFmayxeNlJbLQ/oTg3KI4LL4xe71Yt98NP8AhYfxP0XQ7GTzPsNmkf2e3TbH5QRcu3ZdzZbB65HrX6nfsk/BiP4DfAOCTKRXWo2nl2pVNjW8OBmQjqD/AFNfKn/BKn4Aw/ETx9d6pmaS1tUEJmMe0sF+9lv97A/Cvun4/wDjuw+HHgzUtZu5bW30vRbSS8umlYLGttCpKLk8AM4H14r5nRQ0Prbty1PB/wBszWtRfw9ovw68LQGLxp8UR/Y1pFCx8yxsG/4/L5sfdZIiTk9Tgd69y+GPw6tfgv8ADrQfBeh28Men+GdPjsLRFVWmaNFxvYZBLnBY8dTXwr/wSPl8dftRfGr4kfHbx9Y3tvJqpOieEJLyF7ZY7HeZHaENgbZBsG/HO3rX3wl01taKXs/Lkkb5o3YNNbsOu1xyQ3txUU1bUUtXoUfHGp2Fh4ZfU9Yn8uz0cNO2owpn7Oy84kXqOOO+a8G+L2vtquo/2xLOrX0emF9C1GNCtvqkl6VjFuUJyszRHamTx8zHivX/AB6LrxLefYbGe1tNSunto4LuVt1rchpGMiSLnEjKihuvUqMdj4rr0Y8WXPi46hDNZWa6xDZ6/bORa/2XY28bgahGGHyNM0aqpA4Rsr61UilFGFot9pfgb41+M9TfdHY3GnQWPii0v/mg0NTBtFjpoONzS4O5lyMpnmsLR5fsy310viJZ/FniK0a10izhlaSLw3Yt8sSkKCdzKEbjarEE5Favj691Dxrex654g0Nf+EY0UoPBNpIvlLcOBgF0PMjhRu3twAGGPmFdKviPWPB+t3WmaHpqaX438URPqdyy2JmLFsLHAW+6m9QCW4CDaDS8hrQ42X4f+Bmk8K6fceILuXw/4TuJLvUdXlkVk1q8ZxD5UrdAwwVG7qSTwACdi2sdAj+L+teLV8MT6XrFnpMlloPhAhVS8iiHmNcofuscylio5JVMZo0+0uPF2kaxcQ+E7I+FfBdxM91plra4i1O6WJdsiD/roHAAyFC7uhroPHnjVtY8e6Hren2819b+KkistJUWmLjwySkkc0sfy52htnBHzMeORUpDOZ1Hwv4X8V/AaHwLpv2jV7Oa9aLxBrCso1DQIUYzOuzqF3gBznGWb6VtS+Ivhr4T+OHhfxFes9hIlj/Y/h0zTKlj4njeBZjI7EAK5cfNu7hO/FWPCt1r0Wv+IPh9DpK6JcadYQ383iqK3RU1qVDG0sUgK/MrYZWYHDMCOprhfGPxL8eN8Fbfx3pfw9bUtcs530e38H3UAVbONLvIu4Qy5XMTDfwfmKgnIxVAU4tK8Pajp/jrw1P4f1P/AISbx00V94v0I3AE2gWr7opbi0JXDqoC46EIc9K67VvHvw31j4YeDdUjtbrUvh54LktJ7DXYVb7SmoKREkEkezcIyJBgjPOewrpNS/4SrXvijFodneXkOl+JrK51PUfFAdI7zwsMRSxWc7EZMTHfhTghB6VwvhPXfix42uvGFx4o8Lw+GV8HXd0PCUMeoxW9j408yNliRoz8pd8Aq3bnFAHYWXxWtPA/xMuVuvDtnb/F3xnYu2nW0m5tFmUb0hKy7cfvFAGDgkntmuY01fCK/Cbxd4NsPh3bXHg3Q7i4vPFejraF9Q0+/MccqS23y7ZEUh1ymSWx6E0zW/EXxe0fQfDGraX4fXXr7XrhLvxPpdxqMZvPCsRYI5gOfNVZVVtoU4THeu50rwrrknjeLQLrXG03wPpthBPZeKUv0eeyuYZXD2s7ZxJtVxGA4JJJPNAtDnfAHxE8P+LNE8G+PtQ8LNb+GPDUsNj4QuZNPk+0WEpUwul2m3cp3/MTgKAq8k8Vv6ZqlroHxlvrHS/Cmj6N8TPGFk8mtRvZtLp2ohWRniVwAu+VNzcscc56VW8UX3xE1nTvEkmlpa6dr+kz/ZfDUTXaG38UwOAWkZMgblG6TK4JZgO2Kng0O60HSbGz8OatZ6pd308T+KvDd1qP77RI7lGErLJuEmQz5JYtwD0oCyIBZWvxC+Fd5pEXw90/VPBvhe6u47vRp7Jo9Q0adZWbzbbKnzDtPyKi/dAOeas6vrUF18Q/Cfi6fw/pslpcLFZ+E9XSydpLGZ4nia2mQDOxSARkqC+a0NK8MWHjK7vtP1TXP+KJ8NW0VxofiuG+zdSTICsi4yQWDLwQB8uMetN16XXrXwlNrTahb23ibTbma30ezgv/ANz4igVkkVmYseVUtjnILHvT6AcTreka5Bq+t6Nqvgnw0vxM8TadmSB7Nm0zXrWOUF0kZcrHKU6ks2F25HOK8z8QpNPpHh5tF0u0sPDPhG4a01aMQyW+qaNhWRzMSmJ42VtoVcEq4Pavetf0y6tfiPocGn3luy+JWX/hJ9K+3Zi0yF0ZRNH83znI+bGTnbnjArjfGOo6p8XNW8QaFqmq2cPw78OwpqVv4jhmC309zEVIYhGDxybvkYN2B4GaizTGYPgzWLDQ9Oa41yxOm+HPCl7LaqtpOrm5s5H329xDj70YcFV7gMRgV9PfBTxfMdVtZDMsct4LnWb2Md4m8tIOPUghvbNfLfg3VLDT/ib4e8UeK02NrlkdNeztLr7RHepEhA1C2jGWJfKKVTggE4r0n4FeIrjw9daXpNzqSzXtxdTpeCRgrR2kDia1yOse6NipzxkkYzxVRkTKNz6/+Ifw7034qfDu+0HWrKHUrW+iKPHMm5A/VWwf7rYI+lfmH8S/gT4m8O+PIZ7prYeKfDLiG/jizHDOE5WZS2PlZMZJPr1r9KvhRrCvpjTPPubUnN3tf5Wj34AAHcdee9eBf8FJfhFcXHhuH4laHBNeax4VVYr23e8aO3msWf8AeM6khSVQueRnt2rOvC65kVTqWlys4rwF4yj+JHguO4XbHcRrtlUfNhgO3t7180ft4fDqbT9GXxBZwhpbVg7NtG9MYzj+f416H8EdVt/hv4+k0eOYS2OpDzoxnKKjAMhB755GfavTPjT4Rt/Gngu7t5FVobu3ZDgbt3HAH155FOjU5oWZEuZM+Nv2LfidcaX8TZtDvpmtdJ8U27NbI5wsF2mGVfQFvmxXgX/BWb4GN4L+LuneMrWJha+KgVvdqfLHcLwT+PWr/i3wxe+AfEOqQJNdw30czyaam4MYHjbcjAdQeAOfU19peOPBWi/tkfspW7alGGfxBoS6hZurDMF8IyroPTLZOOK9nIMyngsfGstnozxOIMtjjcFOj16H41bsyLu6dBxU+SF/hWn6zDLpl3JbSQx28lizQOmzHKkjn1PvUNoBJFu3fMT0Ir+iMPW54JrZq5/NWKoOnJxfTQtQyY+XuPWrtocKtUIuQ3c7vSr9iquwX+Xeu6nKyPNqn1X/AME37bP7Yfwr/eCRXvtxHYYVjX9HGl8WMfGPkFfzj/8ABPDy3/bK+GJlO1BeDbsOD9w8fgea/o10ts2EW3kbBj9K/HfED/eafo/zP2Twr0wtZf3v0LdFFFfn5+rhRRRQAUUUUAFQXVpHdH513bR69KnoxzQBy+pfCXw3rs7TX2i2F7Ow+aSeISOfxPNVW+Angt2y3hfRSccE2if4V2WKMUAcSf2ffBP/AEKmh/8AgIn+FO/4UD4KJz/wiuh5H/Ton+FdntFLjFAHFj9n3wST/wAirof/AICJ/hQf2f8AwSMf8Urof/gIn+FdpjFNPJNT1A8R/aY+EHhTw58AfGGoWHh/R7W6tdMmkjmitVVo2C9QRzmvw9+O58v9rPVc7Yw0rc85+4O1fvR+1Uqr+zf44JAI/si54/4Aa/Bf9oKLyP2rdTk+8/md/wDrkK+84G/3h2/rY/L/ABMV8PBM8Z0/xF4i8IfEOz1XwvqVxputafK8lu8IAbPsT0PHWv0v/ZO/4KDWf7SHwgXTPi9cXVvr/hkeUuq2asfta7ekwX+LA6jgkV+Y17dm019pTI0bK7qWX73Oa1PD/wAW9Y8LWU0Og+ZDCZBJJuXzHmYf3vXvxX33FXCv9oNVINJ23Pz3gTjJ5bSdConKN9Ej9DPF37cfwN+EGmyXGvahqHiOfS2/tGy0iS1kjknkTmNcsMHkj5s1+dv7Unxn8Uftj/HyT4peNimntM6jSdMgUhbW2QkxqRk5BB69zmrnxP8AGetfFHWrO/1rQ7VrjT4ljjkWz2qeBjdjg9BXI6zrcmtTPJdNukJ4AG1Ux2UdgPSvP4d4Dp4ar7WvJSfqe9xP4kVK+H9jhYOKfVozyGubua4ZUDzMSwUYAJ9KnvpWmjRNsY2jg461HA20M3ZsnnvSs6y7TnCkZ+lfqMaajFRR+NTlKU+Zle6jaNNxK88cVHCvyjcV54qSQh1K5zjpium+DOmaDqfxD0WHxNuOhz3Srd7SV+X6jkfhWWJrKhSlVavZHXhaPtqkaS05nY+gP+CRv7Z+k/skftBXUniK68vwv4hsms72VBve3fcGjcjPQEEH61+kXx0/4KQfBX9nD4PX0nhHXPD+qahraNPaafp7FhPLJgO8uPu/L6+leLar8MP2LfDv7RHg+xs5PDLafNpl22oMt7JNZlsJ5fmPuwG3B8AGvR5vA/7D9q4Zm+HCleF23sh/rX4bnVehjcVHEKlNc26to2f0Dw7QxGAwbw0qsHba72ucH/wUP/4KS/CfwV+yNdfDHwDqUGral4l0lba1XTCDBp6Hr5jdjyeACa/IfV01Ge40vUdM1a60zWNFfzLK4V22pnqvfGfbvX6rftzaX+x7YfsteLf+EJbwSvjFbX/iV/YZpDP53bHP0r8rC3GGJHfHvX13CWV4avgamHqU5K71vp9x8Vxbm2Lw2Z0sVTqp2WnK72XZnq+h/txeKfD2mWP/AAlnw7t/F1xbjMV6l02J8HAaTkgEE9gM1H+0N+2B8Sf2i/h3pfh/XtRsfDfgmN/NbQtN3LMxT7izMSS47gcAV5gNcuYLMQrdMsKnITccDvWVNdvdTFpJCzZ+8xyTVUuA8HSr+1evkbVfErH1MO6SSTta5DduZLnOFTgKqgcIo4A/AV9Jf8EufgpH8Zf2tvD8d5a/atN0MNqt0pYAYiwVznrl9tfOCpvdfl3Nn8zX6V/8G/8A8Dl8S+LvEniaZZifMg0iA4KxupPmy8+wRR+NerxNioYTLpuGmlkeHwrhnjs2pqeut2fff7VHjFfgZ+z2sF1tk/tiK5udUSVtuLdYSu4+oX5eK/E74GabN8Yt3k6gqm2uWmFq0TKUYtuXD8jOCDjAr9LP+CyXxgvr79onR/B1hZXNxoOn+GrtNbmjGY40uFMYB7A8AjPpXyj+wn8IovFmt6Lp9jY28Nr9s2loz+8lTOQznqeeOfav5wlJyqNyP6ch7sbI/UH9ib4ZQ/Cb9nPTW3LHea8TLNMvyYUEljnPdiK5H9piLT/jp8TvCvwhuvtF9bawG8QeJLSKXy9+lwHZDC24ENHLMUVlGCRkjpXv9x4OXStE07Q4XjtrPTrVIpCRwuBubH1OK8K/Z7m0v4u/Fnx58QGsmh1FdR/4RmwlkLoTZ2hyFVgcLukYn3K1L+IrZXPcLGOw0HQbfT7OGHTbO0jSCO3VdkEEY6RGMjhSBgEVieMdUitotkEczLBhZJ0CrHpwHJ86Q8qm09F+bHetDUNY+3QOLhlubhQQrKgZpQPujA4LA9vfnivNfFvi19S1eXTre21LXJNvmXeh2a7bW6VshjLc4+eUAH5AcEgLVCjqYuueLrO/8aWum3Dtqn2bVWmvNNtl8m208QpGVvoSesCEncCDukbrha5DWr6LVUfUo9UkvvDtxrn+jalOYxN4tuw8oW0lB+UQox2JuUAeXn0rZs5r4vpN5u0bQbSGVrWbUggnY2rSqE0aUEs/nkkmQkZBA9wDULCzs7mO/uvDf2Wxs7tl03wqIizs4lO67iG4BsswbAAxnbwxNSaxMLxNbR+HPFXnahqjL4y8QKkWj6RcsTZ2bkAHBA2heRtCfe4LdDV+ybVvEOpt4a0VpXm81brxOLmSUSQ/aFyy28pwzQja2SCSTjHAqv8AYI73xfeQq0fibx7Lsla3bbHdeHVk+XzQrbkDxq+VQYAAO7OM0+6WOPSrJG1e6s9F0m0X/isra6j3X81q7osU6Y+ZeWIVSSw55osMpT6pp/hz4f3Fzp2oaha+H/C0vkaJLFDL9vgvY2Eb/aV6GLMg3eqbQOc1a8N+Ata+G1lY3+s+KVuPiVfFoILuSzZdNmgjK3JidRhVcpuweB3xnBrbtdQ+0eMZNUfTbdPtkFxDo2mC4VrLxW7KJmlxtz5m4KGyMbgoGMGsPxPY3HxC8Oal4bvIdU/t7Xp4rnxBps+oD7ZoFpIpgeS3kVQgbYq5wQVQ+pzQIztMg/4Wh4tuNB0XWj/whliZjq+lT2Dtc3rSFmZoZC2EiLOPLTOchSc81THiSx0Xwpb+K9S8Rat5f2rydCv47GSS48OwSI1uYrxQ26RQ8GCecyZOcAAa3i/V9C8MfD/R0t9A1iPwdp0dvdweKtDuZJJ7i4jZYlt5kx5kmWAAGG7HnFNtWudPvNUW38MWNr4+8XQf8SvR9Slnm0i7s4pCUZQo2rIVd3+cqxdmbpxQBXstDt/CV/o9ndeKjNLNapNr+sy2MX2DxdHCXtnt2BbbHMN6BmIBJ2qMc1k6RHofxi1vU76//wCEgt/Dfhq2On2/gq9ijW4tri2zIbi2n3A7wmd20n5AQM7qp6poOg33gTVvBVt4T1DUPD+g3r6l4ptJb+7bUtGkk2XIa1l6TRiZGDIhbLYHQZroPF/jnRbjTdB8eXnh0y+EdFnWTS9W04XKzRySYRkvIAC8mVIaRyMYUjJ3YoEYtv4Z0bS/CFnfalq/izXtTWWW2TxvaRRx3eiC5VWhjuoP45P3g270+QFfSuu0y28OXfjjQY4tUulh1m0SW8zHGum+MmkTYPK5xDL5iHABHJZiO9P8Ka9Z/DfxHr3he68ItZ/ET4gL9vWxmaefStalizl4n+5EzRqpAz+7BXPTFcxf6dpo+EN1pFn4B1a88PeCdRafUrKOe4XVtIuQ3mRmzfrJCA2AExhQW70WCx1Fjb6L/wAJVq2l2dnroXSiJIPCl3JH52jvC6lry1lOWkRdxbb825wR0FW9c8P6NP8ADbSZrjxBqWsahbPNb3Hiy2lto7zR1Rty/aFVdpBCbXZvQgYzUvhfWY7/AMU+FPHEumzbdQtRp3h/VUsbhp7FpI3iMN8hJJUS4G98gs+e3Gf4St57Hxb4q8N6f4Xh0fX9ch+1apbXls8ui6+gB85LebJRFO7LHA5wKBknir4h6X4f8daZLNfX3hfT7yVI1t2kgksfFSS8sd2BtkOMOFGFyMUaWsJtNU0G4s7i4nmjge08MxTxB9DiJkiNxaPty4CgMC/HDHJGKcPD+jfEr4f2Frf+F2u/C/g1Jkh0+5tpf7WsLuN9xaD5t8uVKnqR93rWhq+qa1/wnuiaxa2VvFq3ia3+waZrMFion0uzZAyQXUZJEfIbazA4Xdzk4o0EYOpXWi2fw40+Ox1q41xfCsz/AGjxFBdRPfWLKRIgkULtMJb5DjncOvFRarp2jw/G+LXtQa60nQdWBsxIl1G2j6+kyliTld6sSxDEHHytgDrWu2jf8I1baxpel6XoGmi+WK71jUlijfQ9WiDlJY1IIO/DDaqBcv6dSX2na94u8AaXdR6Lp3/CJ6LAEh8O6lCn25ZYWOPswU5OMZ3Mx3fMMEGgZ4X4206WHwRrF/JoNzqnirw3qgfRPDUN3Gl1psUr7TPaZXOGjVTtJ+VD3JzXXaH5Z8e3Vm00NzqXi6yj1PUdQU5jiktWA+zP3WcrGykcLIAxyDgV6W+g6hZfGXUteuNOuLzUNcsFGkyWlrA+paNuiTCTpnbnhsErwmBknNePaVoWtaRY2mnXFxp11qFhq+3xXfwKixXlsUYYidWxHco0m0DgPlm7HE8oXPqL4L/EC7jsYNY1FJ7DRNWIn0ozzBoFswP3e18fuySQMNwcivZfENxHrWjTRX0UMmk3cLQXSOi8o4wchs5JyfWvlT4I+LrrXxf2l9LZaX4e0+7/ALI0Kzvo3ez1G1yGLlSN0bYRcE/KvUd6+irHX/7U8PR2skarI0eQrSrKrqRkFWH+sX0YDPrWys1Yxkfnv4v8L3fgvxRrfg/7Qw1HwPemJJpZo2nmsJTut2IjA24RgMYGSGr2D4R+KbXxH4IazkuWuLq2XaCPlViPUHnJ/Kof2uPBlrofxc8O+JIVW1l8VI+h6nMsUR+0Swq0sBZs7mYAuMgEAAAkVw/wcuJfCfj+70tlDJeFnRmGCXXk4+o7V57vCeh1fFG6PF/22/hBF4b1yHxDHlW807g/y4zjDE10P/BOzxDNrPhLXvDDyNJHpdwdV0kB9x8h8llPphs9K9H/AGvPD0Gt+DfJvkZoQrOrg8OByRk18nfAr4rX3wa+OOg6xZq39i3c/wDY2otChKqjOCCR0A29/UmuqV2YyStc+d/+CjPwfT4UftO64ttH5VnrBGpwjHy4l5OP+BbhXg/mMifNjK9MV+gX/BbT4Tpa2PgvxdbHcqvPpdwcEYX5Xi9j1evz+uIWhlbzPvDqK/oDhTF+3y2nJ72t9x/OfGOBWGzOpBbN3XzHxOSq/XmtGzZn27SuR61l7th+Wr2mNhuee2DX1FOXQ+NrR0Pqb/gnjO0v7Wvwzk2+WjakgzjqMEV/SFpAxp8I7bBiv5tf+Cf7xw/tT/C8ySbAupIcZPIya/pI0gn+zLb/AHBX5J4gR/2im/L9T9e8K9cPWX979C9RRRX58frAUUUUAFFFFABTXk8sZPSnVk6hes981sjMmEyWz06f40AaQuAOv6Uvm++B6nvXxv8AtK/Hzx74B+KGraXpOvzQ2sbqIlWKNimVB7r715pN+1V8T4lUy+LLhWUEbPKiyf8Ax2p5kiuVn6KeaKTzfm9vWvzab9rv4iqdsnjC+jDNziOPP/oNVJv2r/iC9pLcf8JrqmFOAMIP6UcyYcp+mDS4HcUnmcng8jI4r8u7v9q34kQRjZ441KRmYYBK8D34qjqv7XXxG024k3+M9TaLAIIkGc56ChysHJc/Qv8AaqRv+GcvHHy9dIuMe/yHmvwc/aPf/jLLUhu3bnAUd8+WM8V9e+Mf2o/HXiS0n0q48YapJZ3MWy4iknBWZGyCp4r5E/aTkaH9rjUG253Sgg46/uxX3fAjviGv66H5b4mL/Z4o+dfGkv2TUpJJGKxq53c+/SvaP2RP2V/F3xznsvEkluvhv4ew3UcVxPdPt+27HG/y+7MfQetZX7P/AMBbH9pX9pPw34N1O6/s+11TUlWUkfN3+U8g4wCOvev2Y8d/DXQfhj4S8PeGdP020g0vwrCtiiNbqI5Noxv5zyTznqc19Lx9nlajUWEpO10j53wt4eoV6H1+srtO1j8/P2hfgzbx395D4GutNvoYwyRWFy/l3CjjG0kEE8dM18U67pEl7qt9bzWjQ6tpczwX9tgLJvBOXI4xznPpX7Hat8FPDHjzXbayvLTT7VrrLC7hjXzIWA3KN2OMkAV8P/8ABWr9jwfCfxNp/wASbeaTT4ri9TS5LNo9v27aCd+7qeMAnvivk+F+JMTh8cqTbkn3PueLuF8LisHKUY8rifF7LtZVXac+hqR9qoRg7vX0qt5UkF2ysyttzhl6EdePzqaWT92GH3u/vX9EU25RU/I/mKtTcKjh2EmRfm9R7V6J+yVo1hrX7Qnhe11SzXUdOmugstu43LIMdDXnVwzbCx/iGMV6b+x3hP2hvCfmI0iteA7Qua8/OZSWBqNdj08hV8dRT/mR+gH/AAWO/Zl8I+GvFXwc/sHQdJ0Gz1PUDYXcVjbJCZl3JjIGN3BI56ZzR/wVi/4J+fCv9nv9kFfEvhHw7HputWd5bRNco7EyB8hgcmvt79oj9knw7+05P4UuPEElzH/wit//AGhZrCwXc+APm9uB+VWP2nf2aNB/aw+FM3g3xL/aEelySxzObaTy5HZOmDX4PhM8dOdBSk7Qd395/Q+O4YVWniGkrzSUfWx/OPdJlWG4s2eDiqskiouK/Vb9u3/gi78N/g7+zJ4n8beGNQ1611LwxZm7ENw6yR3GOeeM9iOtflLLyMjo3X3r9oybOsNmNJzw2lnrc/B86yLFZbWVHFbvVFfPmBh29+agcBGP6VOxKHb0+aocbpW9q9aTPOiSQNsl+ZgB0r9wP+CCXgG48F/sv2N9exrHHdPeaqjnoUbait+SEV+INnEMfdaRunHUV/QJ+x/of/Ckv+Cd99NHcLL/AGZ4RikST7vJgaQjP1fH4V+ZeI2J5cHGl5n6j4Y4VSx06vaJ+d/7dXxluPit+1D8UrzTLp5NN+xW2nsizfLMocNz+O4YHPWvfv8AgkN8KN/jHTby1aQ2QcyNHLHhS3BP5dPwr4R00614q+HeueJLyzl+3eJNYeQkRfu/KiARMAYyCz9R3FfrR/wSi8CLo/w7tL5VkaS0tXVldR8smOR+Zr8Tp6rmZ+8bJHrX7ePxwh/Z3/Ze8V+LpH/497cqXMojI8x8DBPTCj8a8f8A2Ofi7ovjz9mrwPdeHY/J0e40qG4kleEwyTzugaZ3yAS3mFjnkE55rN/4LXLD48+HPgf4eyWepX//AAmXiOK3NrZgPLNHDH5rfKwIKggZ49a7SbT7bwzbx29ulvb2duixBIol8qMDhVAAALDjA4GM1EdWVLSJ3rX6raLHM1xNJeSb2gii2SzY+9HEB/A2eZOBgV5R8WIr7xJrDR6p420vwvppmiWw03TZDJ/ZOoBsoZfLABRG8tizHHX0rb1nxQukaDMuoNdyyXEAKWNi/wDpd4DnERfGVA5JCjJzXN+D9O8UeIk1RdC8C6VoVnZ2VrNczXcDzNrumclbb5vl89lDqWwT8w9KrqVDYg8MTeCbKf7b9lutZttNle3GjtEd2v6qfLL6lCnRkcFv3hwAMnPNWLfRdctHlvtSkabXdene20hYMNNodtuRsuTjasADAc/Mz+gzTbHxNqVj/YepeIrWzsNS1u1kuPDdtFCEfwnb+Sm2zkUAGT7ikKxAZ8joBTdblhtvES+H2vJf+E48Rxws2rNEDsSVDnZCcqJNuUfuiEYNFyh1urajBd+G7PXo7zWLmGaK88TWgRYrMod3kTzA7juCkknONhAzRrug3vjO70aWz8UReFNN0HUoradLmOMWfigMgLGFM7GMxBIx2x0JIqv4SvbOb4r6h4b0Xwq+io0cd5qd++nrMuuomFKlW+WLO75AM54qEa/Y6l8JNU1C+8CalfaNo5lttN8NGDy5LQ27EM5l+8ysSCTjrkdqmLuBtXms61oPiWG9RtRuItcsobWx8OIqJd+HtjNE90AWyiBTtBGMl+cAZrK8PeDNe8GfDTWvDN140866kE0q+JYplkj0AoY5lhuJS25u5O7PDADNOvLub7R4VupbW+utW8VG5GmeJH02NW0C3eKKbyJUHyksMjLdFU4qG4uNDX4lalp9rompW9rbWceqahcxWMf2fxeG3Q/ZtuNq5PyhVzkuT1AqgNu8sdc1N9A8QPczaDNot7JZ21hJdxx2nis7HZfLTdtV5id3TgEnPFYPjrxd4y8N6zNeaZpd54i/4SRre61Hw9Hqyx3/AISWSHY+2QtuIdyGxkAKvYkCsaXxpo2l/B+58TXWg65qnhtbdHg8Dz2afaNJntnCs8JxuMcYjJwfvY56mremaBZ+JG0XS7lvFw1/xcJTbeK1tI473RLYgXKWdwQPlRRjPOeQOnFIAtvAWufDvwvb+DdU8XeZpVrLHd2HjWO+X/RJIbkA2EybsktHJ5YySSxJxxmobt/H3jO3utaa1Xwjrnh+eax03RZdVU6f4otpUIhjjYHClWUvnb8xCgE54dfeCfDviz4uxWNzDrFx/Zumw3+q3Fuka6P4yWdPJLSADb5zFAFAHygMRgnNZHhD4n+Ftc8Lav4q03QPGTaRpMv2a28I6jZoJLN7SRCmoWcfJMaeZhTxnvnAphsdjc2PiTRddttU0lm1+18TTRz6loE+pqL7w0k8aLKse5iSM73YgjAJHanab4V1jRdFhsf+EyW60nwfPFcL4lS8O65eFx5lpOAcoXDhMkkBEB6UzxR/ZWjt4T8OSw65quveMgba28XW4j/tXSArlxDNtUBVj34fJ5G7NdTJZabe/Fm48PWVkx820Et3CzRrpPiyS4jbc8p2HMv7pSdo6EAYoFyo53xpe+Jte0ez8R2txpOma8lxLbwaTFq26116zeaOXcsuNu8IWVVbGWJ571DYaJJ4b8SXGl6DrVjrVn4jJXUtOmvWhfwtE6lc26niVELDdtIOQvHPFG71nTf+EC8XXTaLrIj024it4fDZmBbSHjf7M95p427sAMMHoCCa0PiPpGkWHgPwUqte3VxeFs+LdPvAby1ktxuUzkLt8shCpB6tt70rBYpeHfCNnrfgNl1zxPDZ6f4QvopdJ8T28sks10iptaKdQN0eGTLbuOnWtSz1W6tYNL1NpPD1x401SNLOaD7Y32HU7ZZtzTCTbtaR0A+XGdi/hTU1zQ7P4269ZXliujtNbtZwafc3xXRPEzSKkonKEYckyEMRwxJrO0F7GHwPqca6Dcf2hrl0k91ppvXW48OwS7opJrbjdDGNgc9gpA6UD2L3iP4Lx6Z8WL7QtL1K3k0O+hmk8Rac8b7rZpYQY5bePHOPL4K4O4/jWXoH9l+KtE1j7XrVrceDdEn+1aALCKSS6ttuFSSQBQVRGzkEnJHAPFaVjr+m6/4C8K3E91c3Ph22l8zUdf8A7WkW+tZYZwEhuJB95XVyACRtGSOa1IdF8NeHfHM3iy8gs9K13VjPpmjWCXDrp+qJ5bGKUQ5+ZXwFHJUnBxnmmTdFPU7fUPClt4L1ZNS0u48bTQGJnDNFDf2sTugzIFwGG9SQ2PTJrmfGfw20+78ZePPDEYWa11axj1rXAtntUMSZPPgIH7xgqbFAwcMTwBVzT9Mk8U+EtW8PWHh7S7vXJLiO61vSbqeaQ2wkQPIIn3B40Rl59yAaLnxV4e1/XfAtnYi8k0a28y11XUTcyM0EjyiFIS+7kFASBkYjBx1NTsXykvgTxVN8SdR0rxB4fntb5brQX0HTFchP7cn+V2aRTxG0aIW55YMw7GvedP1S00yeNrMyaHbnCvpV8mLa4bON1vLyi56gKR26V8xfC/WtXstT8WTXWi2TQeHfECp4ae2jaK31SOWTyfMA5wyo5aPGQMNX0P4UvNH01V0LSPGD28dtI1iNO1ZY57c+X15wCMtkZ55BqokSPE/+CkHgaTxf8GtN1e1kaBvAOt2uuXJw4cwLmOfAUEAmNycHA6845rzmw1G1ufEXh3xJZXxuNMuHguIZCoDvE4Py9f7pA/D3r6j8b+CG8eaTq/hfVNNuGh1qxn05ngi+0wlJFK4RzggfNkA5r5D+A3g++8R/BL7CQV/4RjUdQ01J7pyrW9vZzyRLkepWIAfhXHiItam1OWlj0/8AaQ8MN4w+HE0cLmGSEFcr82FYYH9K+H7YT/DvwprHlMl3qNvbzkxLHiNJQeCDj5uBnPvX6EeJV/tv4dSNIDMs1gjq4XqCoyeOtfEFvIkXjmazmiZ7qG4MQkSTamxieGXGD2GPatk7xTMWr6HU/t6eV8V/+Cc1vrBja4uLeysdSD4zlgArn2yG/Svy51O3ktHKzKQ2ASCa/Xzw/wD8Tz9gDXLOB45ZLXSdQskYoHUiMtxg5HH+FfkRe2jZkztDKxXge9fr3h5inKjOj0TPxvxKwy9tTr9bWKch/ecjbuq7pzrFL03rjIGKpxDaPfFX9MjSWVdxx2NfpkN7n5TW2Pp39gmFbj9pf4ayM0Z3ahGoiJ5HJORX9JWhfNpNt/tIOv0r+cP/AIJ0NGn7U/w1V3Db7/G3suAxH61/R1oH/IEtBnd+7XH5V+S8fu+Jp+n6n674WxSw9Z/3l+RoUUUV+fn6qFFFFABRRRQAVWudLjuWdjlWkGCV4NWaKAPPfE37L/g/xhqs17qGnyXF1Ocu5nfJ/Wsw/sXfD1plkbQw7L3ad/8AGvVaKAPK/wDhi74c458OwNz1Mrn+tNX9if4aiPb/AMIza7c5x5j/AONerUUAeUr+xP8ADNSx/wCEXs8tycs3+NMuP2J/hjMmJPCdhIOuDuwSPxr1k8io35apkF2fOf7QH7H3w48J/BXxZqWneFdNtdQsdLnmhmRSGiZUJBHPavxh/aOYXP7WV1IC2dyEc9P3a5NfvX+05CJf2evHHXnRbof+Qmr8Fv2gx537Uc/zbW3Rg8dMxrX3nA2uIfofmHiVpQhL1PA/GWq61ofi6PXdGvprXWdJuDdQSo7K7MDxjGMngcV+ln7M3/BRLQ/2tvg3a6Lq+r2fh/4oW9rDaTW97OVXVGVQokBbABIHzDrnpmvzV8aS/Ztck53bXYZHfk1Vu7+HW/E2m6pPG0FzYqkfn2jbZML0z2zmv0rivhP+1IqrS+NWR+ZcC8aPK/3VbWEm2fttoHhfwJ8KfCSa18XPGFvpVtpxEwie68mOd05UIR8zYx0UnNfmH/wUF/a6/wCG2f2ldS8WWr3tv4J0jOm+HbOZiyXQUnM2DwPMPOccDArxv4geLL74taxp154muL/VF00OttBLORG+4gnIHXGBWdqV3NeSeVIEhWBdscKD5Yx2UfSvByHw9nh8T7bEyvY+q4j8UKOIw3scJHXrcxLDTmRcsrbs9PQVe+wD7C0wkTarBdv8RodNgQrkcnP0psw3plVbaDya/WYU7Qt0R+JzqynNzfUr3K4U7l/GptI1m68P39re2dxNa3NsweKSNirqw7g1Hcr5sW33qNoy5Un7sfGPWpnSjJcr1TLpzlFqUXqe3H/gox8bb0KrfEbxH5ajp9ox9Bgdq/Qn/gkXZeKP2oPg94h8SeLvHHjma9jvxZQCLUikYG3O4D+99a/MT9nD9mzxb+1J8QG8M+C9NGqauLZ7to3lESpGpAJJb3Ir9Mf+CfPwh/aT/YV8Aax4f/4VrpXiS1vrkXcOdZjtzC2MY5znPFfl3GmHwFKk6WG5Y1NNND9Z4ExmYTxKq4jmlS2T1dnY+HP2u/22Pizr+t+NPh7q3jTVtQ8O2+o3FhJDKygzxRyMFBwMngDPrXzCQXVv4dvQY4r7a+O3/BJT9oHxZ4x1/wAWTeE7OWbWL+e/a0s79JZAZHLFQO+M18o/GH4L+K/gj4kbRfGHh/U/Dmp7BKsF5CULoSQGU9CODyPSvqshxOXKgqeGlHmtqlbc+Xz7DZj7eVXFwly30bucWR6nNQtF1qxImw8VGCpds/jXtSjoeDGRPp1sxu7YbVZfOXcMdQSK/oB+IupWvgv/AIJU+Lr7escZ8NJCGHb/AEZBx+Zr8B9Atludfswyhv3qAA5wTkV+8P7V9tFpf/BH7xVDCu1I9FVOmSn7tBnv61+Q+JTdoI/ZvCtX9rLrY/M7wHezD9nHwC1pLdTTlpJBBGiu1ypmbcrE9OgxjjrX6/f8E3/DcGnfs+2l5Gu37RGAqluVzgkHtnNfjfYzt4X/AGePBscc0m1LdJba3jHzzYuSzHeR+GB61+2H7A6xyfsz6V5SqI5QjbAOFyBX5HT2P2fyPi3/AILl33jjXv2jfgDofw50uDV/ElvqV3qcNrLII1kiVdkmSfRWz36V7/ePJqmmxkReTcyRgtbwNudGK/NghQsY3cZPNch+2TZ2/iD/AIKV/AtLjTZr77PpGrSmdEkYWoBQA5QcenOfpXeapPfa5pqwf8TC8tQeY7cRLvwPlDydQB6FQaKa1KltY5lfEf8AYsM0w1zSdCZQVMiIbq59Aynu+T0HYHpXO+JfHHh/UNOX+1viB4o8UK9zDcpoGmxFLq7vkYOb23y2fsqNtZVPy4jbrXSXWnX2j2zT6f4Hs769tF8y3+0Xi7AwBAdsN90ZwT2z261n6OdY0LxdoGoaf8KZtP8AFX9nSad4auAGax0m0SM4j1BsnawLOVIxuBAyanqOI3RnntfG8zaHqyeKPG2rCM63rTkfY9q7gkUTEFYZlUk4GdoznJIxeGntpK3FpDfaZJetj+2ru6R3imgkmZJFiuuMS7WCnaMswwMDisuztLfVfAt5pen2t1oum2Er32sXTLvYXAufNdrcJkugkdmB/jGFGcGrGuyeGfiH4BntbqTUtV8LgPNe6ikbR6i16FRo2iiUYA2och8bcMWxjk5dSiwY7qXwPbsoK+BbGCbOmSW0sGsXEkJ/dHzC5aVgVycYVVzkHjFd72bTvGNj4g1maTXdW1K5WDRZrOGRV0qGZFkjju4FfaGRmOFJy4yTmoPFOtRv4isfE3iiwNq9jdQP4bvrJ5GimWVSsYuxtxGhJjDsQMk8DmqWiWj/AA81XVrPw8+nf8J54otor/WdM1F5FsWSLdHLJbOR80qnAIDYXIHNVtsBuaTa602kalp9xqmj32oSNby+Jrp0c6frCO0kTxWzb/kl27RtTq429KzWs7q/8BR3V1p1xY+EPDaysfDN3bNHqpuozvjnidXy68jOcAKPXmuL8ReC/AF34E1jw5DJrX/CF6Dd3F7rCxQ3J1bS71ik8f2dNu54v3ZKlgRtLMSB16LxB4y8L/Eg+H/iFNqViugaPNAvhfWNKlnuVuHIaI2198pUKZdu5sA5KqMk0AdRqWmX9vp+m+KvE0em33iOTWEOi3+m6fKz6bDcRbYhe2wfAKmQKRn0Y5Oaz9Q0T4gwz65pejab4Qh8TalBBfa1NqHmpoGq7mw/lyhiyMFK9AN7Z6AVRHgXTPhl481TUtH1Ke18feMNOOn/APCN6nLINGvpwweVoJSgJmKoxAViF59K1PBnw50nVdY1DwXpupXWo6TaX13d63LLcP8A2n4dup0EkcVvFsBeHYG2FwcgE56UdREkXh+HQfBsuiw+GY5PB/he7mnutLa2kXUJLtXSSKWybf8APEN5J54UY5zXSalomsH4h6Pr2qQ6beas7rbaJd2On7rvS0mR1H21N2BGPlAGDg5PauB0rQ9Bv/C+h3EviBp/D3hWWGHRddSSRpru5USxPBqA27Y/3yru6HdhRW9eacvgG8tvEW3TIfH2oQtZx6U11P8A2fqUqESSYcr8sxQNhQSACTzxU63CO5d8I6J4iubrxNpemWGh6TrF6qXuqSJAf7I1VpBtcpNuyq/K2VAG459c1mX0kOjeFrGRfDLP4f8ACty0aaDJZ7tThvYZA/nWxD5kiMbHJyRhQBmi38F2p1qbwj4fhW70MPONbluJJ01LQ5ZMunlJt+dFyNgI+bHvWVp/hzS7zwx/aeseJxbx6S8Vv4d1x4ZVjnBVoRDeDGFbzEGccknFULU6XxHresXHxE03X20+1bUvEERsdF1KKxVbjQ1niDLHeR7vlXcpAJBwM85Ncj4E8H6np2p+LvDP/COWWgm4+z319fNGjaB4jQcTxxEv8hZn+UDHOM4xUlvpN3Nq1rf3kmnHxxqii1NoGn/sq+tYJA8kySYz5xiAOBwo4PJqbSPCeh6jf6t4S0bUptR8J2a3Nlrtu9vcLqtpJLmZGiJGxsMhCgdAeelBQeL9Jk8SeF/C+oXPhT+0Y9BEf9keG7jyI9T06W2do3mRt37yE7VwmW3HnkV0OpDxIPH+qYv7dLzxBaSbfECQW/maLDtWSO1vBn5lHz5xwc4BIBFc9Pd+G9a8D2HifWNUklstBYp4Vu7O3lKLCQPKN2OGbaVxhDluSM5rVtPB4n+Ieg3rahat4k8R20a66EtZm0+9soC0LJCc/LIvmgncBksBx0oF1JrTdceGdYtLKLQ9M8K20qXLSRPa/wBneKy6FGhUDiNy6qMnpnPBq9qN1rGhXukeIp7231K7a1gksPA9yLdbjTZVIBeGc/xBA2EXHBz61hQeDvCPg7UvEHhqG51R/B2mRsL/AE26s3F+92pWdXibhWUL129AvI5zVq/XTviB4B0zxPqEkuqeINC1HboN9p+nSq2lmcEQ/aIS244WUZyMDI64oA6DTV1WLxHqmiwa9bXV5fWrPq3iJZoxPpWZN0VvKiYeTCMAGzyc9uBwPiq3XVPglq9v/aUNrovgHV11BtUt5V26oApXy5Y1xtkL8tuHAyOOtdVPr0mheNLLU9O1bT7HXr+KG61/UZrMf2TqhaJYSEYuArAqBt3A5BPtUMHg23j8S+OvDdu0un+GbGzN3Na3Cqv22aNxP5iSHO5A0gJxnjjnqJtqO5k+MLnVtK8d6bf6hDHp6eJNKez8NaVbTvN58yIXW5BYDynxyEGQArg5zx6t4Rtta8R+H0aPwn4J8UQtCijVDNHDLdbQN8u1Rkbn38ZyCDXlPhPxPa674L8F3niRWOrafeix0m2RxLcRSyKAbl1XsoAO0A479cVqaJbeE9Mu5NPvvE3iKKSzdrfyNPWORZxuJ81Sm7IlYtgDG05BAxQ5Mlo9I0aL/hHdU2rZWOmzQuJBBb3bXIU9cnJCKPqa+Wdc8PzeGda+JGjWd4JLa3183kYWQbkF1Cs0gIAGB5jN0456mvqTwToUMEltZWtvNYxtOjqb0EXDZ+7JKvb1C98EmvnDUfiNH8VfiB8Xlks9Ut5NF8Sw6VILuJY/PaO2j/eoQB+7ZSMA59c1jW1iVT3PT9E8LXml/BHSTdXC3P2yxZoQrgnywO/6V8Z+LPhjF4Z+JS6nqDALeOqWiZwA+c445LcjrivuTwXoQ/4UhoNwyoiraBURZPMIGMZPofY18d/tSNInxhtUtI3k2zKBv4Ocj5tv+FVLSn8gjrLU7X9l/wAMLN8CPF2hyus0MmpX8MYAHR4zuQj1H9DX47eK9OXR/E2qW+1kENy4wew3Gv2m/ZigV9K8bRony2/iF2YYI+/Ec49frX44/GiFbX4o+IYVYNH9rcD2Ga/RvDepL204+R+X+JlNfVacvM5RI8ybhndVmxAjn5+92xVWIMDn889quacym6+Ylsd1FfssT8Rq7H1R/wAE5rLzv2rfhgny7ft+SSPuYDV/R/oC7NHtR1xGuD+Ffzhf8E6bhrP9qX4XyrubdqWzLdPmDV/R9oZP9kWv+4oNfkXHv+8w9H+Z+weF/wDu1X1Reooor4E/VAooooAKKKKACjNNckD8ao6ndzW67YdvmOGILfdXFAF5m5oZs9GFfLHx4/ab8YfDnx/cafZXlt5EIUbWgDHJGTzXGT/tqePEkCi+tdzdvsy8VEqiRVrn20rYPLA0bxXw7dftuePoJNv261Xt/wAey1mwft0fEiSZla/sAjNgN9mXil7S4cp95o/XNITmvguf9tT4o+fMo1TT/wB2e1sucYzVRf24/ie0kW7VLSNFBMhNqm5selDqIOS59iftKlf+FAeNS27A0a6z/wB+2r8Ev2iF/wCMndQUj5VkgAHoAi1+heu/tr/EDxnpE2n32rWU2l6oj21wHs1X92wwwyOeh61+fn7VKMv7VV5Gu0wq8e0AfdGwY6195wHLmxLXkflviYr4eHzPnfxfBPf608MMckk8sxVFQdcnmuk+Gnwy8RfFPxBpmg+F/DGpat/ZoddUuhCFSDc5LYY4BIwMZzzmol+FupfFLxzaaPpNytvcXF6qNIG2u3zD5gcdjjj0r9kfBH7K/h/4N/s5eGfBMEMzPNbxXmsXUb+XJezPGWYsy4YjOABmvteM+JqmDksPS37nxvh1wnRxtB4uvrFM/J3xh+z/AONfB3mS32kzTaZpok2SRBZDBt6ZZOnSvPZ7CPxJFJf6axuF+UXMRIEsEhzuDr1PIOCM1+tF5+xr4OsNM1ibTbO8sZGhJtwl28iNLj5SyEkEf418I/8ABQ/9gSP4L+GtI8baXeXmktqcqxS/YshAxXdnHbGT3r5nh3jnG066p1veTPtOJfD3L61B1aPuNdkfONzAYrllO5dvAz1B96aZpIbNo87hIfmx7dKxfsviuRvLj8R2srISGLW45I6dQSe+STTZtG8ZT2MivrmmrIxAyLdcgf8AfNfsNPNqs4X9k/lY/EKuQ0ItpV4/ia0oMg+UZXOCBUY2h2x/CODWH/winjJZCF8Q6fu7fuB/hUa+FfGyJvj8SWLZOWzbL8v6Vp/aVb/n3L8CI5PQS/jw/H/I/QH/AIIJWt1c/tqzSWqjyY9Buhc7uykpjH4496+y/wBtv/gq9a/sufGiz8K2Ph26vlhCy6nNcQsuVJI/d5IzjBORX5i/8EwP2r9a/Yh/aKj8Va68PiLQbnT5bPU7aGJUuEiZlJliPHzKQCVJ5Ga/VS5/4KNfso/Ho2uq32q6Prl5aW4lia90N5ZrdeDjLIeQcd6/H+LL/wBquvXpNprReZ+2cHUlHKPYYSurp3b1PZviZ8WLzQ/2f18eeHdOuNSh+yw3q2TRt5zwyYJATg7gpr4Y/wCDhfwtZ638KPhr4oWNI7z7ZJbJv+WUxSRBypHXgj8M11v7Qf8AwWm8AWvibRPCvhuHVLzw419bzavqskTRfZoElDbIl75UEYOOMV8o/wDBYL/goN4f/bP17w7pvg9bsaD4bMspuZlCG5lcAfd7BQMd85rl4VyvF/2hSrcjS1d+luxrxlm2DlltSj7RNtLTrfufEF0qxTEdFB/KoMfPz93HNWJDuc5O5utVSw3YPFfuMtj8Ejsanhzy7fW7Bn8wL9pjPy49R61+9v7U9oNW/wCCVviq2gZiZtMQDOAxHlI307V+CHhaybVfE2m2i3Edr59witNKfkiGRyeDx+Ga/oC1iyHxC/4JreJrETJJHJ4fR4pFXkgWwGR+Kk59K/HPEiLtD1P2jwrkv3q9D8xdevreD4ReCppodqR6eojULuDuLhvl/Gv1+/4J4uX/AGZ9PjK+X5YHyfxDgV+JOiGbVf2XfBcjLO81pPdWkTbuhEpY9/TOD2Nfsd/wTA8aQeK/gZZwwwtaq9ushiZy7IwAzkn3r8kpn7RLXU8X/b+vrjwr+3X+zzqjLM3mSalZnDL5OGQtyp5LZXqK9LvI45bkP9ljvY3Vt8bNtuC3dkYEF1z2JJHevNP+CzF3a/DXU/g944myp8P+LZLMhiAGSeFxg5BHBxXoTnzLZVxuXzAgEvG/P3c4+7kfxDkcdRRT+JhKWlzN8QQeA00M/wDCQWviTRzCd/7tWWO5jYjfFjqWfG33JAzWHNoeh660GkaF8R7zT/7RdLzxR9suTbzX9gXO2MM4CiSOFdjquCAoB5roLfUprpbmwsfEH2O+hfb/AGbrEH2i0uXJxGofnHz7TkLngVk/ET4aeLLzQDqniLRPCeseD/Cs32zVLO0iVLzXp12yG7hcHC/NjdF0baQeuKIlR2K/hY2beGdSaxutQk+Hunu0eh2+0JNcw+VsjVoyBK8glUqgIICMp64NDeI9SXw7pWq6lZ2+j6lDIlj4Zt5gUt5LqUOjJKi8sPLAZ2ccFWGcZFRXN3e6F42/tvXPCtnH4u1CIS6ZbWhVNPsrXd5UPnt94YMgSUqpL5Xsow+HQ9at/FGp2Md7BqHxAuLMXD2Ej+XpdhGsiSgxHBYsiktGAAOCWwWIp9Sg1HT/ABJ4bsbfUdJtbUfGfXLEyXul31x5kN2sDJ86IGKI5T7inGNwwBjidYtT1XU7Tw7Y6JLq3gl3uIPFlwdQ2ahotzIVeUNIXBMKFnGFLbipPJ5rnvAXjjRfiBofi7Q9C8V6prel+FbqVPEmpX8rw3mhRSLL5i2ciqJXXd1JP8IAHPFvW5tJ8S/DnQfEWq/EDUtH8KraWd/4f8S2Urteag5iGXu4NvltKSOd4O0KOuTQIdJ4jk1dpNSvrCxXQ9B8ifwbr8dw0NpeySJ5H2a63MHdyyAnI+VOCQDgponiDxV4c8MprF/4OTQviXFFPp+maE0qrpmuxIVuN9vCj+WZeSELAZbntmu41vQLyDxRNM2sW/2uG0uxpXhtZUfT/EJHlyxz8ptjkUvnMeCzMOy4rIvbbxNBfedJql9ca3ePaSSaBNeRzS+Eo5me3lu7e6aPe2VIO3kLt4HOaNRalmPW5tK8PW/h/QdLj1TWL6/ju9f0OfUBJq2gpdKBNIhL4jWPzDkqex65ql4t1XR4vDdvDc3N5baHojQNpniqxv5F/tGZAYWguZVbzHlBXnPAVe2cVauov7K0u1s18RTTafcaUstx8QIVijvXkjbjzlVcuRtC+WwIIAJ5rc07wPJJ4pmW/m0+G2WSeCx0S4u4zpfiRHVJxOw8srC4ZySUALNxnAoC7MGHxLqGmX41a60izj8XGOe0tNME3/Es8TwqyTrNbRBsNIuTtLYJYk8nmpTdWfhbUtS0zTNH1DWE8QSQ3WsaHc3Xmahoaz7keWP58RhcncwPAHWrOiR61q9rZ6hPLcLeW1xBF/wjqzQi48MgmS2kuoJiuSCCvyDACg9zU9z4d1XQLVmbxkdRuVtLi3uvG8UEMV1pqqUZbd4wuZVBB6k5yaL6gZsuqWWp6Dbf2lb3knh3Sbe2uLHxRaXzR+dPG20rdSBwZGLRqOc4B7U2fxPqQv8AUtQGk6b/AMJiyTw6bpJlzZ6tBEyyRTwRbsFxlgGxyQT71oav4a1W81OO3m1uLw29ndXFrbaQ0kc1j4kiIEi4GwRxeYHwxKk/McHirGiaPqUd9brNtuL6RbdL7SzfiOTw4JUaMywTbdxU4XKKQAAPWgo5PVL6Cx8IXtjcaHcsupTJeeJ7CO6ZtQ8O+bEHeZTv/dx/IznaeSVHPSmSajdahP4c1rXhYf8ACC28cd3p+q2U7qlo6siJ9odTucurHdvz/FW7No11cPeaLD4jm/stY5Wl8WCcG5tpoJuLaSPbmVAGwCxIPJxwBTbuw8Tal4avNNaO18Px6XO9pbWTXEVxZ+JVlVzFCE2bYlOFbcADxjjNINCxoviaHRvF2uXlvpej2vjHW7GRdP024c/Z9USFikU1vHnYPMBGDwSAKwJbu0n+F7adHodr9msrtrzxfY+bKbjRZXjEpcHdvVNyYAU4z2ro9YHiXwo2k65pNuutalqn2ZNV02a8CyeHY5I1LiOQgnacclMbdoABqr4c0y81jVtV0lPFEg0+1CzN4rilEc0lzDL81rPFsw67JQm5sjaM9aZJDrHxH0vx14j0PxbMukzeCbF4F8P6jGHDJeu3lmCTHLbsAkMCMba5xPEGpeHPiPq0On6HZ6X8X/EOmySi2eNms71VbKxqDlVkdFBPTAJ6Gtt9O8QeGPDsei3X9k6L4g027li0PTrW6P8AZ+tlgkgkIChY2BztwBl/oDW5a217pF5YyabfJqWrX12l9eWN7qEn/EnimQRyGA7cuFZieTzzxQM5SLRm8YfDceHdG0rTf7L0K6lk8SWUkEmbC6zuPlsBvOSSFwThc5roNA1qxm+LHgfxDcW8n/CJzaZ/Z8IMIV3nKFjEFIyyoY8nPViuM1X0jRv+Ei1jUrAeKNRm0C1x9n1q0upIr64uY8rNHKo2gH0bOQqgZ5IrI1zxbeDwj4e8SalNb3S+GddVNLjhZnXUPOmWKKWR29AxXbjG5txHyg1I+YzfA/gzxRo/hvx9aaorR+J9e1pJtCE0S+dpunySgyO6qML8incwGeAD2rvrXXPFtpqkMGg6ba6P4dhnaFNSkEcaQqMAowzkqzbmXeN3z8VJ4k+H99p/xK1jTNX1yKfXvHmjSXN+Y7dY4bOxgYFoolyQz/vSu9ipO4HnFYNre6Hf+JZLG2udY1yeZUuGinfbZvBsHlh+d26NR0O/O0c80X6EvU9E8O7v7ThC3TXXnOF+1s255n7sd3OMgY46CvGfhrbaXqPjX44ahNCy2ra79lIIx5s8dlCGY9sc8EelevQeL9P8AaLceJtQuFGn6JbyXk7hOAsQyWAwSMgYA7YFeMfsH6HL4x/Z6utekMdzH8QvE2r6xC7DpDLdvHF93AyYx6VPL7wRlZH0P410jT/D/wAKNAttOh+zxyWSuy46naD9fWvz4/aMkuh8dLArua23DcEP7xGJHX64r9BvjeyaXPa2MJbyrK3EUQz2Cgc18HfFWym1/wCNtq0kcTQ72RCPlZyG+Y5HcdBmjEfDYVOTbZ61+z14Zm0rwd4rvrqSSP7Rfm8cBf8ApmwXtjBxX4r/ABV1M638RtZuGVI/Mu5PufdI3EZ/Sv2x+E2ttpX7J/jrXo5zItrJcS75CWMaJG4AGfQ9q/DnWdVbXNTv7qT5mluXLMF2bvmJ6V+keGtF885s/MPE6slh6cPMoRxxm37hs4JzVrT9sb5DfL0+tVUCi42/w9fpU9kMH5eR0r9iPxCbuj6g/YF1BU/aT+GZWOT5dUQD/eya/pF8OFn0WzYgqfLGRX83v/BP6Pyf2kfhjImW/wCJqocMOF69K/o/8Nv5uhWrKc/u1xk9q/I+Pf8AeIPyf5n7D4X/AO71fVfkadFFFfn5+rBRRRQAUUUUABG4VXubPzfyxx1xViigDyfxX+yH4b8catNfanJfTXUxyxEm0D0xWXL+wh4Mmh2FtT+vnD/CvbKKmwXPDz+wR4MdMFtS49Zh/hUH/DvvwPn72qfL387/AOtXu9FUgPAx/wAE9vBe/wAxZtUDe8g+npRc/wDBPjwbdD5ptS+UbQQ46d+1e+E4FIeR+FJq40fLPxO/YH8GeE/hxruowtqU0ljYzTpG0owWVCQOB0yK/IX9q+QRftRyNGxaR44GkGflUeWpr97Pje234O+LOP8AmGXH/otq/BL9q0q37Tk038TR2xYDsNi19zwLf61KKXT9T8y8Sv8Ac01vf9DxO+8ZXXgL4naN4gt3k8zRdRFw4iJHybhuwPwr9YvBf7dUf7Tnh/wXH4G0GbxBcXsK2utwiYQ3emFEC+ZtPVTnIPfNfkl4rkX7ZcKw+VnYEe2eaX4XfELxN8EfGh8Q+D9ak0rUJAqEEsBgDHBUjqMcV+hcXcJyx9sRh/isfmvh5xpTy6P1TFO0Gz93NM+EGq+MdEWytZl8P6hHLGwe5O1hGjguCy9yB3r4F/4Lc/tjeF/HOoaf8M/AJ1TVItFuGl1SXTl32Tzr8jRKeOQQcsD3r5/13/goR8W/ifoN/pXiLxVDDb3FrJbGWzeRJArjDseTlh/D0rx+41Sy0zwpa6bpL3R+yyvunn/1lyD/ABkjuccivj+H+A8b9ZVTEpxS6n6NxJ4iZZ9WccNLnbPOVk8W/bdtrp+jwW4PyrLLlwPc1ehm8aAtvg8PeXjHEnJrf8jayt8u7AAFEo3dMLzX7JHJklb2kj8NqcSc8ub2MPuOWnl8bQ/di8PSHOdu/qPrTmk8bXtxnyvD8Ak4KK33cD/61dE7GI7fl3DpxQkj7Aq9W5zjoa0jlEVvUl95L4gdv4MPuPqb/gij+yHD+1l+0Dq0XxAisX0zwtaLfRWNucf2izNt2k/3V6ke4r9OPib8SP2Xf2WNaTw5r2k+CdDvNnzWsOhrMwA7sUQ4zjHJ61+ef/BCm6u7X9tpFh1GKwj/ALJuHnSX/l5X5f3Y5HOSD36V+nH7UX7B3w1/a61Kz1DxKv2fULKMx/aLSWOORh23Eg5INfifGEfZZq6OKnJwtdd0fuXBlV18oWIwlOMZ3s+zPkP9rb9u/wDZJ+JH7N/jbQfB66JqHiO4sHgsYrTQTbTRzkHbhmRcYOM+mK/JuZBHBtVclfvYPSv0u/4KC/8ABDb4a/DX4ReKfit4V8W65p2v+G7L7Xb2El1G1reyIMiNgMElsY+pr8z9I1yHxf4fXUoV8lZHKSoR80Ui9R9K+u4DxVCMZ0oSbu9G/Q+P8RMFWlKGIskktUunqVpY1XHXdjn2qlOhc/w9e3Wr8kbZLc4OetVJ4xvZq/QpI/NachqyfZ3Z9zLgY3Yziv39/wCCYWvDx/8AsNadazGS+a/8OqjpIOH8vdGy/QjAr8AtyoOnUba/aD/g33+JVvq3wBtdJa8jmuNL1K5sZIy2XiSVFePj04b9a/MfEbCqWEVWPRn6t4YYpxx0qXdHy3438Df8IHF4m0jSbWOH+y9bMlpaFk22++MNg7uNpYZxjJ5+tfY//BH/AOKizQrYSTRbzJJE6KOrHkke2T0rxz/goV8LIfBP7UnjixkLC31rT7bVIlXgyNA+Tj65xjvXkH/BLf8AaOj8I/tRy6HeBba+1C9dtpfC4YhsKOuQP0FfhMdz98Xw3PvP/guP8Brr4/fsG+JrTS1jfWNHmt9XsmaPcY5In+Yr7/0rg/2OvijqHx0/Za8B+KdWtZLfVte0mAXCuyyZkAKO4xgZYoWxjPOOOtfcXiawtfGXhia3uI4prO+ieCbcu5Skinn8GxX54/sA2s3gjwJ4u8B3Ubw3fw18XX+jK4hMStC0rSxY9SY3zkcfKKp6S0Etj3i40sT+XanTYda+YyQW1xKI5MnjfBPk7XH9xmJPGB1Nee+Jb7wV4Khtbe4uvH3h/VtPuvN8NaAYt9zPIj7pbvYCBJEeC4cdFbHWvbNV0CGTw/PZusMxvLdvtKIgQru7eZnCyrjgkc5xxmvH9T+JmqfCTV5prLXdJ8TeJWMFh4f0jxBbvDeaYr4iMpDcNx8xAI3beOtVy9WXEdb6hqkHjLVI/DvifQ/GHja8VJtXlvoPOs7Y7AEt7b5hGhwnzLyEJRmAJ5ivLGTT/iS2h2mn3l1f3kBbxR4g+0q154aWa2bLW7sPK2pwMqeE4UZrzfxh4Q8P/E/wf468D3Hh+80uzt3XV/GWsaem62juZ0277J1Hzxjy2MgGWBAGDzVLwXeaH4q+GHw7l8K/EJYfB3w7uhGPF2pyG3ttTuLefYtndwvh3Ee9VQEgsWBAwDU63KPRvCd8mv6lc3Fj4atdD8J3VrDdnxpp9yjTah9m24jv43RdiyEcKoYscZyM11NhDo+iW99Zap4TXQdHnubq307QRLbyWHiXzGEguUkI+XeHAY4G0navQ0/xDNqWqfE7w/qUmsQ+E7PQr25sT4cvti2viFJwzKIl3hXlcLlOoUMeTjk006uP7T1zWB/bccj2usad4bMaNqHhiRUaPcwZ+LcbAQFGSSTgVQmWLRrC2GjsvgTUry6sXtZ9L8MsLZNQ8JgB7driIFv3iD5DycBfmIzSx6RD4KkuJt39teIvs93anxjFHDJHoke1Z1injLcxllxuOTu4HFWbS38XaB4fjtbjxFo1x4t33TafrwjwtjGGjnFtfPvJUnZhu23gZNWNQbxZqHxMtbXTLzQra4aWG+1+WS0KaZr8TqY3WE7vmYLwqNyX54A5CdTmrfTLTUru80218Mz+HfDNrf8A2q8E62zaT4mknPzmKYsCJXWT7oyiduRWR41vfDTeEorjWPA3iDWvCulxwtZ+Go4impaO0EjW5lUq3mzwswUqVB3cseMV1F3Dq2u+Gbi3uhp9x8K7XTpDJo01iy6xazW5KBYYMncAyAlgBkZxXRadqmu2fiaz1nVpNJi8Sap5um+GdRtdKlmKWskUdwI7yPOYZAVYAFiABn2oHqctLpa6frMOqSC6k8XaoJ7ey1z+zo/+JFbyql19nvYN2AwVCpkkwF6A5OKv6X4c03S/Fl5a2+iyabp91Ot5qUtw8VxY+Ikk3Iqo5bZC+WyqKeMnjpU2iN4l1LxpdR/ZfD8PiDUPs174ptRG72GrQsrQHyZ8AOyAglCCWbjjFLb+KLTxf4L3W1ra3PgPwqsltdWFxpskd3bXdttdWSM8yt6lQAADyc0W1HqQRaRpeteCNUh1Dw7NqllZwwSWHh+4EUGoaSkDlWYSbjJKh8vcuAS4+tY/iqwhuNEkWGe6h8RSLLbp4jSwSWGwSPbN5F1EG+X5eGc45AAz0rptavm0bxx4c8Sax9nk1i6u5bfSNVt9LkkBjnC+UtwM/u8F9qqx4GKteGYdUs/FOtaLHpegzaprFxb6l4nsPKY2t3HIphdo5cbW+VAdnJLk88UDOPsrPS5desXa1kht76CJtauBHEbPxIssXkAW7bgkDh1BABzjJPJq1pFlY+HLTU769h1DUfDcNrHcaX4UFmsepaY9syqHDk75QOwAywIzWpatpVl4JutNj0qKT4d+EtQlujALBxeWV1FdLMoRMZkj+Y5KgAKDzU3inxf4j0v4iQ+IfEmk6THdTX5sfCN5ZW8k00qTxP8A8fKgfus4TAJ4H0oJZzPibw6dR0W1iivNWuPF2oQT2x1+1t4jb6fGj7kiuot2FKiQbzkHIIHA4tXS6Hfa1b2tjYyMdUh8jVbAiKKz8WSzQA5gmziNlZBkLkgMB1OK6rQNQ17TX8TaNoPh3TIfFGsT2t7r0M6GPTwJodskyP8AdkUlDlQSSc1kaQ+maL4Ug1N7Rf8AhBPCEhEaSaZILzTruC4XBjjxuYNubcwAGFA7UtblGDaXOj3mm6prHijSdXtoYZIX0bw4II2vNOmiby1ng6PMoLhgGUcg5yMGpfFFpbR+ELfUP9L1PxJIG0seMLMQyLYeUS4E1vuwihUwxJzk966rx9qWseJfiho95caetpqV95uneGda+xszsksW8+ahw0R4YKWPHJ5rN8KeLbjw5ceIPBWm6Dp1n4vvriO+1uzuLbZp8sMiIkzrL90ggk45y31piK1jb6Jc+PE0ezurrStJ1WIrfu00cVn4gnlAmaRJeqvnOQoKgcZFVF0XSdJ+H/ivTxpeoRxaLeRN4d0aViU+0ENGksWASyHaxBcAdWOeDR4h1toPA/h+8h0mNfBugMLSFJ7UwXllcQytExRW/h67n75FdjK2oXnxd8U6harJLqnibQWtPD8TXA+aMlQ1yCMiNQDkA9l96LCYl5oekt4otY5f7U8VX2q2CSa7cRt80S5/c2UeMqqs+4lQwOF5OKhtNGvftszTWNho0kUgJs7NBI8TkDLtMcfu3XblQW4yK6LwlcXmheC/Dtvpslno9npu6CS6lGDrEmzDOiqTuGAduSNxI6VHoiJo2mLDaKqReRsUXK7biaM5yW/2xkjHsKVtbku9jx/9v/VbrS/2PPGVtpfkrq3jK1Tw7Yh5PLAnumEec47IWOMdute4/sTfAr/hSv7Mnw18M33kw3ehaLbQXQt1xEzqgZ3+pfv714N+0Volx8Uf2pPgX8PbOZX/AOJvdeLb8huYbW3iMcZZe4aR+P8AdNfc2qWkOhaBdXkzMVtLVgfTpgH8etKN27sJWS5T50+MOurqPiDUJYwzM0jFWPVgDwK+KW8UW978WvEV0Vab7K7SLGQQYdvXuFPNfUHxT8Tx6do+sXzSLGqK7hh+NfGGj69Jqltdah9nkuj4ivhBbKEIbaScNn05qa2q1NKOh758UIo/hX/wSn1bUpjJb3WrWF1Nw+0OZSEGccEneDX4q3rRlvkD45Zg3r7Gv2e/4LWaynwe/wCCfHhHwuxVbnWPs9v5ePmAQeY//sgr8YSfmC/Ku3hcdBX7J4c4Vxwsqz2bsj8R8TMVfEU6PZEE0wmb7qqcdamsmLN8oA9MCmM2ZHYqF3DacdKmthvfj5QDiv0qMbn5XUtyn1B/wT/bzv2jvhqqqW3akPwPNf0e+F4fK8OWS+kS5x9K/nE/4J66gbH9o74bsFVv+JmEz9c/41/R14PkZ/DliW6+Uv8AKvx3jyP+0w9H+Z+yeF7/ANnq+v6GtRRRXwJ+qBRRRQAUUUUAFFFVdQvPskDPuC46ZFAFrcDTWbkYx714L+0f8bfEvww8Q2EOm3Nr5N5F5hV4QxXnHXNeYz/tn+NoOFl01iTxm2/+vUuok7AfZJbikV8j/Gvi+b9t/wAc29s7s2k/KQBm2PP61Tn/AG9PHUJXjRMH1t2/+KqfaIdj7dLYFNc5Ir4lg/b1+IUrMoj8NfLzu+zPj/0Ooj/wUF+IUe7Nv4ZbaMbvskvB/wC/lVFp7BY+qvjoT/wpvxXu/wCgTc4I/wCuZr8HP2qLeNf2ip1Z1VmgtCOeT8i1+j3jf9vXxx4r8J6rps1j4fFrdWskE7pBIrlWBB2EtjOOlfnF+1qkf/DS82Bt2w2hUHuNi19xwKv9sl/XY/MvEq31SPq/yPnXxw7nUJo1Xc/mthR35rP0i/tbMrDfNP8AaGb5ILdDJL+AAPNXvihBcR3brZxsbqe7EMT7SVjck5J/Cv08/Yv/AOCf+k/AH9l+x8aaho1leeMvEiwyibVEWVYQ/O+LIGPl579a/S+KeLHlijSpr3mfl/AvBcc3g61X4Uz80zokwjuJrzT76xS3YGWeVeUjboduAT1GQOlQ61ocej3Ia2uEvYNvmJMg4xk4z6H2r9TPH/wauvEDXNjNY6PrUN0FluRcxqjlTyUQKAB1wDz2r4N/4KAfs2xfsWfGqytbW4uLrwr44tReWUMpzJaO5+aMkf3TwD3GK8Hh3j+rVr+xxnU+u4n8M8PTwzq4G913PE3Hz5PJzSqPJXI+hB9DVRXa2uHSTlo3KNn2qwG80j/a6V+y05KUU1sfg1SlKEuWRDJExXPvxW78LPCS+O/HWk6VvkjN9cKjsn3gpODj8KyCdgXvzzzUmk31xo15Hc2cssFzbvujdG2svuDWWLpznRlGm7Ozs+zOnB1IQqRlUV43V13R+vUX/BE74X+C/H3hCGz1rxZG2rQzm4kS/wDKlbagYbWABHPpXomqf8EaPhbrVhLb3er+PXjmxvA1uUNweoPX8q+Ef+CaXjvXP2r/ANpmHQ/iF8R/GC2NjpU81pJHqzQSLICq7Q3OMjsOtfbHxq/4Jf8AjW/gmvPA/wAYvHFjcTJ+5ttXv2kiyc/xphh1GPpX8+Z9TxdDFfV8dXvK29n+Z/R/DVfB18H9awGH92+qT108jnv2qP8Agkp8NPh3+y/4qu9BvPFGn3ui6bLfWwvdYluI3KKWIZXODnFfiF8I4v8AildcXA/5C8hOB1yK+9PjL+zF+1J8HPBL6b4+1LxN4lgy7XN5BqEt/b/Zz3bnpjJww6V8Q/CSxhtvD3iiGbc89vrTqn+zwTyPX2NfU8H0nSlDmqKfM3oumh8pxliFWWIjGm4KKSbfXUmFuzSFcbQRgn0qtdaWyozKPx9a0r1VEbbgxJHHaqU9/ILXy1ztX2r9R5ZNH5FTnf4TOMaiPsPQ+9ffH/BBT4w/8Ij8aPEnh2a6t7e31K0h1CBXxuaeKQDj/gDMPwr4HlRpccYHUV6T+yF8XV+Bn7QfhTxJNtW0sLxVuz5e8mBztfA9QDkV8vxLl8sTgalLrbT5H1vCuYPB5jSq+dvkz9mP+CtnhRTqXgnxRaWq3VvqXmaTdSKBt/erhSW9j0r8ndF8R33wV/at0/xJHHDHNb3f2WVnj2LGv+rbGefXkeua/aP4leA4f2lP2SvEHh3dILrS401bTpQMM2B5ikfUgjivye/a2+HrX+jw60io32iZftE0R/eQSJ99QOmcqevrX8zVqTpVHGW5/VtGSqQU11P2u+APi238f/DTS5ZJIpEvIFVtpwqnG4fXmvkn4upH8Bv+Cm+lrcXyWmi/GzQ57Y27QfJNrVmV8oB+itLEWBB67BUn/BJ39ouDxl8E7PS769j+1af5lvdRbw0lntkKruPcnAb/AIFiuw/4Ka/CG6+MfwHt9a0fdN4w+HGpxeJNIAcxrcXNqCzRMV+fZLEWOFIJKisqm1zXc9b063tQkcFujNbQttffH8sjLzNKfUcIPfNeP/tB6Zrl54dudH0eLQbvWteY2CWequhmtkOBvs5cq4GGJA3NsIr0n9nH436L+018HtJ8Z+Grr+1bW8hjSeJLdoY4rgAMLdVYZxuILE9lFM+JukR3iTW7NbXUmpBraISJuSRh/rpFUEMCMn50IIwCQcc1pYhXT1Pj/wAELpNt42mj1XUNc8F/D7wPZtNZWDkyrruqRsYzdRAjLyB4pA0WGHJbHOau+I9Q8W+IfhRrOueJtF0M2tvqbSeFNCiEVvB45hnt97xzw9BOCoYyYBUbgAtbnxKn0v4c3th4lmt18SN4avo5PBnhu5lCrLK2Y5ZVnyd2JCTngkNtPNZPi3RP+LsX1nr2jaldfEbx3pi6haWVhJs0nSYUK3EjW6fMI75Yy+FziQqS3ytilHsXzHo/jLRtC0PwxovjDxF4TvvFkN6LO7Hh+4gaJvC8duyK7ww7dwjiBzwPnCjk550dQ8b+D/hh8aNJh1y11FvEXieO4tNM8TnS3kkt3nZXit2RV27yCGy33BxgVxvg74s2Xi/4O6HdaL4w/wCEu8Q+HbltJufGIsgl1oAYOm29DOVkIKgF9oUFMgdBXqNhYeKrTTba80PxB4X0+9urS31bVNSvLU/2XrQkXLeTIzFo1OD0wWJJ44FMNTmPDmi6XqPj/VdBS08nxEIbO78QSSaeZIPEsABjdkQjb8m91Up95iTyRWfp/hvwHb+BJ9LtrHWLXwL4dW5Gu6Pc29zLqllesQ6MtwT5sYZMEkcKg7ZrrtS8D6kbPVtNWNbL4f6Ws0t7DGk0OrW8kbebG8EgYmSNi33RjYo7k5rS13UNSsXs/E2tPaDw615ar4euYLG6iuPtVxm2Ed7b7tzx7gvzMfmJA6CgBmsaT4L1Sx0nxN4gmt5Jo9USfw9q1rZyW6xRyxfuEuXU/vI9zj5XOCcZrnvEMuoaPpmof8I/Lp8fxOksrOfWLee3KafqCh2jlECMdmVDYZkJ3HirVpH4h074mSWzfYYfiLrdltn0uTzrjQ7gRNuVYVyFhcpGDvwQjZHOK2tF8OXPirUNQ8HWGmRahoumzzw+Ine6ni1DQ5X/AH6+VN1kjzjagHIwx60DMfU9M8L3Jk0Oy86DwborXMmu2xikTUNIuSFmie3Gd0KblYKAMBQSOua2GXT38WNr2va1pQ0mNIZ/Cut226NJZJQ6+VcNuOUH7stuxuJAqrHqTHwNpOrX11v8MWdxbW1nrrGZJtTustbsl8uMyA8ZJwMkKO9Jq0viLQtbsj4l8PWFv4h1GOfTtC8PG6Z9M1tYNksMwjAKxScHaCcDqelF1sMr6TeW1h4KmhbUNHsfivrFjEH0S6mJs53gdt3lxlgrSFRktz2qzr/hbwzPHqGmW99I3hG1juTrEts8iX1lfMYpVSBgcxxlSQuBgBTzzRZaZIxutJ0/Rf8AhKLnS554dc1C5u92q+FlnQNIIZynRNzYCgltvfNSaZrem6T4b0jxBqk1rbeEYmiOnasl1Iq69NJGbcxXiFcyMNgJOAMbQM0WAvaHeaTcadb6xNrGn29npflp4Wv5Lhj9pka2aLy7ti37z94MHdjLAVj21hJDoH9oWupW7fE7VrOE33h+WdxpoCshmWNd2C4UE7gT3x1qzreoyWXiaxX+xbOO+1S3ki0Twy0uNN1QRSJMLqKIL8snLEbiOVzxTE+y6pHfeGdJvrnX9U0uSe21bU3u8ah4dil3MXjcpgKmAp4JYCgCa28H6VqviSTw/Z6xZ3HgGO1uft95O5kvdNvPMLGOPLZTAc7DjAC96r6TND4hg1K+k13T7ix0Jwvgu5W8LJrTSW5QJdYb5tsgZfmxlvyqv4r1fT/Feg6Hri+Jp/CPh3SLqC4OsafeI0HirKBJIbhth3Sfu8FhjGcVeYQeHvE7SWuhxLfTWLW+keEY7lFs7xbeZXW7t1C5yVkJBJwCpOKNAMnR/FWsa54G0bxJqA0jS/ilrskaXOiOx+zNaRT7ZJFG7BlERLcHO0HA71N4Z8FWafFCz0yx1SPXfB3lXFhqbXYaW+06Ub5Scs24fMBt42gFeDUNvpFlJZ6x4ZstQvNYvLFpGur6a8L6h4agljEjGOTaAIwUO4YJbIXpWp/al3q+r+HV06zn0/w5HPb3Nx4giuAlrr3mIEZH/ikdgxy2FxjrxQIwNeuI9e+E/iXU9clddF8K6gY9JJ+aHVYm2iN5O7FSGXGck5bpXofhPSxqV5oes6pfPpuratoG/U41bLadYRqgEMRHMbSvhsnJIBHbjN8J2MdrqOubPDP9rWt3cpL4c8MPHGvkRxIYTeGMthIztJXcehB4JxXYeCvCP9sLpmsJHHNbWDO11e3SnzJ7sZQ7FwGaOLBVByDu/GnFEyZZ8IaZb6jplvdW1jcxZVo7ie6G+Ww4wkducDBy33sE+tWTbPr0zLLHHHeW7lCcj5HPKvz65GT3rs4fD99axRzSTtq0yRbRJcKqyOT96MKvCjp1yScZNeSftc/EZfg18BtY1TRxNJ4q1ALpnh+CCZRcy3cxEaKysOkbuCSO1VJWQt9Djv8Agn54eb4t/tmfGz4kXluRp2jz2/g3Q3EvmW6xW6lrloj0G6Z2yB3FfQX7U3icaL4QhsLeYo9y29wDztXpn2pP2Lv2frX9ln9mrQvDUknmXcETXuq3JxuuLyYmSeQn1Lsxryb9qT4iprGr3k0cytbwYhjANVGyjysWspXPn/8AaR+If9k+A5VmQSRbwB6PuODn061ifsl/CL/hc3xr8P2rW7fYdGZb/wAtORCu8bAfYKOlcb8bfF03jPxlZ6LaN5cdsrG6P8O0Acn1NfZH/BNH4fw+Bfg1q/jrUF2yasXkiJAHl20YwPftnmueN51El0KlKysz4H/4OQ/it/bHxt8O+E4GRrfQ9OaeRQc+XJMyjkf7qL+Br8y5zEWMa5kxj5j0B9K99/b++Mt7+0p+1X4o16FvM/tG8lW2Qt0hj+VBz7D86+ffMCxFS2WycnA61/RfCuDeGy6nCW+7+Z/NXGGO+tZnUmtlovkIcqD0wp9KnsgDLuJAXHSqw4+X+ImrFof3+K+m8z5OpsfTX7BsXm/tAfDcr8u3V1Y8dea/pA8HJ5XhaxVu0K/yr+bn9h3VGsvjt8PW8v8Ad/2vGpweR8wr+kbwhN5/hmxZenkr/Kvxvj6/t6Z+zeF8r4er6r8jWooor8/P1QKKKKACiiigAqK5tY7mExsu5fSpaMc0Aee/ED9nfRviTew3GoyXu+3UqmyQDAPPpXO/8MUeD1/6CR+ko4/SvZMUUrIDxaf9iHwbcJtZdT25/wCeo/wqvN+wZ4JuGyy6ln2mH+Fe40UwPCZP2AvBDf8AQWXscTj/AApq/wDBP/wOq7c6tt7/AL//AOtXuzD5aax+dfwoSGfNvxH/AGFfBeh/D/Wry3/tRp7WymniDT5XcqEjPFfj1+2JHJH+0irbd2bWzJYdv3a1++/xPj3/AA+1xezWEwx/wA1+Cv7ZZ2ftMWoUDb9isyzf8AFfbcCTtjH6H5h4mf7jFre58/6/4hk8OeNtLu3jF1Z2+pJcXNsVz521jge2emfev2kvPjlo/jr9lDwfrUU1v/Ys9pawxSZ/d6ZKoCvDJjoeoBPrX4veNYo5765SRfMXe/bkc+n15r1v9j39o/xN+zpOunwsvijwzq0btd6VM28R4O7cyMDgjHBHp2r7bjzh2riVHGUVdxS0Pi/CniihhYywGIaWrs2z9bfht8OG8eeOtPlt47ebT4ysl3MJEB2AcADOT27V8Df8HBR0XxD8bPA/hPS5o7nVdBspLm+WH5mh8xxtUnOF2hc4/wBoV0F5/wAFa9Q0nwleWvhPwZNoGsXERjOqPcLtiBBHCnuP6V8M+MPHOp6rrGoahqGpSaprurSvLeXhbd5m7kjceuTzxXxvDHCuLxGLU6sWoo/ROMOL8HgsC1TkpTl0uchqcIm1WZkyyu5O7HLD1pzJs2oo+6M8+tSw5VzuZT9BzSSuGTHvya/o6nT9nBQ7H8rV60qlRyl11K5OVbccN6ClTa0uFO09Oads+U8HpjNXvC/hy68T67Z6bYx+bdXsojjXOMsfenWqRpwcpbIujTlUqKnDd7Hpn7G/wL8ZfHv432Gg+A7j7DrQQ3Ml2bjyVtoVI3MWBycHHHev2a/ZW/Z/+MHwyuJLj4gfFlfEUO5Qlp9jTygo/wCmhAIP1r5q/YK/4JTfFL9kn4kW/jmPxJ4be+vNOe3l05w21Vk2nBfYeVI7Cuv/AGiP2FP2kPjnJeLN8W9PbT5WLRadHvgjjJyAMqoyBn9K/BOLc5hmWL9nSlFU0lra7+8/obgrJa2WYJVasJuq3tfT7j6J+Mv7bfwd8AX8eh+IvGGkSTamTam0gU3qsScFZCgIHXkNXwp/wWz/AGLvAfwp8BaL8RPBej2OhTatfxQ6jFZR+Xb6hvQlJNvRWGDnHUEVwq/8EIPiV8EPg5d3V14w8O6jdaSs2pSmMyF3CjcwXK8nA718q+Kf26fiJ+0z8K4/C3i7XJNS0nwhqH2eyiOBlUUhd2ByQOhOTRwvlaWNoVMHV5tfeXbQOLs1c8DiaWMo8unuvqzzbUYN075Xhs9O1Y11a7WYFvwHate5nG5sdMnFZ8ignPUnqK/dIxfKfz5Rk4mYytGg+7TY5GgPyfwnIPv9auTo237vHSq6rtzu4B6Vy1qXNpI9OlWaamtz9hv+CKX7ZT/En4Zw6P4ivpLrUtHc6XeNM+4z20vMb/RWJX8RXC/tnfAGT4d/ETxR4JaydLHVzPqWk3BAKsz5bb/Pivi3/gnH8bo/gt+07pP2q8a10fxIjaRdkybIlaTiKRz2CPtbPtX7GftD+Do/2j/2ZVu7WGKXxr4HImY4BlkMXOFPdWHfoc1/N/HGTvBY98q92WqP6d4Bz1Y/Loqb96GjPy6/4J3/AB2X9mj4uX2l61IsVnqUjLcvLubfLkYye2Olfq/B44tb/wAOW+pXDpNZ3Cxw3EYOfmIxFL/usGKn2Ir8hv2uPho9t4ok8SWNl5cerKjzKF+e3kGdw4/2v0r7T/4J3fHu18dfCm10fULhpmhtDY36SSB5ApG1XIzyBnIz3Ar42NpRTR9zHQ2v2d9Ob/gm7+1HD4Xj1S7uvhL8Xp2k0ppcyN4Y1tif9ECAEhJEOFLHAKV9h/ELwb51taz21uy30MZjtRj5bCIj55XI4DkZJ65wOK+QvjLocPxD8D6h8J/HCf2bq2sQSN4e1dZP3dzImDa3aOvKvHIAT3AcV9B/8E+/2lJvjr8J28L+JltdM8eeDY10rxFpEDNcTJJHlEmZtoysqqHBGQQ1TG17BPucJ4h8H6Xq17YSSWtrJDBKbTTIrmIBLNHlXfcggfL+8VX5ypORxzXm9jY694N8V2+k2+otP4iOsT2Ou63qOx/sNrN5jpNbSD5Y5TaghTnYFGPvcV9HfF/4f32k+IbsabiTUNWXYzgBY9PtRg7Dn5QWAK84++TnivKfGvgnTfFnhm40GzWP/hG7m2l0/UXl/wBXNdZMkKtnj5ZfMQEHBMiAZ7VsRG7PM/hNpV9oWo/ETwrofgDw9p8M0f2q81aO6LWXigBsiGe3U/6I7gkqWwXI9zXcHwhp/wAXvg/pNldaN4q0rwZopuLe4sXFy2rWF1G+VREhJR4th+QZaNRgHrWP4t0OOTxf4S8c39w3hvwjqNyLHUbfAja/dUMBhvFBG6ZiSEJ3bSScjFT+CvD15qHwr15tQ8WyW2n+B/EZu9ImRpIZtOtI1KNY3KqMi3Vk+aU7g3vig1meh674/wDDtna+GdSm1bWodLkMUOkagfNkXUi0ZhePUDtMcamRUXPUnpxWTMdQ0HVbubVby7fxNqFm0cHhm7vW+w6kYHWdJIpiCsc6rkqit2DGrHh/xH4xtX8M+InXR9U8Uajpxtjpy3yLb6zDHIkjXFouNjSFCQqsEIGScVuXNldaR4s13w9Z6M+rL4jnWa/s31FPt/hGOaIRbo03EFAcuzKw4bHNHLrcnRGPpVxo9zpf9i+HNak8U3lvqEqajPcXhttX8PW8u5W2FkDyRIz/AHuS2eOtVNZ1WG08Pw3dr8SLjS9Pj+zvN4vtkR5dYuI90UkVxAEG1lUKhL5wAOp6aN3rX2nw23h210ybTZ7Wwgum+IGnyRvDefZ2TzEuJdw2s2xlCknGVq1BqsPjHxVa6m3h+607Q7CG706bwo7RLbeIJCyXCXcTFgkm5XJYrnLMRzigCDU9VM1rdzLqVi1vNHMLLwwtxDLZ6+4ZZ7e5t3KhUYfO+P4m9hWjBbXQ8RWt0/iVvFDmWG4W2M1v9r8IiVJEmuPNb7yjKqVTp6c1m2+sxakJ/ELaHrP9l6rFZJoehtYJ9p8HzkS2n2lYSdwQEjkAALzwKjg8Mappngew0uPV7i88aPEkUvjGG1iaIR27LI9szKx2qcfxYBJAoGSafPdXWnzR2viiPTreOC3vLnxXAIVh1yXOH82ADeWAULtJ785zTfF8ya14b1DFiJNL0MSfZPCpEDnUWhdZ4bqzAO0KFcsRyWxjHar/AIh0WfV/HtnquhySaP4R0y4uLXxB4dNom7VZZCWLREna/m7xkg8ZrI07V4LQ33iG4kvotCvpLdPDMcWl7pvCTSo1qHMX3jhl2jAIIOaBl59cvtSbSNWvmur7UrsRx2f7u2jv/B6zwFN0mOFUsVOAPlA55PNqy8KT+EfEV1/ZohtdS8TWMd3rHitVifTb7ydiyIy7iQW3MAMAk8nODWSnhLXNJ0y3srrVbe8+Kd4zmz1KeyIt7mxhmWVomO35ZGjIc7gME7c8Vd1PVNG1TWofC/g7zLbSvD1zKPGWlnTis5EyO+9DjDbzkBQ3AfPagCePwppev+CdQ8PtpVlpng+zS6sYvDd9DELi9lD71lsiGABYOec9x1pt14jvrnV9K1SSP7RdXyiw0e8iggS68KRyW+fLuueFZhjKjIA65OKk0/QNI+Ik/wDa13DJrXhO0kgvfCr20OP7ICxhfMuDwWVWXp82aTwraX3hrUtLl1m1t9R+I2oFIbhootsd7p8c7glBjsGDsSB1Vc0WES+H9B1GPWrzT0utJj8Ua5p0Umo61b2YGn3sCTMjRkY5fawwONx9hSt4fh8V/DLS7O1mS38C+HWHnAF/tUrxSfLDbopGdzADdg9Tg4xWrLo3h3TbLWvD9rbXEOlywyXXijUi5WbTgSpAYZyuUTgKeASat6zb2uqeKNLdbe10/wAm0dPDFrCm6KxQI229n4woC7iFbPOO9O2omWtPl1Q+K9T1We4t9Gu7y2S1OorEHfSrPdmK08vktM6/M3QD+fongjwm0SW7RmaSG3iaGydsrGBu7xH+I8kseMn6VU+E/hW3tNLtbr7LJHcI8s7XjKGOoMxwZiueC7DcO4GBXoGkRMLdZLoLuZVEjKf4u7VcdHqZszrjTbrTEM1ixuguHlhY/vEPdlzjPuD1x2r5x8DfC3/htn9qqP4jagk1r4L+GmpSWegW+GhTWLpQBPcyRnqBJ8q5/wCeee9er/tQeK9a/sO18I+FriM+LvEki2scyOFm020Y4luSP9leB6kjmvUfBXg2w+F/gax0212w2Ol24j9jgfMxPck5JNT8W5Wy0OW/aT+IsXgbwJJb79lxfjairwVUdTXw/wDF3xpPDo9xJGrSKq+ZIz9F5G3npkkgfjXrH7UXxntvFHie6mE2NN08bSfvEhT2/wAK+WviPfSfETUVgjuGbT7mQTS7hhUjUcAr+IrOpU6lRjy2ZyngDwTe+OvFsccccy6t4tuls7VVYsYwxwzH0AHOfavrL/gpp+0zY/sE/sfaT4F0aaP+3NY09tPixw0UYTDy/wDfRqT/AIJtfs8zWfjTVPiBrNvDBptvB5enlzuwOhcZ4GAK/Mf/AILEftUp+0J+1j4iurO5N1pOkudM08CTdH5cfDMo9GbJr6HhXKvrmLjF7LVnzvE2arA4Sda+uyPk/wAVa0t9dtcRzTC4Zjg9MA9TnrzmsILg/N8zfTGaW5ucYUhu3OajF1k/NyPav6Jw9NRhZH81V60qsnUlu9R+xg+dw+lW7JFL7sEj1qqNsbjd9ScVat2DSYXhe2K6DjqXsfRH7GcnlfHP4ctGuVOtwgqfXdX9J3hT5PDNmvH+qQcfSv5o/wBjCRR+0T8OVaTav9rwBvqXwK/pX8DJt8L2a88Rrg/hX4/4hRXtqZ+u+FMm6Vdea/I26KKK/OT9eCiiigAooooAKKKKACiiigAooooACMio9uW5qSmsmSTQBh+P4/tHgrVo/wC9Zygf98GvwV/bEhii/aLtJLhfMaTT7Iso4x8gr98vFkO7wzqA/wCnaTn0+U1+B/7ZsZk/aGs5d20HTbPAzwPkFfa8CRvjX6H5j4mf7jBeb/I+f/F9yo1O4wPlZ2257c1n6FrMumXscytHheGB7jpVzxsP+J1cDniRvx561naVo8l8WZVVY4+SznCr9TX9GpQdL39rI/l/D8yl7m99LE2r+JJ9Uvt5P7tW+VQOG9z6msoRvdz/AOrZlyThV7/SuitrHS7CWNWnuL6aT5ljt4vlA+p/wrQ0u5HhySS5bw/r8SsuBOIsqo79uleTLPsvoe7zo+jpcO5tiV7X2bfqcPeSNFJt3fMp9ahWbnb/ABV1DafY+IZ2Wzuo1m6mC4TynHsOoNYOt6XJZXKq0TR+zDFethMwo4iF6UkzzsRga+Gl7OvBx9RsTb+MnArovhFot/r/AMRNGs9LuvsGoXF0qw3J58ps9a5OI5Yq3y+pzXd/s9Mz/GPw4ysy7LxPr1ArHOajjhKkl0TNspo3x1KN92j9M/27fGf7Qf7D/wAHvC2tR/FxfEEerXaae8Z0uKKSJjGzKQR977uOe9ed/Gb4o/thfCH4LQ/EDXPFyx6Oyxt5dvCFkRZB8uV2Y4P86+pv+CqXwH8UftDfB7wBpnhPSZtWuLLXoLq7SFgphiEZBc57DP8A9auy/b3+DXiD4u/sS3nhHw3Z/wBpa4YrWMW6SBd+xhu5OAMV+A4XMsMqVONWnFtyfM7LRXP6JxeU4uVWtKlVmoxjFxSb1dj8mdI/4LFfHr40/BhtP1zxVDJHqhltLiSCxjhZ4+m3KgYJB5+tfJfwdvGuNO8TIY9n/E2Y8+pBr6w0f/gkP8dvgv8ACaSXWPB+2HTzJeT+TeRyrHGBkng5yAM4r5T+DNs9pF4oV1+7qrAkjoeetfpGQxwEZUXhLXT1t6H5lxJUzCX1r65zctly39TauYyvpngCqtz8jbtu3k5xW54gsY7C+KRyR3HyI29enKgkfhnFZs9gXO4ZCtyCa/RE7o/M6dTuZrjfH61X8nP3h9KvPbmNPvfkKj2N+uPpWdSFzphO2xRQeXJuXcuDkYPIx6V+tX/BMf8AbJj+IfwwsbqW5b/hKvCcS2Wr2ruGGrWgwolA67trKCTn7pNfk+0PmSkY3fpXbfs5/GvVf2cPjJpHijSR58llIVuLV/8AV3cDDbJGw91JFfF8XcPf2jheVL3o3aPuODeJf7Lxi5/glufqN+2j+zPpNx8QLjT2XzPDXi6JbzTHAxFbyBcsNw7H2r4o8C61qH7Nvx+MlhD5FmtwLSaEMwTCcHGeoI5x9K/RX4L/ABD8F/tG/BOys7u8Wbwzqbm50S/ZgJNNnJPmW0h7FWJ49uK+b/2p/wBni70i/wD7Dv4BJqWlzGdXhXabyDJVLiNv7wB6Gv5nrUamHqypVFZ7fM/qfD4inWpRrU3dNaHr2rFP2jfCsfh1dSWLUpEF54d1JPma0uV6R5zyr5Cso6j6VwuqaMdX1bSb7T/F9z4f/aA8K6cJZrfTrtrePVWgLsLG7iBzLvVSFJGQJBivnL4bfGPWvgL8UY9N1hLjR9OkmWa1uVfm1YN+7n9PmPBA7Cvo/wCJ3wj0n9p25t/EWkaknhn4w2UAnsb6GbFrrBXkeZg5O7BAbkgnnpXPUg3aSOhSWzPtL9nz416P+17+zXpWu6xa29jqNxHs1jw7Bck3FldD79tMfvbh6HFcd8YvCTeCrG3vry38ix85Y9H0O3kKM0hwoLjuxBwD0UhWAJGa+IvgL+0l4w0n4r6he6M7eFfixYzqnirwpcAQweNo4VwjK+CYp8YAcfeGM8V9TfCj9srS/wBoH7VaXGmN4N8a4mXUfDV8rX2uaZGp+aePcQpiPBDrxj3pwnfRhy21Rpaj4Ys5bxX1K5bVr7xQr2kunXA32ttPuDQ3KRgjbGduHbqxcetcRc+PLz4c67pnim3+H9x4h1rxDpSWPiO4tGaNdLTjzHMeGEqgFSsT8JkgHmuvn0eFFv8AULOa5+wrtf7XqEkbTlgMERKuSNzckNwpwR92ptI0S002423E99DJqTIWhiCm5m4wkjtkbGZApcnJY8hQOK09Cb66nAaS2l+C/A/inw1deD9W+3aDeJqE9tZ308EVxbySSRT3OnSgmRWRSjypnb8wHSu1ufixoPi3SPh3q9nrviCG11xZbNvGczJDNpksBYxQ3iKoSRTu2or5BJz1qlZaZqam+t7W68QWs2rW3lzW9hN9qyVQHzCW/eRSHhsqPnKDcPWhZeI7zRvBMulXfiuxguY5YpbyfWNM8m5vHZihiugqtHOpjPDIQY9uSDSbaDdnZaK1j47+JviXQ47jWPCFvpN9cadNpF8EbSvFcLxmZ1t4cBd0ocnfgnrXL+NPirpHhn4D6J8TNUs9a1DSrW6to9L0A6dC2oeFGPmWxkHHEbbQACMDGetaWo61q2s63oOqSQ/D2bw68MSWegPMI7154TtRrK7GMIyoGVHwxDYOM11Xh6XxJF44161fw34d1LXtYaaC31SxUSwW0IKzR29/AHwJFBwZOgyMdaAsxZdGvtJ8ZWek2/iiNvHniDS7iaz8SPaIU+xwTI621xzglRJhtu3JI6Diqvg3RtNudS8ZeEfD+lXGh6Xp91Jd+IrWeyCW+tCRWEnk4OQzbfkAOByagNrqk3gj7LH4CtZNTmu0vfENtZXbSWxhlQrJJp8mdoYOoOzKlmGSBV7UPHel+Oo9C1CPRPETeEtNhUXWt75ItSsJ4GX/AFxbDFNrtuYBgBuxnNHW4aksFzpviD4N2/jTXobe+8K6fHa3eiL9gEdzpjoQGPysB5XyqcdwDmrrHXvD/i+31aK80FviX4i064GjIYysOo2kTq8RmjBwsmDgsASBVHW/HXh5PGNrNqdprmhfbRNa6dpkS7NP8TxEfugQeCSWwqggkkZAzTrLV9N1G2ulutL8Vx+IpX824siDLceGYni5eMj52jZl52lwWUqM4OANy5beFJb5da0vdo8Ora5NDd+NYUnkC2kb2/7x4JM7lCmPgDALE1HNok3ijT9LjbUrS68FwxW2oWd7CTFdWc0DIiRylTmXcrNuLN0BrDHijwjLpdnef2xrbW9jIg1XxWbTy0QxuUFtcrwASjlArplQd2QcZ1tefwTYT6LDLY+ItH0m+WW10/wzJCSviQj5kWHcdsf3Q2Qy7h170XuUbHhLwtr2k6Zq/jS4ism1qS0ktbXTEi3RalHA7LHJEnAjaUYIGGAGOvWtqx8MeItOu7CzuL6O0k1uC41DXNT4Mvh2P5JPIDkcnLEAEDuewFcx4cvrOez8V3drca7qWrWM01rLPMxin8KIyq32aAYzcOvU7SewzjFaPhnTY11Dw9+58QSfYNLl1C5u7qQGa+kdEVW1CBcFpC2CqAEADPGMVWxD1JtR1u81PTtb8m6tY9EkvFs9GvYUzHeyMi7ri9AIDoDxjodpFd5oHw/utF8W6jdRNHaybVgWURrs1KchcyNxnHX5Qdox0rmvh34Mm0p7j+0II7TVtUu/t99HA4a3kKgLDE6EDaOjEIBx716X4ciewcxzYLbmkkjR8rKx6kBucnPTPSiOorm/pVrDa2cYkjSGFsKyhf3ceOn0B6/jXK/tE/GZvgf4BmvrG0g1LXb+RLXRrFZMS6hK7AYUck7R8xx2U1w37Q/7Xtv8EXt9H0LSrzxl451IYstC0tv3xAxlrgYIiUZzk9ela37PX7P+uP4l/wCFifEye3vPGFzFmz02I77Hw3GQN0cAP8fHzP3PtxTcruxJ037PXwE/4VlZXWr6xqV9rvibW2+0Xd7endJAp58iP+7Gpzhegya8/wD2r/2iJNPebQdMnG5lKOVblyf6V1P7QX7S9r4X0iax0ORbnUHBRpF/5ZDvg/1r4y8a+MZGluryaRViVzLd3Ukh3Me3lgj2xms5SsrI0jHqcp8XvFcOnXfmS/vPsyFI5GGVldjyAOmQRn1q3+zt8Kr34xeLtL8NsZjDrcpur5mBJtYMjIGPu7sDpjisHSfD2qfFPX476K1855pgukWhbe8kueZWH93INfZfw+8P6P8AsA/s7a38Q/G00A1h7fzrgLwd/wDBBGD3J4qKdF1JqwVKnKrs5b/grX+0pbfshfsjx+FfDbQ2Oqa9F/ZtqkZCtBAFxI+PXbxn/ar+fvxpey6zrE1w0isxJP619B/tdftN+If2tvijqWu6peTXLXU8n2W1JLLbRE8IvpgAflXkF54O0+wZY7iSS5vA3zQ2+CSfTPrX7dwxl9PLaDq4hq8j8P4yxtXM6yoYbWMTz2WGSQhiflbtimxx7QzN91fSvqj4b/8ABOP4xfFnR1vPDnwt1ea0mAeOe6hMYKkZGC+3P4Zqh8Uv+Cavxo+FmiS6hr3wt1qG0hBaWe2iMqoo7/LnH5V70eKsvUuRzPmlwnmPs/a8mh8xlyx+834mtDTGy68+2a07rwPuRmh3LcYP7mQYkUjrntWbaWb21xtb5SDyDxzX0GHxNOvHmpSufOYzC1KN4VFZ+Z9BfsT2nm/tKfDjd9063bkj6SCv6VvCHHh+37bUH9K/m1/YjiZP2ifhruVfN/t23dQTyylxX9JnhNmOgws3BCjivyfxEX+0U/Q/UPCeNqNb1X5GtRRRX5yfsAUUUUAFFFFABRRRQAUUUUAFFFFABQTiignAoAztfT7VoOoR/wB6Bwf++TX4Gftp+Z/w0DaqV2rFptop4/2a/fbWONKuh3aJ/wD0E1+CP7Y1rJb/ALQ9i0qj5bG2D7ecnGK+44Dt9cl6H5f4oStgINd3+R8+eINP/tLXJDG5hjhdnkkYcRjvmvV/2OP2N/EX7a/xDt/Dfh5WtdHt2Mt5qEiHy41/icnH5D3ridV0r7Zqv9mhXF1rF2VUZGWG7C/hk/pX7Zf8ElvghZfCP9luxkjsY4b7U5S9xJj5pdvy/oQa+5424kqYSl9XpbtI/NvDbhelj6/t66vFXIf2YP8AgkZ8Jf2b5LPUItNm13XbaPH22+k3Dd/FhB8uD75r6Mu/hj4f1Kxa1m0XS2hZdhX7MnI/KugEOF6U7ygwr8WqYqrN80m7n9H0cHRpwUIRVvQ/Pf8Abu/4IbeD/jNpeo+IPh8V8M+K8PMsBcm1vJD2OeUJ5HHH0r8q/it8F/F3wa8Xy+CfHmlXOl69ZoWtDKvEq9QA3RgcHDDvx2r+li4t8ha+DP8AgvN+zVY/EP8AZeXxra2a/wBu+D5kc3SgLIbd2wyk9SA20+1fTcMcS4jB4qMZO8Wz5PinhXC47Cyly+8lofiNfW/2dpN34jaQa3/hj4tk8G+L9N1WNfMksZ1l2A8soIJ/SpPHWkTTWVvqaxoYbyJS20jJbHJx+Fcxay+RMFXaWJ7V/SUZU8ZheV7SR/L0o1MHiNPig/yP2Gs/+C/nw8tNItV/4RTxE0zRKJELxjYQMEdenWmxf8F+/h7C0iw+EfECsuXA81NrfU1+RzP8qtzuHf0qaGTa7Zz9wjJ+lfE1PDfK+VyXN959nT8U855ow922nQ/UHxR/wcBeEfjV8H9XXTvB+tW76nHNp8az3EZIZl27zjtyDX5TeANUbV7nxdMxRVOqcAcdAQP5mqn7Pty6fC3bx/x+SYOMntiqHwcKiLxUzDIbVDj3+9WfD+R4XAzoyo31bvc7OJs+xWPWJp17Wilax09wpcblPXjinTRsUXksqjBqTZiJT/e6e1Nba8bfN92v0iPmfk6myq37uFl28mqqRsxbHp3q9Kp8v5D35qJl/e/L6c0pbm9OWlykImVgT+lQ3Ctlvl960Aj88VXl5b5l/TrWcoo6YVGnc+lv+Ce37Yuk/BOwvvA/jQSR+EtbnF1b3qKXbTbr7u4rkZVhwfQ819+eI9TX4laXo3hnUrqO41axg+1eGdXBH2XXrXBxbmQceZsYEDqcdODX4565fQ6o42wLFGuAAB3r68/4J1/tP2eq6a3wr8davJbWcjeb4Y1Fjh9OvOixh/4VOSQTwD9a/HOPODVVhLHYZPmWrXc/avD3jiVKccBi/h2i+xsftRfs26l4z0prmxmvNN1bTsu9rcxbZJSDgDDAfIMk7hxx0qn8Jfjv/Zfi7T/B2sWzaXN4fWNbDVAG3QSqgLbzypUsOp6A19TWv9qeLJf+Ea8fP/Z/iyzjddB1H7q61b4/1Lv03kgHacZzXy/+098D5DpV/dabpVxa6hb482FTtNtKD8yuufmHoea/DuaUXyTVmfvi5JLmi7nsHx8/Z6h/ax1jS/GPh/VLHw78XvD9uI4JzIBZ6zGv3ATkDOOjD6GvJ5fi7rPij4r2Wm/EFo/hZ8c/CtlLZaL4luI9tlq0DKQbeUfdeORcgMDnkYIIwcH9nD403Xw51O30DxxdTQaWrs1pqEZ2y2SgZ3AnsScYI7dK+qNY8AeEf2qfhtJpPjOe317S5if7E1y2X/SbHK/KWfHytnGR0PpSlTvsXzNaGT4E/bEsLTV7fRfHXhPUPhfqlqsa2+o3O650XxDc8AeRc/dUtksFbGc4r6d8IaBqWm3015DYvY61fWYkN9IrS4hcDGwBSu7jv0r80fEngz4xfsWai2l+MtPk8bfCtrjy3LEX1sttn5SM8xtjHoOK+o/2I/2p/wDhWTzX3gTxQ/jD4cx2U07eFbu4U6rp85YMsVu0uG2AFhtZyBxjis/aKOkhyp82sT6e/wCEcls9CuNLmtbjT7G7UgXYiLXt8zNyEQH5RxySenpWf4i+D7XPg2+0KKT7LpF46O1lcKl5eyTAqUf5MbE3AZOTxmvVPg5+0f4C+NVnHb2t3b6T4gVE+16PfD7PcwSuu7ZhvvMMnlSRXdax8OrC5jjFrGkMTndJEPlDHoc4654BHpW0ZJq6MtY6M+MvEf7O1rY+L5vFlzp1rcXDFbe70uzuZI0tJgRtuASrBGGAc7toHasPw58N9f8Ah74i8Rz+D7jxEvxDmtY0vtRLRXWnpYlmKxEAjzNkeF3phiwGQBX2TrXw7aCIJZ29uI+Y2znZtK48tgPvJzjnP6VzOr/C2S+1GOO1jhjksiY7ZriMMjQnlreTgggFRtJ7Ac1XKX7Q+U/Bz2+heDrOx0nxl4s0XwXe37z3Wo3Omf6RPfFyqRWjsNvLbgUcdBgZJzXfWvjPXU1tlXxtDDa6FbGSCzuNHkjvNXhwd8c1tt3rEGEf7xQTlsECvR/EPwjs9Ua+s1gls7W+KXVh83/IHvlwcBfuqrYG04Iz3pb/AEhdQ8UaF4saKa11LTw2meIS7EzJHINpZOu1N2DlcfdFLlFzHnK/F7xHqPiPRPEN5rvg3VNW3A2+hurR2+jM+Ffy7nG12XqQwG0riumbxj408O+LNa0M+JtB+1LbC+m8QnT3a5gVchbdbUcyALk7lYjuRyBWtp3wysLL4U+PfBM0UO6GeW9ttqAfaY5RuOePnJ565PNXvC9va3njPwLqErbmuvD0kE7kfNb7U2kqf4MFRnbjJFPltsPmR5wvj7UY/g/qzLeeG9S0Oz1D9/CqP/xPZpNrCS7IXNoA+cBgcgdeRXVP4r8Qf8LgjbVNQM8bWEjwm6tFS201DGN32KYDacnADSYx+lV30dW8L6ta2i/vdb1wP5sg+UwxY3TMep+Vcc5yQKmWzvbvWbzVLhlkXUmEUSKf+PeDBBBB/jYAevGelHQCoukzat4P09Zrq+kuvtkssN6kQhmsIW25aTAZJCSMs5AAPQAGuuTWha6pNc7hJNMiRtOeCyRjCByMrnqTjH3e2azNIihSbzJo5UjkUJFDF8pyexz/AAjAH4V5Z8Y/2wNC8AtdeHvD9rcePvHkquLDQdJU3UiTEfL9pkU7Y4z6lh0xmo5yVfc96vfFVmLZbzWLi1is7eIzXN+8ghhgXP3pHJwq8AZ9q8oP7fN18WvFEngv4S+HtU+ImoKz2bayITFo+kzLkeY1zjbKqkA4TOc4zXDfs7fsOfFz9rzUbjVv2jbr/hH/AAksyvp3gjSLrbbSRHG5LsqSZQWUHaXI56V9yaZB4P8AgF4Qt9NsbfTdD0+zjEcNtbRrHtAHAwPpT5ZPWQXXQ4H9lv8AZTsf2eJdc8XeItSGsePfF7x3ev6rMQsTSqgQJCv8EagYA6nHOTVL9oH9pqz0HR5rXSpwsTEpPduQqe4BPFeb/Hb9pC58V6y1vDJcGzZyltDCvDkDkt+teLa74i0+PQ5rzxdqMkH2cvJZWhfMJI5OVHO5l9aJS0siuW2pJ4w+Ltx8Sbm4usfZ7OxTy7q9eJo1+XlQo/PJ715VNqF18cLS6vhILfw7DceXvb5ZL7BH3R3JPp61U1D4g6h8ctckkZrrQ/BNqMrbwqypcnPyjuSSOMV9dfsbfsax+IVsvFXi2zezs9PkLaTpxYLCsOOGdf73fms4x5vdHKSir9Ta/Y/+BFv4c01PiR4ujh0e3sbbZYxXD+WlnbjnexPc9ea+B/8AgtR/wUmt/wBobxPD4J8Jzef4Z0WfdJOhBF/OOCw/2V7etdx/wWx/4KOx+INQb4beB9WX+x9NG3U3tuEuZweI891XHToTX5b2PiE+IvF9uZeczZkJ4Ax1x+Ga/S+EuGW7YqtstUfm/F3FMKKeFov3nZHW6Do11/aFnbWMb3XiDVmWG0tY1LSIz/KBj+8cgAe9fsP/AME2/wDgih4X+CPhjS/FnxFs/wC2vHFyEvBalj9n0pvvBMfxsO5PGa+If+CGXwWh+N/7fNvq19Cl5Z+FLaXVXWTkLIMJF+ILAj6V+9UcHH8S1ycUZvUnW9hT0SOvhnI6dOl7eort9yOxsVtbYRxokcartVVXaB+VFxZLNbtFJHHKjcFWXcCPoasIuxccn60OK+Nvrc+zsj84/wDgpR/wRO8MfFXQNe8cfD6K40fxhhruWzVs213gl22jGVY/l2xX4q+P/Cd54a8SXVnqEH2fUbGTybuJuCHHcCv6wLmFZIWVvmUjBHrX89//AAWY+EUHw7/aivtQt7P7HHd3k8MoI7hty/mjKfpX2/B2d1aGLVCTupaH5t4hZLSngnior3onnP7A0TXH7THw1XnMetwKCewD5r+krw4ANIh5z8or+bX9hEY/ag+Hq/OyrrcB46A7q/pK8LPu0S34/hA/SvS8Rv8AeKdux5PhNJ+xr3/mX5GpRRRX5sfsAUUUUAFFFFABRRRQAUUUUAFFFFABRRRQBV1KIyafMD/zzbn04r8IP27NLOnftGR/vA9vHZwKZV/ix3/Ov3h1MhtOuFz/AMs2H6Gvwh/bqEkXxzhjjRv3NtAAScgkE/5NfacDytjJPyPzLxPX+wQt3Z5L8O2SX9q3w7HcN5kaBcAjjO9v61+7v7E19Fc/s86THH962lnRhnofNY/yIr+erxh40k8GfEqy1mBts1nLsOONhVsj8CSa/Xf/AIJLftlaV4w0WHw/dXUaf27+/s3Zs7bpVxLCT2JxuHrzXd4g4WrDEQqvZpHieFOMoqhKgn72v5n39HgrTs4qJG6bjQWzz/Wvzz1P2jYdNyF9zXjX7f8Apdrqf7GPxNjvArQL4du356BljZl/UCvY5jjGa+K/+C2n7S2m/Cf9lO98Jxzq2ueNsWkMCH5liDAuxHXBxt/GunB05VK0YwWt0cmNrQpUJzqbWZ+KXiW9aw8C6Wyu3mRyl0GPugE4P/1q4t9Qk1G7muJmzNO5YsFC5P0AArpPiJqsgsLfS41/d2IVmP8At45/nXLac5uJd23OOvvX9Z5Ph3SwsFLsj+Ps5xEKuKqVYbXNVWZIxnljjmtXw3eWum6xHNe2P2+1jjYtbmUx+YdpxlhyOcHArMRQNo/EinvuEMjRqGdY22j1ODiu+tFumzwaMrVE/Myvgle2tz8K42t9NitJLe8czSCdmMmcAAAnj8KwvhPr9laah4ks7i4W3nmvzKoblWGWrT+EenW8fw/Xy5JZphuZoVxnzcnO7PQDj3NQ3fws8Lx6xdNdXFpPJvJaSO5ZVdjgnHfua+So+7ShGlJc0ddT9BxUYe1rSrRbjO3w+R0Da7pjjb/aVvuDbcYNNOuaWkW7+0LY/TOTWLF8M/Ckbbogjf3s3ZOD+dQ/8K48JnKs8G1f+ns/412/XsZ/NH7zxPqOXX/h1PuN3/hJNMWPP9oW/J5GDxUcPiHSfLZ/t9vtzjPNYcfw38H7j81uB1P+lH/GpI/h54NS2kXbZszsMP8AbD8o57Z70PGYxL44/eV9Ry3pTqfcakviLSdu4alB8p9DVV/FWkyI0n9p2+F9jVM/DXweU+X7KdvUfaT/AI1C/wANPB6bl/0X5e5uTzWbxuLe9SH3mkcHl6+xU+40IvEWkzRg/wBpQ4P+yakj13Tlkj2alArLyCMgisd/h74RUfL9jX0BuiKP+FceEZE8z/QeOP8Aj5Oal4nEyVnUgdEcPgItSjCd/Q+wf2Y/+ChOl6jptt8PvitrzeIPDl+6RafqcmftmjOflQq4wdoODycjGa+sfjDBJ8IrtdL+JH2rVI38q303xbYAM0cTYEJuRnEvUfNgnnmvyPtvh94PR2KvY7mOWAuz19TX11+zf/wU01D4U+A4fBPixtF8ceAUUW/2W8uN17aRdAsUrZOF64JxxX5XxTwfKvJ4nDuCfVLqfrXCnGlHDxWGrRnbo2j1/wCM/wCzRb6pJNDqy27XDok0cyu3lajDngqV5XJ4IHSvLfCPjTxX+zd4jvI7VWutF3Kj2LTbo7ZDnC4YZIABbdnI4r6L8AQR/EHwDH4j+G9//wALC+H9u7mfR2lA1jQpDglI36jB6KflPYmsTW/Aeh/Eq2uDayzfbLVZfMtLq3VdSs2ZcFJI8gSDOBuBPANfk9SnPDv2dVao/YKdaFWCqU3dM7D9nf8Aa60X4s3Fxo4vmhuFQQvp1/GJoJc8Fdx7fXNYvxr/AOCZ3hH4keJnv/C81x4B8Q7vOaK1ZpLKZuu5QGymSeg49q+fpPgHJ4cupr3R7q5kuFiZs242hHXs4JyBjJ47gCuu8K/tu+LvgmsWm3lrLr2ksBGkxQG6C9+M8Y+vpWfxbrQ1afQd4qs/i5+yfpUV38RtKs/GWh2t39k0/UhIFu4HAySJFG8Ag8Ht616v+z5+3RfPp8beFfHniTwipY/8SnXFGsWLO/G7dIfOHIyAJAPaut+Gn7Vfg7406DJppvrS6aOPc2nazC374HOdpwcbcHJPtR4p/Zb8C/ETT4prHT4NBvGlMhuLIi4hfjAjbb0Xv04yan2SXwlup0ke5ad+3N8RdFsPtV34K0PxRpsIUC70bUjFcTqcF5PKkXC/xEKH9Bmqd3/wV8+FVilzb69d+IPCV5Cplli1HS3kWMB8Abod2SQwNeGxfs2eIfCsCw+Hdcjk24PFyYxx/dA6Vl6zp/xQ0NWhvLVr6FX+ZJraO4U9fUdOaI06hPNDqfV3gn9uf4X/ABplhh8PeOtFvHnViqMjQMVCCQgiRR/Cc4P4c11v/CUWOuRyyW2sabcQ2oe1uHNyhEe3G9GyfmX5hxk46jGK/OzU/DekNex3GrfC/wAHy3QbLzvpCRu5Puo75NGmaf4T0EMsfgrSbeGV3Z4FeYRyFhhiyg8kjIOetVy1A9w/Q2Oaz86G8fU7GCbTcRYku03GLcUZGOf4CGGfTFc941+LXg34WaLNda54i0mzsdNtdsxWcTOE3yGQBUy38PQetfCeu6v4X1G6X7Z4Q06ZpEVWV3nbzd3Xdn72c5OepJqfQtM8JxeII76x+Hehx3scyb2j0kO4A4DDzMDOan951Qfuz2HSf+CvPwp+J2uX2i+CrPxh4lu7GQWyeRpRtobjgkBWkYfKMYyeM84rrPAfxD+M3x2mlTw78PtJ8M2alX/tDxJqRl2KwJGIIhgtjgjd36123w20vT40S51TTbTS7OTTzuilmt45pX27h5cUO4jjPykjNdd4W+NGj6NYwfY9FvLi4j4UXRCjAHU5J/IDNVbuTKTtZHO+F/8AgnDqnxa0eO4+KfxK8W+JPtDmRNM0i4Oi6ZaruYhAkGJHwDty7EkAZr3j4c/Bj4b/ALIHg+Ox0LRNJ0G2xz5EC+bKevzN95j15Jry7Xf2uNcRDGv2WxVhgeUu1ceu48/kK8w8b/E/UNUmS6v7xriBVyfNbcxY9Np9BgZHetE1HYlRb3Pbviz+2YmkrLbaYgg3ADzX5fngEAV4P428Z+IPEPiK6XULpYbWOMk72LOW/vAg9xXnPxI/aC8MeFNP+0TeXeaqr7YYYlEkynj7w7ZzxXnut+MPGnxY0y+dtvhmwmIkiuLhSskvT5FUZO481ErvVsrZWSPRPEHx30Pw5qNvpMn+gWmw/a75QZ5cnJBHcZOF+XHWuCi8GXHjPxHY6hrvm6g19eFNI00HCoD9wtj/AGc9c9a6L4C/sseJviZqSw6Lo8shjXL6rqcOVBPPC9SOe9fSWs2Hwp/4JteAf+Eu+JmtWt/rqx/uLb5ZJpXAzthjPfgjJwOaccPOUk3t26kyqQSbW5v/AAF/YisvBUS+J/HE1v8AZdNgFxHZKojt7cqN25scNivi3/go/wD8FmtZ8U32qeD/AIbzto/h2FGtpr1VAmux32H+Fcccc4rx39ub/gtj4y/am8OzaPpNnJ4N8LXDskdtFKftF5F/CZWGMcfwjj618Max4hm1W5kmaRl2n5V3dvpX6hwrwbOovb4uOnRf5n5ZxbxxTw6eHwkrz6tDPGfi648QXU0skzOkzFzuPLk9zVHwPH5uvQbT83zHB6dDVPUwZgoU/eFR6HfyaLqkciEM0LA/Wv1mWHUKPs6a6WPyCOJnWqe1qyu73Z+pH/Bs9rtvb/tF+PtPYj7XcaMk0R7squgP8xX7VRHKV/Nb/wAE6v2sl/ZF/aq8P+MpllbSFdrfUVj6SW0vD8Dk7OGwe61/Rr4C8eaX8RvCOn65ot9DqGk6pAtxbXELblkRhkHNfz5xBhalHFv2itc/ozhvGU8RhFyPY36ax+Wo1kP97PofWkkkAH4+teGfQCTPyVzz1xX4U/8ABeTxlBrnxTkkVQLi61ScR7edwi2wk/klfrh+1h+1lovwG8IXtrFdW914ouYStpZrIC0QII86T+6ijLEn0r+fr9uH45w/G/40tJb3H2ux0Zfs8cpOfOk/jf8A4ExJr6LhLB1MTmdNQWkdWfC8fZhTo5ZKm2ry0SN39gq4Ev7T/wAO49xX/iewsTjqCRX9IHhX/kEx4/zxX84f/BP+yWT9o74eyP8Aw65D0PJ5Ff0eeFo9ujoO2M/pX1HiPpiKS8j5XwhlzUa7/vL8jWooor81P2QKKKKACiiigAooooAKKKKACiiigAooooAp3/8Ax63A/vKR+hr8Nf287N7P4/lVDblt4lAI6nca/cu4G7zF/vDFfi1/wUc8Ptpf7WCwyQuP3UajA4X525r7PgeS+vcr7H5b4sS5crhL+8fGvxL8Jtqct5IzJ8uenUkEk/zqT9l/9oWb4Ga3Np9/9oXTLxwUuYW2yW0gO5ZFPZlP6V03xC8P+f4jaMu0MDXBDSf3f/rZry7xL4buhd3f7triNZSoXZjzB/e/rX7TmGT0M0wrpVvl5H4vl+ZVMvqRxOE3P21/ZT/4KzaH4q0Wys/ElxbXTxxBUvLGQM0gHGZI2O4HHcZr6W0v9sD4c39jHN/wk1lCHGQswMbD6giv5rdB0680SdmtZLy0ZzsJGTx14HauqsvE2tK/l3Gvak0P3W5bp6c1+X4jwzxUJWo1Lrz3P1HC+LdLktXp+8fuR+1L/wAFdvhf8AdBuDY6gfEmubCLaztfu7+xZj0H0zX5DftNftUa9+1P8Vbnx14sdYWUeXY2kefLjG0hQqk8KDzn1zXk+pXv71fslrJLNyPOlfewHoB2I9aydUt9RvIftFylxIzZUFucYr6zh3gOjg6qq4iV5I+W4m8RsTj6boYeNoszL+6bULqTzCfMfJOaWytip+7tyang0yVnX90+4D05q0lrNbqv+jsPXIr9Uc4KPKmfk9WUndJbkLKSudvC/rQkpjcSZGR0FTSWszrhVbJ5INQ+RcDfmJ8qOeKXtI7GMYT3sc/qnwwtNQ1CS7hu57NrglnSM/KT7elQSfBbQw6SLLfFsY+aUfe9+K6kWsyR7vKf5vamrb3Eq4WMsFPHrXnSy3Cyd2j1I5pjoqykzl1+EelRBh5l8u772JBz+lJH8HtEdRu+2bTxxIP8K6aS0nJ27W3enpUiWDCJeGV+eM1ay7CLoN5vjUtZs5hfgpoeQm28ZgOfnH+FOb4A6HbNum+2qq9fnHXH0rqIraSJQ2w+mc9KtGOW5mVQWmZvlC5yfwpf2dhX0Rl/bWNvbnZwp+DGgk5/00ZPH7wf4VHJ8GNEQ/Mt59fMH+FdxNplzDlZIZIwvJDDGKibTZpl/i29s0f2fg/5Ua/21jVo5s4tvgzocq7mF5u6f6wY/lSw/CXRQjKv2tVYbCPMH3evp6811X2OYK3ytt6Gmrp03m7fL+bjHvT/ALPwv2Yo1Wb422k2cqfg3oSj5Rd5HX94P8KX/hU2iBtm25OT2lH+FdbJo94pGLdtzcDHrUmqeE9W0K/e3u7FopojtkHXaT71k8DhU9Yo0jmOPavzsv8A7P8A421f9lvxta+IPB+oX1hfQyrKVecmK4A6K6DG5favt/w1+294C/a3k0+TxVJb/Dn4i2zKkGqxL/xL7uU/3zwUz1OTXwbJpc0ifIp3N270xtDunmRRCzN/dA3HP/16+dzjhPLcdTcZRUX3R9DkfG+aYCqmpcy7M/TP4mXer+GtHkl8baD5ekTED/hJvDii4t5N3KtIq5KoR3zxXI+JP2dR8T9FivNOmt9YtljNwtxYyKcr6sh+YY/Wvjv4QftEfET9nLUy/h7WtQs0U+XLYXLGS2cHqGib5c9R0zzX0x8Iv2sPhp8btZ8zx9pl58NddjYsdX8PSSQQXB4xuhUFTznJ9q/Hs68P8Vg/eoPnj5H7jkXiTgcevZ148kzAu/hnrXgfV1utL1JhqEXnQzttONki7MHp/Czj8BWb4G+IWufBDWmtdHvL6MxsVjEwZoZ3I3MTzj2619P+IfDeraxcWs1l9g+I3hG4Te2rWsiC8t8j5Qyp85P4cVjah8EtE1vTvs9ndX2jXRORb3/z7j053AEg5xivhKmHq03aorM/QaWKp1EpU3dFTwZ+3Q+qWKx6xYafDfWMa+YIoWRpgWAyx529ep9K9R8OftR+GmmVry+ktiybo7czKybcdS3uc44rwbWP2V72/vb+GbSIJbWeEDz4roKZMEEgrn2rmbz9mzS9KDR3UerabMmNxSMzr6ehrCTaOmLTPqTWP2l/hyJIYbnUNPjkmG5VvVwxHpu6ZHp6VsWmv/DfXmtVh8QeHYYbzBWSadY97EHpnoPc18Y337O9rplnI1tqwvpocAxz/LJGp78n6c1Dp/wHXUHaaS901kt5hIGaVAzDI+UDOOBz0pe1fcPdPsyRfh9b6vp8c2u6TC0yK8Mks6CEKxIBLHtnODUvh34z+CZJLy4W+0NtN0dgl/fcSRWztnYHYepGBXxhqf7Mttqd5HdSXiS28b4lzOqoF7EjPQflVzTf2dfDvh65uFlv0W1uGM1x++G139Qq8Y7Dr61XtW+oez7H2ppf7R3hPWdDkezmtdtoHbzxiNW+fqmeXGOeOlcT4l/aZ8LaPm2bUrdWUrM6gZkB6jH1zXk2gfCrwTpmh2rXniC8FipBht7bdIxLEDkL2BqPUvhxpOjeJ47Tw/4SbVpXffJeXrFkCD+LB+9jOMVnzNhynR+JP2tbjxhZxroulXmt28KmFJVXKRqOgB79e1cb4kt/E3jx44/EF9H4b04fPDFA26aVcg56gj0xivbvA3wE8aeKhDJo9jNbRKcPGgS0jt0POfmHb25r1vw9+z58I/2edJh1n4heJbaXUNnmTi5uRgMQCQMklsYx8pFbUqM6jtEzqVlBXkz508D/AA4j8Xa20fhPwzNdX168bJLNFwhUYBPGTzycV9LeAf2Em0eSPxJ461LT9GhtIQZw0oWNFAGWAPCnrzk14t+01/wWP8K/BjTrjRfgno+k3Uxjx/aDwtGob2BALY+tfnl8ff2vvij+0NNdXHiLxRql55zjFmtwY7cL7IDj86+syvhPFYn3pe6n3/yPkc34vwWCX8zXRH6eftVf8FrfAP7NmnNoPw3t7XxHqMK7GuwQtoCOOD1c8dsCvyR/aN/ae1j9pT4n6h4o15lvtTvmxhmPlQjqAiknGPrXBXehahc3ayXS7lYnIDghe1QDwjMs74iZlPMZ3Dmv1bJ+EMFg4qT96Xdn47nvHWYY6ThFckOy3M2/v5LyTdJtbbwAOi1XEWT9a2B4UuFZlaM52/Lhh1pX8I3Uce5kX67hX2FOMFofCy9pOXO73MRrEyQAMuVXkY/Cs+ayw7sVx9K7S18I3BX5vLj3JwNwy3NSar4EkLxrajK7FJyw+93raNRXtc0i6q3RyukXxt7hY3ZxHnKsP4T2/Wvub/gnx/wVv8VfsbeGJfDr29nq2gTTiWKC4LHyM9Sh52r7Y6818X3Hw+vIr9V2hhIecMOKsW/hXUNLAbZty+1QCOfw9K+dz7hvC5kvedmfTZRxJi8s1p6n7zfD7/guF8J/F+ktNcrfafNHFuZHdPLZv7oJI9+cdq5X44/8FuvC9v4ZuoPDEtnZXEkbBL29l81kGP4Y06nsCWFfipZaLcQMxlhdtwKFUf0Gc/Sq9zonn7iwaVTxjJKj8K+Ffhr7+lXT0PqKnitWjHldOz7nu37SX7empfFDQtU0fSRcD+0pjJc6ndEm6uC3J+bPC+i88V83W8P7pVXLMp3O5/iPrWwPCdxJtU/IJDuUAjH5Voaf4EuEfPl7gxxur9A4f4dw2WxtS37s/N894or5hL2mJe2x7h+wbYrY/H/4ezSbiW1qDbgdt4Ga/oq8Kzedo8RH6j2r+e39jDTZLD43eA45FP7nWYDuHUZcV/Qf4QQR6NH17dfwr878SP8Aeafkj9K8Ga8alDEOO3MvyNmiiivzE/cAooooAKKKKACiiigAooooAKKKKACiiigCOSANlv6V8V/tY/8ABM+8/aW+KMniH+1m01mj8ox7BJnaxII5GOtfbFQyRhCuO5wa6sJjq2Eqe1oOzPJzjJcLmdD6vi480d/mfmDrX/BCLWNYWSN/Fw8tm3YW2AbPqTurIm/4IAapKylvFzFVGCVthuP/AI9X6puMN9acFwK96PG2aJWVTT0Pn6fh/k8NoH5Sn/g371AwsB4tvN2ev2VP/iqZN/wb/aoyFf8AhLbxh/tWqdf++q/V/bSYpS4yzTrUNP8AUPKOlM/KRP8Ag391cQ/8jVJ5n977MvH/AI9Qn/Bv/raynd4wbZtKkG1XH/oVfqx13UoXcoqf9cs0bu6hX+ouUr4aZ+Uq/wDBv7qk0TR/8JQVZm4lNqu7H4NTLn/g331pEVV8YzMB3Nsmf/Qq/V5Y+PrTVG7/AOvVx4yzX/n4L/UTJ/8An0fk/c/8G+WsSrhfF0zMvQ/Z0/8AiqdF/wAG9OqsrLJ4wmjyO1qjbvb7wr9YNu1P1pGGX+gzR/rlmv8Az8HHgPJ/+fR+T0f/AAb0at5qhvGFxsUYOLZOf/HqkH/BvJfCdceMrxVwckW0W7/0Kv1dI+fH40bQHX8aFxlmr/5eMP8AUTJ+tI/Kyb/g3kdYY2j8aat5y8v/AKLDhv1qpL/wbrNteT/hNNaaTBIX7NDx+tfq+qdevX1pSOPpR/rjmv8Az8M5cB5M9PZH5NWP/Bu1NJIy3HjLXUjxkCOCDP8AOrFn/wAG7Z0vVY7i18aa/G8Lb0cwQHaR04r9XHTJ/HtSAEu2OKP9cc1/5+B/xD/JU7+yPym8Qf8ABvTeeI7szXfjjW5pupbyIV7dOKj/AOIc2LyFT/hMfEHmevlw7R+tfq4ynPWjy2Hf9aP9cc1W1QJcCZLLV0j8rbP/AIN1LOAsreM9e2scn91BULf8G6Mc0gJ8X60yq2Qxji3EV+rLxEt8x/Sl8sjo1H+uOa/8/AXAWS/8+j8r3/4N17Uyqw8aeIlXIyqrCMfpTrr/AIN2NPfaq+NvEjhufnWEn+VfqhioiwVc7an/AFtzRv8AiM1XA2TpWVI/LJP+DdDS41Yf8Jd4jbuCPK+vpT9P/wCDc3RbeVZZvGnipWzldnkZU/iK/U1JA340EADoDj1olxZmn/PxjjwPk619kj8sbr/g3V0lrxpf+Es8VTSSsS7tJFlvfpQf+Dc/RXCt/wAJV4mVl+7+8h5/Sv1NDcFj2pVjAb/d6UPi3M2re1ZX+pOTp83sVfufmj4S/wCCD3/CATw3Gj+PPHWn3UDiWP7PdxxhW9eBXrnhn/gn3450hXW9+IHiDXVkYHbqttaXWzHoSob8jX2mBijbz715eJzSvX1qu/yPXwuT4fD/AMG6+Z8rj9g9bqZXuoTHMvHm2cpiJPrsJK1S1T9gzWHuGa11m4aM9I7hI3H4kAV9bAq7AYpxRVGcdK82Uk90erH3T4jvf+CfXixJmMbaLchuDviwXHbnnisOf/gnH4kknZm8P+G38w7mYquTn3xX3spGOmBSqPMPP8NQuR6WHzM+AYv+CaevK8ay+GvDc0Kkl0aT92w9wOc1o6R/wTj8VQytt07wlZdoyY2kUdOq8cdec5r7uaJevp71COdvvTUY9g5mfJPhb/gn7rGmWfk3t9pKiTPnm1tNplXqFyzHaAfQZrrrT9jsaTex3loqxXUGNrIFRQRxnA5/M19EMMH68UqDIb60ciQtT5Z8Y/sTeJPGf2hZvHXizS4bgnculyW9sTnjJbYST+NeOeJ/+CE/hzxpq5utY8UeOdVmY8vd6mkjDP8AwH+VfoVJGGToOPUU1Tn/AIDXdh8dVor927HBictoV/4up+c7/wDBvp4BDZGoeJpOf475QT/46amm/wCDfv4dmFEFz4oz1JOoKQD/AN8V+jHkr/k00j/Cu3/WDHpaVGjzv9WMt39mj87Yf+DfT4arBte48TSMev8Ap68/+O05P+Dff4ZqP9Z4kC9CP7QHT/vmv0MbgkU5W3D9KP8AWDMP+frJ/wBVcqvf2KPz0H/BAP4Wpu+XxE2MAD+0AMfpU8v/AAQI+FjQKoi8R7lHT+0RjP8A3zX6CFf84qXaM0/9YMw/5+v7zT/VfK/+fKPz80z/AIILfC21iKyWniCR26n+0en6VJa/8EHPhbDcsz2fiFlY4AXUwMf+O19/7BnNLjNT/b2YX/iv7w/1Zyy38FHwHaf8EJPhXBchnsNekVWyA2pf1xVjUP8AghX8J7vZt0rWIiOSzamWz+lfemOKjkG5vwofEGYdKr+8P9Wcs/58o+EbT/gh18K7Q8aJfzcbT5moMR+lLB/wQ9+FUW4Hw7M/PBF+6/pX3aiA04xqT0oef5h/z+l94pcLZU96EfuPhW3/AOCHnwnWTc/h+44bGPt78CtCL/gib8IYAuPDtw/f/kIOOa+29gHakMSkdKP9YMx/5/S+8h8J5PJWlh4/cfJPgb/glP8ADX4deKLHVtM8OXEd3YypNGzX7vtZTkcH6V9VaXafYbOOPuoAyKuCMCgRgVw4rG18S715uXqehl2U4TApxwlNQT3srDqKKK5T0gooooA//9k=;imageBorder=default;direction=south;labelPosition=center;align=center;" parent="1" vertex="1">
          <mxGeometry x="-109.94999999999999" y="-840" width="80" height="154.13" as="geometry" />
        </mxCell>
        <mxCell id="aZVy_YJEkJ1AmMruKeH3-26" value="LDR" style="shape=image;imageAspect=0;aspect=fixed;verticalLabelPosition=top;verticalAlign=bottom;image=https://cdn1.npcdn.net/images/1520307846d5859b778c7036fa36a3ca60dbe71984.jpg?md5id=88f5117f17105532ce02ca3f132c6628&amp;new_width=1200&amp;new_height=1200&amp;w=-62170009200;imageBorder=default;labelPosition=center;align=center;" parent="1" vertex="1">
          <mxGeometry x="-19.95999999999998" y="-788.44" width="80" height="80" as="geometry" />
        </mxCell>
        <mxCell id="aZVy_YJEkJ1AmMruKeH3-27" value="Sensor Api" style="shape=image;imageAspect=0;aspect=fixed;verticalLabelPosition=top;verticalAlign=bottom;image=https://1.bp.blogspot.com/-JhTwc8LZTsY/X3ACbS431YI/AAAAAAAAEXA/C-IJ2vLLlI8Nt0ZHjLeHEC9Zl2OSUIavgCLcBGAsYHQ/w640-h640/KY-026.jpg;imageBorder=default;labelPosition=center;align=center;" parent="1" vertex="1">
          <mxGeometry x="70.04000000000002" y="-788.44" width="80" height="80" as="geometry" />
        </mxCell>
        <mxCell id="aZVy_YJEkJ1AmMruKeH3-28" value="Magnetic&#xa;door switch" style="shape=image;imageAspect=0;aspect=fixed;verticalLabelPosition=bottom;verticalAlign=top;image=https://i0.wp.com/randomnerdtutorials.com/wp-content/uploads/2016/02/label.jpg?w=703&amp;quality=100&amp;strip=all&amp;ssl=1;imageBorder=default;" parent="1" vertex="1">
          <mxGeometry x="71.88" y="-458.81999999999994" width="78.16" height="80" as="geometry" />
        </mxCell>
        <mxCell id="M7h0rrMAaYI95qsz9Wyr-2" style="edgeStyle=orthogonalEdgeStyle;rounded=0;orthogonalLoop=1;jettySize=auto;html=1;exitX=1;exitY=0.5;exitDx=0;exitDy=0;entryX=0;entryY=0.5;entryDx=0;entryDy=0;endArrow=none;endFill=0;" parent="1" source="M7h0rrMAaYI95qsz9Wyr-1" target="aZVy_YJEkJ1AmMruKeH3-1" edge="1">
          <mxGeometry relative="1" as="geometry" />
        </mxCell>
        <mxCell id="M7h0rrMAaYI95qsz9Wyr-1" value="ESP32" style="shape=image;imageAspect=0;aspect=fixed;verticalLabelPosition=middle;verticalAlign=middle;image=https://docs.nanoframework.net/images/getting-started-guides/MFG_ESP32-DEVKITC-32E.jpg;imageBorder=default;labelPosition=left;align=right;" parent="1" vertex="1">
          <mxGeometry x="-389.96" y="-650.3199999999999" width="143" height="143" as="geometry" />
        </mxCell>
        <mxCell id="M7h0rrMAaYI95qsz9Wyr-3" value="Buzzer" style="shape=image;imageAspect=0;aspect=fixed;verticalLabelPosition=bottom;verticalAlign=top;image=https://camo.githubusercontent.com/0ca39b13c5f7d7fb7994484c83d5629a721d2a1abe75efe377701523f8035083/68747470733a2f2f7777772e676f74726f6e2e62652f6d656469612f636174616c6f672f70726f647563742f63616368652f736d616c6c5f696d6167652f323536783235362f62656666343938356235366533616664626561626663383936343161343538322f622f652f62657631385f315f312e6a7067;imageBorder=default;" parent="1" vertex="1">
          <mxGeometry x="-199.95999999999998" y="-458.81999999999994" width="80" height="80" as="geometry" />
        </mxCell>
        <mxCell id="M7h0rrMAaYI95qsz9Wyr-7" value="Lampu" style="shape=image;imageAspect=0;aspect=fixed;verticalLabelPosition=bottom;verticalAlign=top;image=https://d2xjmi1k71iy2m.cloudfront.net/dairyfarm/id/images/888/0988838_PE818254_S4.webp;imageBorder=default;" parent="1" vertex="1">
          <mxGeometry x="-109.94999999999999" y="-458.81999999999994" width="80" height="80" as="geometry" />
        </mxCell>
        <mxCell id="FumTjgW1J3t4SkrAZQBk-1" value="Kipas" style="shape=image;imageAspect=0;aspect=fixed;verticalLabelPosition=bottom;verticalAlign=top;image=https://myhartono.com/images/detailed/311/KLB18.jpg;imageBorder=default;" parent="1" vertex="1">
          <mxGeometry x="-19.95999999999998" y="-458.81999999999994" width="80" height="80" as="geometry" />
        </mxCell>
        <mxCell id="K0uqmVBwROejImfsM0ea-28" style="edgeStyle=orthogonalEdgeStyle;rounded=0;orthogonalLoop=1;jettySize=auto;html=1;exitX=0.5;exitY=1;exitDx=0;exitDy=0;entryX=0.5;entryY=0;entryDx=0;entryDy=0;" edge="1" parent="1" source="K0uqmVBwROejImfsM0ea-4" target="M7h0rrMAaYI95qsz9Wyr-1">
          <mxGeometry relative="1" as="geometry" />
        </mxCell>
        <mxCell id="K0uqmVBwROejImfsM0ea-4" value="Telegram" style="shape=image;imageAspect=0;aspect=fixed;verticalLabelPosition=top;verticalAlign=bottom;image=https://i.pcmag.com/imagery/reviews/04SPR60EVOFwPWjuw5pLLNb-28.fit_scale.size_760x427.v1615506318.png;imageBorder=default;labelPosition=center;align=center;" vertex="1" parent="1">
          <mxGeometry x="-397" y="-788.44" width="157.07" height="88.5" as="geometry" />
        </mxCell>
        <mxCell id="K0uqmVBwROejImfsM0ea-29" style="edgeStyle=orthogonalEdgeStyle;rounded=0;orthogonalLoop=1;jettySize=auto;html=1;exitX=0.5;exitY=0;exitDx=0;exitDy=0;entryX=0.5;entryY=1;entryDx=0;entryDy=0;" edge="1" parent="1" source="K0uqmVBwROejImfsM0ea-7" target="M7h0rrMAaYI95qsz9Wyr-1">
          <mxGeometry relative="1" as="geometry" />
        </mxCell>
        <mxCell id="K0uqmVBwROejImfsM0ea-7" value="Blynk IoT" style="shape=image;imageAspect=0;aspect=fixed;verticalLabelPosition=bottom;verticalAlign=top;image=data:image/jpeg,/9j/4AAQSkZJRgABAQAAAQABAAD/2wCEAAkGBw8QEhUQDw8RFRUVFRcVEBYWEhUVFxUVFRUWFxcVFRcYHSggGBolGxUVIjEhJSkrLi4uFx8zODMsNygtLisBCgoKDg0OGhAQGCsmHSUyLS0vLTctLS8tNystMC0rLS0tListLS0tLSstKy0tLS8tLS0rLS0tLSstLS0tLS0tK//AABEIAOEA4QMBEQACEQEDEQH/xAAbAAEAAgMBAQAAAAAAAAAAAAAAAQYCBQcEA//EAEIQAAIBAgIDCgoJBAMBAAAAAAABAgMRBAYFITESMkFRYXFygZGxBxMiNENSkrLB0RUWI0JUYpOhwhRTgtJE4vCi/8QAGgEBAAMBAQEAAAAAAAAAAAAAAAEFBgQCA//EADYRAQABAgMDCAoCAgMAAAAAAAABAgMEBRFRcZETITEyNEKB0RIVIkFSYaGxweEUI1PwM0Px/9oADAMBAAIRAxEAPwDuIAAAAAAAAAAAAAAAAAAAAAAAAAAAAAAAAAAAAAAAAAAAAB86laEd9KK52kHma6aemXlqaZwkduJo83jI37Lh8KsZh6em5Txh8J5jwS/5EOq77kHznMcNHfhhLNGBXp17E33RDzOZ4WO/9J8iOaMC/Tr2JrviCMzws9/6T5Mo5kwT/wCRHrUl3oPUZjhp78fV94abwj2Ymj+pFd7D3GNw89FynjD1U8RTlvZxfNJPuD703KauiYl9Q9gAAAAAAAAAAAAAAAAAA82Nx9Ggt1VqRiuC71vmW1h8rt+3ajWurRWMfneK1UKTf5p6uxLWFPezqnot0672kxOacZPZU3PJGKXeFfczPE197Tc19bSNee/rVH/m7dmwOWvEXa+tXPF5Xr1sPjMa84AAAAAABYGkPRSx1aG8q1FzTlbsuH1pvXKerVPGXvw+ZcZD0zlySSYdNGZYmjva726wOd3sr0tXHB6+x/MLC1nXuuU8Fn0dpWhiFelUUuNbJLni9YW9jFWr8a0Va/fg9odAAAAAAAAAAAAAFYzDmqNFulQtKf3pfdi+LlYVGNzSLU+hb552+6P2o+JxNSrLd1JuT4279nEGcuXK7lXpVzrL4h4AAAAAAAAAAAAAAAM6VWUGpQk4tbGnZh6pqmmdaZ0lctAZuu1TxVlfUqnB/nxc4X2DzbWYovcfNb0760F6kAAAAAAAAAAqObsxOF8PQflekmnvfyrl4/8A1ijzPMJp/qtzz++fwpIZ5AAAAAAAAAAAAAAAAAAAAWvKWYnBqhWl5D1Qk3vXwRfI/wBu4ustzCaJi1cnm907PluXoNGAAAAAAAAafM+lv6ajeNt3J7mmuJ8MuZL97Bw5hiv49rWOtPNHn4OZyk2227t62+UMjMzM6ygIAAAAAAAAAAAAAAAAAAAAAdCyZph16bpTfl07WfrQ4HzrY+rjDUZXi5vUehV1qfrCxhagAAAAAAOaZtx/jsRKz8mHkR6tr7e4MlmV/lb86dEc3m0oV4AAAAAAAAAAAAAAAAAAAAAB7tCY50K0KnAnaXReph04S/yN6mvjudWi7q64dgbSJ1SAAAAAHl0nifFUalR/dhJ9dtX7h8cRc5O1VXsiXJbvh28IYjegAAAAAAAAAAAAAAAAAAAAAAAA6flbFeNwtNt60txLni7fBPrDYZdd5TD0zs5uHM2wdoAAAANBnerucJJetKEf/pS/iFZm9WmGmNsx99fw5yGVAAAAAAXAuWhMq0K9CFWcqicld2atta4uQL/C5Zau2aa6pnWXt+pWG9er2r5B0eprG2T6k4b16vtL5A9T2Nsn1Jw3r1faXyB6nsbZPqThvXq+0vkD1PY2yiWScPwVKq60/gETk1nbLw4jIz9HXvySjbuDnryX4K+Kt6S0ZWw7tWg1fey2xfM/htCpv4a7YnSuPH3PGHOAAAAAAAvXg+q3pVIerUv1Sil/Fho8kq/rrp2T94/S1hdAAAAAqfhCq2p0occ2/ZX/AGClzqr+umPmowZwAAAAEBIB1DKnmlHov3mGvy7s1G5tg7QAAAAAPji8LCrB06kU4vav/cIeLlum5TNNUaxLlemNHyw1aVKXBri/Wi9j+HOmGNxVibF2bc+G547h8EhAAAAALb4Pav2lWHHBPsdv5Bd5JV7ddPyheA0QAAAAKR4Qqnl0o/lk+12+AZ7O6vaojeqIUYAAAGEoAgDqOVPNKPRfvMNfl/ZqNzbB2qpnzHVaKpeKqShunPdWdr23LQVGbXrlumj0KtOlUfp/Gfianby3Cl/m4j/JKVmDGLZianany8KB/NxH+SWw0dnDFU5LxslUjwppJ25Gkg6bOaX6J9ufSj6/R0LCYmNWEakN7OKlHmauGlt3IuURXT0TzvsHtR/CHS8ulPjjJPqaa72Gezqn2qKt6ohSJQAIAAACxZFqWxNvWhJdlmFrlFWmI02xLoYagAAAAFAz9K9eK4od7YZnOZ1vRHyVkKgAAAIYShgYsJdSyn5pR6L95hr8v7NRubcOxS/CTvaHPPuiFJnXVo8VGuFCm4C4Q6nk6DWDpKXFJ9TnJr9mg1mWxMYajX5/eW5DuUPwh4hOrTpp72Lcl0mrdzDO51Xrcpp2RP1VRBSpAkIAAADdZPlbFU+XdLtQWGWTpiafF0sNaAAAADnmefOf8I/EMtm/aPCFdCrAAACAliwliwOp5S80o9F+8w1+X9mo3NuHYrub9B1sWqapSprcOTlu3Jb5K1rRfEFdmGEuYiKYo05tv/kq39RcZ6+H9uf+hKr9UYjbTxnyPqLjPXw/tz/0B6oxG2njPk9+jciNSUsTVi0tsIJ6+eT4Ooh0WcnnWJu1c2yPP9LrCCikkrJKyXEkF5EREaQ8OmdL0sLDdVJa/uRW+k+RfEOfE4q3h6fSq8I97lukMbOvUlVntk78iWxJciVkGSvXartc11dMvig+SQhkgAQAANrlfzql0vgw7cv7TQ6gGwAAAABznPHnT6EPiGVzftPhH5aAKwAAGBiEoYSxYS6nlHzOj0X7zDXZf2ajc24dgAAAAAFd09lSliW6kJyhUfC25RfI09nUFbi8tovT6cTpV9P93OfY/BVKE3TqxtJdaa4GnwoM3es12q5orjnfFB8mQQlASEAADZ5a86o9P4MOzAdpo3/iXUg2IAAAAOeZ685/wj8Qy2b9o8IV0KsAAGBiEsWEsWEup5R8zo9F+8w12X9mo3NwHYq2etJ1sOqTozcd057q1tdlG3eFVml+5ain0J011VL6z47+/LsRKo9YYj4z6z47+/LsQPWGI+N9sNm/Gwd3UU1xSiu9ayHujM8RTPTqvOXNOwxkG1HczjqnG99uxp8K+QXuDxlOIp100mOmP99zbh2K9nXRarUHUS8ul5S5Y/eXZrCtzPD8ra9KOmnn83NkGWZoISgJCAABtcr+dUul8GHbl/aaHUA2AAAAAKBn6Nq8Xxw7mwzOcxpeifkrIVAAAMDFhLFhLFhLqeUfM6PRfvMNdl/ZqNzcB2KV4St7Q5590QpM56tHioxKhAAFl8H9RrFWWyVOW66rNELPKapi/ptiXSQ0z54impQlF7JRafWrB5rp9KmYcZiGGZIDJBCQgAAbrKEb4qnybp9iCwyyNcTT4ulhrQAAAAUjwhU/LpS/LJdjv8Qz2d0+1RO9UQowAAYGLCWLCWDCXVMo+Z0ei/eYa7L+zUbm4DsUrwlb2hzz7ohSZ11aPFRbkqEuBlCLk9zFNt7EldvmSBHPOkdK/wCRtBVKN69aO5lJWhF7VHjfE3xENDleEqt63K40meiFuC4ebSOIVKlOo/uxb/bUu0Plerii3VVPuhx2IYlmgMkEJCAABYsjU74m/qwk+2yC0yinXEa7Il0MNSAAAACp+EKnenSlxTa7V/1Clzqn+umfmowZwAAGBiwliwliwl1TKPmdHov3mGuy/s1G5tw7Hyr4anO27hGVtm6inbmuHmqimrrREvl9G4f+xS/Tj8g8cha+GOEH0bh/7FL9OPyByFr4Y4Q+tHDU4bynCPNFLuD1Tbpp6sRD6h7AKRnrTsWv6WlK+v7Zrk2Q+fMFFmuMiY5Gid/kpiCiZIIZBCQgAAW3we0/tKsuKKXa7/ALvJKfbrq+S8BogAAAAaDPFLdYWT9WUJdstz/IKzN6dcNM7Jj76flzkMqAADAxYSxYSxYS6VlbSFCOEpRlWpRai7pzimvKe1NhqsDet04eiJqjo2tt9KYb8RR/Uh8w6+XtfHHGD6Uw34ij+pD5g5e18ccYPpTDfiKP6kPmDl7Xxxxg+lMN+Io/qQ+YOXtfHHGGMtL4VbcRR/Uj8wicRajvxxeDFZswVNaqu7fFFNhz3Myw9Pe13KtpnOlaqnCgnSi9rv5b5mt71awqcTmty57Nv2Y+v6VdBVM0EMkEMghIQAAL14PaX2VWfHUUfZin/Nho8kp/rrq+enCP2tYXQAAAAPLpXDeNo1KfrQaXPbU+0PjiLfKWqqNsOSc4YgAAGBiEoYSwYSwaJSiwCwCwCwACQAGSIGSCGSCGQQlBAAA6dlTDeLwtNcMlu3zyd+6y6g1+XW+Tw1Mbefi24dwAAAAAHM814DxOIlZeTPy49e1dtwyOZWOSvzp0TztMHAAAICWLCWLCWLQGJKQAAAAAJsQMkEMkEMkEJQEhAB7dDYF160KXA3eXRWth0YWzy12mjjudXjGysuDYG0iNOZISAAAAABps06J/qaNo7+HlU+Xjj1r90g4Mwwv8i1zdaOePLxc0aa1NWa2hkpjTmlAQAQwlAGLCWLQSiwEWCSxIWICwE2CEpASghkgJQQlASEAHQcl6IdGm6015dRKy9WHB1vb2Bp8qwnJUcpV0z9v2sgWwAAAAAAABT835ecr4ihHX6WCWt/nj8UFFmeXzP9tuN8fnzUoM+AQwlDAhhKLARYJRYBYBYBYCbATYITYCQhIEhABaMp5edWSr1o2prXCLW/fH0V+4XGW5fNyeVuR7Pujb+l9DSgAAAAAAAAABVcw5UVVurh7Rn96GyMuVcTCmx2Vxcn07XNOz3T+1JxFCdOTjUi4yW1NWDPV26rc+jVGkvkHhASgABFgksBFgFgFgJsBNggAkCQMqcJSajFNt7EldgppmqdIjnXDL+UXdVcVzxp/7/IL3BZVOsV3uHn5LlFJals4Av4jRIAAAAAAAAAAAAeXHaPo11uatOMuK+1cz2oPjew9u9GldOqrY/JGu+Hq6vVmu6S+XWFNeyXn1tVeE+f68WkxOWsZT9C5csWpBwXMtxNHd13NfWwNaG+pTXPFhy1WblPWpng8z4g+WoEgAAAAALhGsPvSwlWW9pzfNFh9KbVdXRTPBsMPl3GT2UJLllaK/cOmjL8TX0UNzgckTbvXqqK4VBXftPUuxh32slqn/AJKtI+XTxnyladG6IoYdfZU0nwyeuT52wuLGEtWOpT4+97g6QAAAAAAAAAAAAAAAAAhoD5VMLTlvqcHzxQeKrdFXTEPJU0FhJbcNS9hXD4TgsPPTbjg+M8s4J+gj1OS7mHznLcNPc+75yypgX6HsqVF/IPM5XhZ7n1nzI5TwK9C+upUf8gRlWFju/WfNnHLGCXoF1yk+9h6jLcNHc+77Q0Dg1sw1Lrgn3h7jA4aP+uOD108HSjvacFzRQfem1RT0Uw+ySWxB9NNEgAAAAAAAAAAAAAAAAAAAAAAAAAAAAAAAAAAAAAAAAAAAAAAAAAAAAAAAAAAAAAAAAAAAAAAAAAAAAAAAAAAAAAAAAAAAAAAAAAAAAAAAAAAAAAAAAf/Z;imageBorder=default;labelPosition=center;align=center;" vertex="1" parent="1">
          <mxGeometry x="-368.46" y="-458.81999999999994" width="100" height="100" as="geometry" />
        </mxCell>
        <mxCell id="K0uqmVBwROejImfsM0ea-16" style="edgeStyle=orthogonalEdgeStyle;rounded=0;orthogonalLoop=1;jettySize=auto;html=1;exitX=1;exitY=0.5;exitDx=0;exitDy=0;entryX=0.405;entryY=0.017;entryDx=0;entryDy=0;entryPerimeter=0;" edge="1" parent="1" source="aZVy_YJEkJ1AmMruKeH3-25" target="aZVy_YJEkJ1AmMruKeH3-1">
          <mxGeometry relative="1" as="geometry" />
        </mxCell>
        <mxCell id="K0uqmVBwROejImfsM0ea-17" style="edgeStyle=orthogonalEdgeStyle;rounded=0;orthogonalLoop=1;jettySize=auto;html=1;exitX=0.5;exitY=1;exitDx=0;exitDy=0;entryX=0.128;entryY=0.015;entryDx=0;entryDy=0;entryPerimeter=0;" edge="1" parent="1" source="aZVy_YJEkJ1AmMruKeH3-24" target="aZVy_YJEkJ1AmMruKeH3-1">
          <mxGeometry relative="1" as="geometry" />
        </mxCell>
        <mxCell id="K0uqmVBwROejImfsM0ea-19" style="edgeStyle=orthogonalEdgeStyle;rounded=0;orthogonalLoop=1;jettySize=auto;html=1;exitX=0.5;exitY=1;exitDx=0;exitDy=0;entryX=0.686;entryY=0.01;entryDx=0;entryDy=0;entryPerimeter=0;" edge="1" parent="1" source="aZVy_YJEkJ1AmMruKeH3-26" target="aZVy_YJEkJ1AmMruKeH3-1">
          <mxGeometry relative="1" as="geometry" />
        </mxCell>
        <mxCell id="K0uqmVBwROejImfsM0ea-22" style="edgeStyle=orthogonalEdgeStyle;rounded=0;orthogonalLoop=1;jettySize=auto;html=1;exitX=0.5;exitY=1;exitDx=0;exitDy=0;entryX=0.969;entryY=0.01;entryDx=0;entryDy=0;entryPerimeter=0;" edge="1" parent="1" source="aZVy_YJEkJ1AmMruKeH3-27" target="aZVy_YJEkJ1AmMruKeH3-1">
          <mxGeometry relative="1" as="geometry" />
        </mxCell>
        <mxCell id="K0uqmVBwROejImfsM0ea-23" style="edgeStyle=orthogonalEdgeStyle;rounded=0;orthogonalLoop=1;jettySize=auto;html=1;exitX=0.5;exitY=0;exitDx=0;exitDy=0;" edge="1" parent="1" source="M7h0rrMAaYI95qsz9Wyr-3">
          <mxGeometry relative="1" as="geometry">
            <mxPoint x="-159.95999999999998" y="-518.8199999999999" as="targetPoint" />
          </mxGeometry>
        </mxCell>
        <mxCell id="K0uqmVBwROejImfsM0ea-24" style="edgeStyle=orthogonalEdgeStyle;rounded=0;orthogonalLoop=1;jettySize=auto;html=1;exitX=0.5;exitY=0;exitDx=0;exitDy=0;entryX=0.405;entryY=0.989;entryDx=0;entryDy=0;entryPerimeter=0;" edge="1" parent="1" source="M7h0rrMAaYI95qsz9Wyr-7" target="aZVy_YJEkJ1AmMruKeH3-1">
          <mxGeometry relative="1" as="geometry" />
        </mxCell>
        <mxCell id="K0uqmVBwROejImfsM0ea-25" style="edgeStyle=orthogonalEdgeStyle;rounded=0;orthogonalLoop=1;jettySize=auto;html=1;exitX=0.5;exitY=0;exitDx=0;exitDy=0;entryX=0.689;entryY=0.983;entryDx=0;entryDy=0;entryPerimeter=0;" edge="1" parent="1" source="FumTjgW1J3t4SkrAZQBk-1" target="aZVy_YJEkJ1AmMruKeH3-1">
          <mxGeometry relative="1" as="geometry" />
        </mxCell>
        <mxCell id="K0uqmVBwROejImfsM0ea-26" style="edgeStyle=orthogonalEdgeStyle;rounded=0;orthogonalLoop=1;jettySize=auto;html=1;exitX=0.5;exitY=0;exitDx=0;exitDy=0;entryX=0.97;entryY=0.983;entryDx=0;entryDy=0;entryPerimeter=0;" edge="1" parent="1" source="aZVy_YJEkJ1AmMruKeH3-28" target="aZVy_YJEkJ1AmMruKeH3-1">
          <mxGeometry relative="1" as="geometry" />
        </mxCell>
      </root>
    </mxGraphModel>
  </diagram>
</mxfile>
